<?xml version="1.0" encoding="utf-8"?>
<!-- Generator: Adobe Illustrator 24.2.0, SVG Export Plug-In . SVG Version: 6.00 Build 0)  -->
<svg version="1.1" id="Layer_1" xmlns="http://www.w3.org/2000/svg" xmlns:xlink="http://www.w3.org/1999/xlink" x="0px" y="0px"
	 viewBox="0 0 1200 800" style="enable-background:new 0 0 1200 800;" xml:space="preserve">
<style type="text/css">
	.st0{fill:none;}
	.st1{fill:url(#SVGID_1_);}
	.st2{opacity:0.69;}
	.st3{fill:#99DEE6;}
	.st4{fill:#67CDD9;}
	.st5{opacity:0.45;fill:#99DEE6;enable-background:new    ;}
	.st6{opacity:0.7;fill:#01ACC0;enable-background:new    ;}
	.st7{fill:#BED6FD;}
	.st8{fill:#AFCFD3;}
	.st9{fill:#CCEEF2;}
	.st10{fill:#FFFFFF;}
	.st11{fill:#E4EFF0;}
	.st12{fill:url(#SVGID_2_);}
	.st13{fill:#015660;}
	.st14{fill:#151A4F;}
	.st15{fill:url(#SVGID_3_);}
	.st16{fill:#D6D7D8;}
</style>
<rect x="123" y="101" class="st0" width="932" height="699"/>
<g>
	
		<linearGradient id="SVGID_1_" gradientUnits="userSpaceOnUse" x1="-1367.7552" y1="3238.4551" x2="1234.5448" y2="3238.4551" gradientTransform="matrix(0.1165 0 0 0.1165 382.749 33.236)">
		<stop  offset="0" style="stop-color:#E8F1FE"/>
		<stop  offset="1" style="stop-color:#01ACC0"/>
	</linearGradient>
	<ellipse class="st1" cx="375" cy="410.5" rx="151.6" ry="154.3"/>
	<g class="st2">
		<g>
			<polygon class="st3" points="924.4,271.3 905.3,252.4 924.4,233.2 927.6,236.4 911.7,252.4 927.6,268.2 			"/>
		</g>
		<g>
			<polygon class="st3" points="910.2,271.3 891.3,252.4 910.2,233.2 913.5,236.4 897.5,252.4 913.5,268.2 			"/>
		</g>
	</g>
	<g class="st2">
		<g>
			<polygon class="st4" points="141.1,434 138,430.7 153.8,414.8 138,398.9 141.1,395.7 160.1,414.8 			"/>
		</g>
		<g>
			<polygon class="st4" points="155.3,434 152,430.7 168,414.8 152,398.9 155.3,395.7 174.3,414.8 			"/>
		</g>
	</g>
	<g>
		<path class="st5" d="M954.4,683.1l14.5,7.5c1.5,0.4,3,0.7,4.5,1l-22.6-11.6C952.1,681.1,953.2,682.2,954.4,683.1z"/>
		<path class="st5" d="M946.7,675.5l32.9,16.9c0.7,0,1.6,0,2.4,0l-36.6-18.8C945.8,674.1,946.2,674.7,946.7,675.5z"/>
		<path class="st5" d="M943.5,670.1l42.7,22c0.6-0.1,1.2-0.1,1.9-0.3l-45.3-23.3C943.1,669,943.2,669.5,943.5,670.1z"/>
		<path class="st5" d="M942.5,665.7l49.1,25.2c0.6-0.1,1-0.3,1.6-0.4l-50.8-26.1C942.3,664.8,942.3,665.3,942.5,665.7z"/>
		<path class="st5" d="M942.6,662.2l53.6,27.5c0.4-0.1,0.9-0.3,1.3-0.6L942.9,661C942.6,661.3,942.6,661.7,942.6,662.2z"/>
		<path class="st5" d="M943.4,658.7l56.8,29.3c0.4-0.1,0.7-0.4,1.2-0.6l-57.6-29.7C943.5,658,943.4,658.4,943.4,658.7z"/>
		<path class="st5" d="M944.4,655.6l59.1,30.5c0.3-0.1,0.7-0.4,1-0.7l-59.9-30.8C944.7,655,944.6,655.3,944.4,655.6z"/>
		<path class="st5" d="M945.8,652.6l60.9,31.4c0.3-0.3,0.7-0.4,1-0.7l-61.4-31.7C946.2,651.9,946.1,652.3,945.8,652.6z"/>
		<path class="st5" d="M948.2,649.6c-0.1,0.1-0.1,0.1-0.3,0.3l61.8,31.8c0.3-0.3,0.6-0.4,0.9-0.7l-61.7-31.7
			C948.6,649.3,948.3,649.5,948.2,649.6z"/>
		<path class="st5" d="M953.7,648.7c-0.3,0-0.4,0-0.7,0l59.3,30.5c0.3-0.3,0.4-0.6,0.7-0.9l-57.8-29.7
			C954.6,648.7,954.1,648.7,953.7,648.7z"/>
		<path class="st5" d="M958.8,648.1l55.6,28.5c0.3-0.3,0.4-0.6,0.6-0.9l-54.8-28.1C959.8,647.8,959.4,648,958.8,648.1z"/>
		<path class="st5" d="M963,646.5l53.3,27.5c0.1-0.3,0.4-0.6,0.6-0.9l-52.7-27C963.9,646,963.4,646.3,963,646.5z"/>
		<path class="st5" d="M966.4,644.5l51.7,26.6c0.1-0.3,0.3-0.6,0.4-1l-51.1-26.3C967,643.9,966.7,644.2,966.4,644.5z"/>
		<path class="st5" d="M969.1,642.1l50.2,25.8c0.1-0.3,0.3-0.7,0.4-1l-49.9-25.7C969.7,641.7,969.4,641.8,969.1,642.1z"/>
		<path class="st5" d="M971.3,639.6l49,25.2c0.1-0.3,0.1-0.7,0.3-1l-48.7-25.1C971.8,639,971.6,639.3,971.3,639.6z"/>
		<path class="st5" d="M973.1,636.8l47.9,24.6c0-0.4,0.1-0.7,0.1-1.2l-47.5-24.5C973.6,636.2,973.4,636.5,973.1,636.8z"/>
		<path class="st5" d="M1021.3,656.6l-46.4-23.9c-0.1,0.3-0.3,0.7-0.3,1l46.7,24C1021.3,657.4,1021.3,657.1,1021.3,656.6z"/>
		<path class="st5" d="M1020.9,652.6l-45.3-23.3c0,0.4-0.1,0.7-0.1,1.2l45.7,23.4C1021,653.5,1021,653,1020.9,652.6z"/>
		<path class="st5" d="M1019.7,648.3L976.5,626c-0.1,0.3-0.3,0.6-0.4,1l44.1,22.7C1020.2,649.3,1020,648.9,1019.7,648.3z"/>
		<path class="st5" d="M1017.5,643.6c-0.1-0.1-0.1-0.3-0.3-0.3l-38.2-19.7c-0.4,0.1-0.7,0.4-1,0.7l40.3,20.8
			C1018.1,644.7,1017.8,644.1,1017.5,643.6z"/>
		<path class="st5" d="M1010.4,636l-24.6-12.7c-1-0.3-2.2-0.4-3.3-0.4l31.2,16.1C1012.7,638,1011.6,637.1,1010.4,636z"/>
	</g>
	<path class="st6" d="M972.1,289.4c-2.7-3.4-5.4-6.7-8.1-10L564.1,585.8c2.4,3.6,4.9,7,7.6,10.5c14.8,19.3,31.7,35.7,50.2,49.4
		l5.1-6.1l196.4-46.9c-0.1,2.5-0.3,5.1-0.4,7.6l-198.3,47.3c1.5,1,3.1,2.2,4.6,3.3l193.3-46.1c-0.1,2.5-0.6,4.5-0.9,7.2L636.8,656
		c0.9,0.6,1.9,1.2,3,1.8l181.3-43.3c-0.6,2.7-1.2,6-1.9,8.7l-169.5,40.5c1.6,0.9,3.3,1.8,4.8,2.5l163.8-39.1
		c-0.7,2.1-1.5,4.8-2.2,7.5l-152.2,36.3c1.8,0.9,3.6,1.6,5.4,2.5l145.2-34.6c-0.9,2.7-1.8,5.4-3,7.6l-131.6,31.4
		c2.4,0.9,4.8,1.8,7.2,2.7l122.3-29.3c-1.5,2.8-3,5.7-4.6,8.7l-104.4,24.9c1.6,0.4,3.1,0.9,4.8,1.3l98-23.3
		c-1.6,3.6-3.7,6.6-5.7,9.6l-75.1,17.9c3,0.6,6,1.2,9,1.6l62.3-14.8c-0.7,1.5-1.6,2.2-2.5,3.3c-1.5,1.8-2.8,3.6-4.5,5.2l-36.3,8.7
		c4.9,0.4,9.9,0.7,14.8,0.9l16.4-3.9c-1.3,1.3-2.7,2.7-4,3.9c51.8-1,103.8-18.1,148-52C1035.8,558.4,1056.7,400.1,972.1,289.4z
		 M763.7,471.1c0.1,0.1,0.4,0.4,0.6,0.4l-1.2,0.3L763.7,471.1z M758.8,477.3l9.7-2.4c0.4,0.6,0.7,0.4,1,0.7c2.1,1.6,4,3.6,6,5.1
		l-24.5,5.8L758.8,477.3z M746.9,492.1l32.4-7.8c1.9,2.1,3.6,3.6,5.4,5.5L740,500.4L746.9,492.1z M737.4,503.7l49.1-11.6
		c1.8,2.1,3.6,4.2,5.4,6.3l-62.1,14.8L737.4,503.7z M725.5,518.5l69.1-16.6c1.5,2.1,2.7,3.7,4.2,6L718.6,527L725.5,518.5z
		 M714.3,532.4l86.9-20.8c1.2,1.6,2.4,3.9,3.4,5.4l-97.2,23.1L714.3,532.4z M704,544.8l102.3-24.5c1.2,2.2,2.5,5.1,3.7,7.3
		l-114.7,27.3L704,544.8z M692.8,558.2L811.1,530c1.2,2.8,2.1,5.1,3,7.5l-128.9,30.6L692.8,558.2z M680.8,572.9l134.4-32.1
		c0.7,2.4,1.5,4.6,2.1,6.4L674,581.4L680.8,572.9z M671.4,584.5l146.7-34.9c0.7,3,1.3,5.4,2.1,8.2l-157.1,37.5L671.4,584.5z
		 M659.3,599.3l161.3-38.5c0.4,2.4,0.9,4.8,1.2,6.6l-169.2,40.3L659.3,599.3z M648.3,613.3l174-41.5c0.3,2.4,0.4,4.3,0.6,6.7
		l-181.5,43.3L648.3,613.3z M629.5,636.5l8.5-10.8l185.2-44.2c0.1,3.1,0.1,5.5,0.3,8.7L629.5,636.5z"/>
	<path class="st7" d="M763.7,471.1l-0.6,0.7l1.2-0.3C764.2,471.6,763.9,471.3,763.7,471.1z"/>
	<g>
		<path class="st8" d="M672.5,734l76-18.2c5.7-3.3,11.4-6.4,16.6-10.9l-112.5,26.9C659.3,733.4,665.8,733.7,672.5,734z"/>
		<path class="st8" d="M764.8,695l-132.9,31.7c4.3,1.5,8.7,3,13.1,3.7l126.2-30.2c2.1-1.6,4-3.4,6-5.4
			C773.1,695.2,769,695.2,764.8,695z"/>
		<path class="st8" d="M781.2,691.1l-16.4,3.9c4.2,0.1,8.2,0.1,12.4,0C778.5,693.8,779.9,692.5,781.2,691.1z"/>
		<path class="st8" d="M582.3,694.1l-1.9,2.4c1.5,1.3,3,3,4.5,3.9l94.8-22.7c-3.6-1.3-7-2.8-10.5-4.3L582.3,694.1z"/>
		<path class="st8" d="M814.4,638.7l-145.2,34.6c3.4,1.5,7,3,10.5,4.3l131.6-31.4C812.6,644.2,813.5,641.4,814.4,638.7z"/>
		<path class="st8" d="M605.6,666l-8.7,10.2l52.9-12.5c-3.3-1.8-6.6-3.7-9.9-5.8L605.6,666z"/>
		<path class="st8" d="M821.1,614.7L639.8,658c3.3,1.9,6.6,3.9,9.9,5.8l169.5-40.5C819.9,620.5,820.5,617.2,821.1,614.7z"/>
		<path class="st8" d="M593.5,680.8l-6.9,8.5l77.2-18.4c-3.1-1.5-6.3-3-9.3-4.6L593.5,680.8z"/>
		<path class="st8" d="M818.2,627.2l-163.8,39.1c3.1,1.6,6.1,3.1,9.3,4.6l152.5-36.4C816.7,631.8,817.5,629.3,818.2,627.2z"/>
		<path class="st8" d="M589,703.8c2.5,1.9,5.2,3.7,7.9,5.7l103.3-24.6c-4.5-1.3-9-2.7-13.3-4.3L589,703.8z"/>
		<path class="st8" d="M809.3,651.3L687,680.5c4.5,1.6,8.8,3,13.3,4.3l104.4-24.9C806.3,656.9,807.8,654.1,809.3,651.3z"/>
		<path class="st8" d="M769.6,475.8c-0.3-0.3-0.6-0.3-1-0.7l-9.7,2.4l-7.8,9.4l24.5-5.8C773.7,479.4,771.6,477.4,769.6,475.8z"/>
		<path class="st8" d="M818.1,549.6l-146.7,34.9l-8.5,10.8L820,557.8C819.4,554.9,818.8,552.5,818.1,549.6z"/>
		<path class="st8" d="M614.7,719.7c3.3,1.6,6.7,3.4,10.2,4.5L750,694.3c-6.3-0.6-12.7-1.3-19-2.4L614.7,719.7z"/>
		<path class="st8" d="M790.8,680.2c0.9-1,1.8-1.9,2.5-3.3L731,691.7c6.3,1,12.5,1.8,19,2.4l36.3-8.7
			C787.8,684,789.3,682,790.8,680.2z"/>
		<path class="st8" d="M599.8,711.3c3.1,2.4,6.3,4.2,9.4,6l112.9-27c-5.7-1.2-11.5-2.5-17.2-4L599.8,711.3z"/>
		<path class="st8" d="M802.9,662.8l-98,23.3c5.7,1.5,11.4,2.8,17.2,4l75.1-17.9C799.3,669.3,801.2,666.3,802.9,662.8z"/>
		<path class="st8" d="M615,654.4l-6.9,8.5l28.7-6.9c-2.5-1.6-5.1-3.3-7.6-5.1L615,654.4z"/>
		<path class="st8" d="M822.4,604.8L629.2,651c2.5,1.8,5.1,3.4,7.6,5.1L821.5,612C821.8,609.4,822.3,607.3,822.4,604.8z"/>
		<path class="st8" d="M801.2,511.6l-86.9,20.8l-7,7.9l97.2-23.1C803.6,515.4,802.4,513.3,801.2,511.6z"/>
		<path class="st8" d="M786.6,491.9l-49.1,11.6l-7.8,9.4l62.1-14.8C790.2,496.1,788.4,494,786.6,491.9z"/>
		<path class="st8" d="M794.6,501.9l-69.1,16.6l-6.9,8.5l80.2-19.1C797.5,505.6,796.1,504,794.6,501.9z"/>
		<path class="st8" d="M806.3,520.4L704,544.9l-8.7,10.2L810,527.8C809,525.4,807.6,522.7,806.3,520.4z"/>
		<path class="st8" d="M779.3,484.3l-32.4,7.8l-6.9,8.5l44.7-10.6C782.8,487.9,781.2,486.4,779.3,484.3z"/>
		<path class="st8" d="M619.2,649l5.4-1.3c-0.9-0.6-1.8-1.3-2.7-1.9L619.2,649z"/>
		<path class="st8" d="M823.3,592.7l-196.4,46.9l-5.1,6.1c0.9,0.6,1.8,1.3,2.7,1.9l198.3-47.3C823,597.8,823.2,595.3,823.3,592.7z"
			/>
		<path class="st8" d="M729.7,724.7l-36.4,8.7C705.6,731.8,718,729.4,729.7,724.7z"/>
		<path class="st8" d="M822.4,571.7l-174,41.5l-6.9,8.5L823,578.4C822.7,576,822.7,574.2,822.4,571.7z"/>
		<path class="st8" d="M638,625.7l-8.5,10.8l193.8-46.3c0-3.1,0-5.7-0.3-8.7L638,625.7z"/>
		<path class="st8" d="M815.3,540.9L680.8,573l-6.9,8.5l143.4-34.2C816.7,545.5,816.1,543.1,815.3,540.9z"/>
		<path class="st8" d="M820.6,560.9l-161.3,38.5l-6.9,8.5l169.2-40.3C821.5,565.7,821.1,563.3,820.6,560.9z"/>
		<path class="st8" d="M811.1,530l-118.3,28.2l-7.6,10l128.7-30.8C813.2,535.1,812.3,532.8,811.1,530z"/>
	</g>
	<path class="st9" d="M895.8,368.7h4.5v10.5h-4.5V368.7z M895.8,458.3h4.5v11.9h-4.5V458.3z M888.3,344.8h6v11.9h-6V344.8z
		 M888.3,434.4h6v11.9h-6V434.4z M880.8,322.4h6v10.5h-6V322.4z M880.8,412h6V424h-6V412z M880.8,504.6h6v11.9h-6V504.6z
		 M870.4,298.5h6v11.9h-6V298.5z M870.4,391.1h6V403h-6V391.1z M870.4,480.7h6v11.9h-6V480.7z M862.9,368.7h4.5v10.5h-4.5V368.7z
		 M862.9,458.3h4.5v11.9h-4.5V458.3z M855.4,344.8h4.5v11.9h-4.5V344.8z M855.4,434.4h4.5v11.9h-4.5V434.4z M855.4,527h4.5v10.5
		h-4.5V527z M846.5,322.4h4.5v10.5h-4.5V322.4z M846.5,412h4.5V424h-4.5V412z M846.5,504.6h4.5v11.9h-4.5V504.6z M836,298.5h6v11.9
		h-6V298.5z M836,391.1h6V403h-6V391.1z M836,480.7h6v11.9h-6V480.7z M836,573.3h6v10.5h-6V573.3z M828.5,277.6h6v9h-6V277.6z
		 M828.5,368.7h6v10.5h-6V368.7z M828.5,458.3h6v11.9h-6V458.3z M828.5,550.9h6v10.5h-6V550.9z M821.1,253.7h4.5v10.5h-4.5V253.7z
		 M821.1,344.8h4.5v11.9h-4.5V344.8z M821.1,434.4h4.5v11.9h-4.5V434.4z M821.1,527h4.5v10.5h-4.5V527z M812.1,231.3h6v10.5h-6
		V231.3z M812.1,322.4h6v10.5h-6V322.4z M812.1,412h6V424h-6V412z M812.1,504.6h6v11.9h-6V504.6z M812.1,597.2h6v10.5h-6V597.2z
		 M803.2,298.5h6v11.9h-6V298.5z M803.2,391.1h6V403h-6V391.1z M803.2,480.7h6v11.9h-6V480.7z M803.2,573.3h6v10.5h-6V573.3z
		 M795.7,277.6h4.5v9h-4.5V277.6z M795.7,368.7h4.5v10.5h-4.5V368.7z M795.7,458.3h4.5v11.9h-4.5V458.3z M795.7,550.9h4.5v10.5h-4.5
		V550.9z M786.7,253.7h6v10.5h-6V253.7z M786.7,344.8h6v11.9h-6V344.8z M786.7,434.4h6v11.9h-6V434.4z M786.7,527h6v10.5h-6V527z
		 M779.3,231.3h6v10.5h-6V231.3z M779.3,322.4h6v10.5h-6V322.4z M779.3,412h6V424h-6V412z M779.3,504.6h6v11.9h-6V504.6z
		 M779.3,597.2h6v10.5h-6V597.2z M768.8,207.4h6v10.5h-6V207.4z M768.8,298.5h6v11.9h-6V298.5z M768.8,391.1h6V403h-6V391.1z
		 M768.8,480.7h6v11.9h-6V480.7z M768.8,573.3h6v10.5h-6V573.3z M761.3,277.6h4.5v9h-4.5V277.6z M761.3,368.7h4.5v10.5h-4.5V368.7z
		 M761.3,458.3h4.5v11.9h-4.5V458.3z M761.3,550.9h4.5v10.5h-4.5V550.9z M753.9,253.7h4.5v10.5h-4.5V253.7z M753.9,344.8h4.5v11.9
		h-4.5V344.8z M753.9,434.4h4.5v11.9h-4.5V434.4z M753.9,527h4.5v10.5h-4.5V527z M753.9,619.6h4.5V630h-4.5V619.6z M744.9,231.3h6
		v10.5h-6V231.3z M744.9,322.4h6v10.5h-6V322.4z M744.9,412h6V424h-6V412z M744.9,504.6h6v11.9h-6V504.6z M744.9,597.2h6v10.5h-6
		V597.2z M736,207.4h4.5v10.5H736V207.4z M736,298.5h4.5v11.9H736V298.5z M736,391.1h4.5V403H736V391.1z M736,480.7h4.5v11.9H736
		V480.7z M736,573.3h4.5v10.5H736V573.3z M727,185h6v10.5h-6V185z M727,277.6h6v9h-6V277.6z M727,368.7h6v10.5h-6V368.7z M727,458.3
		h6v11.9h-6V458.3z M727,550.9h6v10.5h-6V550.9z M727,643.5h6v10.5h-6V643.5z M719.5,253.7h6v10.5h-6V253.7z M719.5,344.8h6v11.9h-6
		V344.8z M719.5,434.4h6v11.9h-6V434.4z M719.5,527h6v10.5h-6V527z M719.5,619.6h6V630h-6V619.6z M712.1,231.3h4.5v10.5h-4.5V231.3z
		 M712.1,322.4h4.5v10.5h-4.5V322.4z M712.1,412h4.5V424h-4.5V412z M712.1,504.6h4.5v11.9h-4.5V504.6z M712.1,597.2h4.5v10.5h-4.5
		V597.2z M701.6,207.4h6v10.5h-6V207.4z M701.6,298.5h6v11.9h-6V298.5z M701.6,391.1h6V403h-6V391.1z M701.6,480.7h6v11.9h-6V480.7z
		 M701.6,573.3h6v10.5h-6V573.3z M692.6,185h7.5v10.5h-7.5V185z M692.6,277.6h7.5v9h-7.5V277.6z M692.6,368.7h7.5v10.5h-7.5V368.7z
		 M692.6,458.3h7.5v11.9h-7.5V458.3z M692.6,550.9h7.5v10.5h-7.5V550.9z M692.6,643.5h7.5v10.5h-7.5V643.5z M685.2,253.7h6v10.5h-6
		V253.7z M685.2,344.8h6v11.9h-6V344.8z M685.2,434.4h6v11.9h-6V434.4z M685.2,527h6v10.5h-6V527z M685.2,619.6h6V630h-6V619.6z
		 M677.7,231.3h6v10.5h-6V231.3z M677.7,322.4h6v10.5h-6V322.4z M677.7,412h6V424h-6V412z M677.7,504.6h6v11.9h-6V504.6z
		 M677.7,597.2h6v10.5h-6V597.2z M668.7,207.4h4.5v10.5h-4.5V207.4z M668.7,298.5h4.5v11.9h-4.5V298.5z M668.7,391.1h4.5V403h-4.5
		V391.1z M668.7,480.7h4.5v11.9h-4.5V480.7z M668.7,573.3h4.5v10.5h-4.5V573.3z M392.5,379.2H388v-10.5h4.5V379.2z M401.4,492.7
		h-4.5v-11.9h4.5V492.7z M401.4,403h-4.5v-11.9h4.5V403z M410.4,516.5h-4.5v-11.9h4.5V516.5z M410.4,424h-4.5V412h4.5V424z
		 M410.4,332.9h-4.5v-10.5h4.5V332.9z M419.3,537.5h-4.5V527h4.5V537.5z M419.3,446.4h-4.5v-11.9h4.5V446.4z M419.3,356.8h-4.5
		v-11.9h4.5V356.8z M426.8,470.3h-6v-11.9h6V470.3z M426.8,379.2h-6v-10.5h6V379.2z M434.3,492.7h-4.5v-11.9h4.5V492.7z M434.3,403
		h-4.5v-11.9h4.5V403z M434.3,310.5h-4.5v-11.9h4.5V310.5z M444.7,516.5h-6v-11.9h6V516.5z M444.7,424h-6V412h6V424z M444.7,332.9
		h-6v-10.5h6V332.9z M453.7,537.5h-6V527h6V537.5z M453.7,446.4h-6v-11.9h6V446.4z M453.7,356.8h-6v-11.9h6V356.8z M453.7,264.2h-6
		v-10.5h6V264.2z M461.2,561.4h-6v-10.5h6V561.4z M461.2,470.3h-6v-11.9h6V470.3z M461.2,379.2h-6v-10.5h6V379.2z M461.2,286.6h-6
		v-9h6V286.6z M468.6,583.8h-4.5v-10.5h4.5V583.8z M468.6,492.7h-4.5v-11.9h4.5V492.7z M468.6,403h-4.5v-11.9h4.5V403z M468.6,310.5
		h-4.5v-11.9h4.5V310.5z M479.1,607.6h-6v-10.5h6V607.6z M479.1,516.5h-6v-11.9h6V516.5z M479.1,424h-6V412h6V424z M479.1,332.9h-6
		v-10.5h6V332.9z M479.1,241.8h-6v-10.5h6V241.8z M486.5,537.5h-6V527h6V537.5z M486.5,446.4h-6v-11.9h6V446.4z M486.5,356.8h-6
		v-11.9h6V356.8z M486.5,264.2h-6v-10.5h6V264.2z M494,561.4h-6v-10.5h6V561.4z M494,470.3h-6v-11.9h6V470.3z M494,379.2h-6v-10.5h6
		V379.2z M494,286.6h-6v-9h6V286.6z M503,583.8h-6v-10.5h6V583.8z M503,492.7h-6v-11.9h6V492.7z M503,403h-6v-11.9h6V403z
		 M503,310.5h-6v-11.9h6V310.5z M503,217.9h-6v-10.5h6V217.9z M511.9,607.6h-4.5v-10.5h4.5V607.6z M511.9,516.5h-4.5v-11.9h4.5
		V516.5z M511.9,424h-4.5V412h4.5V424z M511.9,332.9h-4.5v-10.5h4.5V332.9z M511.9,241.8h-4.5v-10.5h4.5V241.8z M520.9,630h-6v-10.5
		h6V630z M520.9,537.5h-6V527h6V537.5z M520.9,446.4h-6v-11.9h6V446.4z M520.9,356.8h-6v-11.9h6V356.8z M520.9,264.2h-6v-10.5h6
		V264.2z M528.4,561.4h-4.5v-10.5h4.5V561.4z M528.4,470.3h-4.5v-11.9h4.5V470.3z M528.4,379.2h-4.5v-10.5h4.5V379.2z M528.4,286.6
		h-4.5v-9h4.5V286.6z M535.8,583.8h-4.5v-10.5h4.5V583.8z M535.8,492.7h-4.5v-11.9h4.5V492.7z M535.8,403h-4.5v-11.9h4.5V403z
		 M535.8,310.5h-4.5v-11.9h4.5V310.5z M535.8,217.9h-4.5v-10.5h4.5V217.9z M546.3,607.6h-6v-10.5h6V607.6z M546.3,516.5h-6v-11.9h6
		V516.5z M546.3,424h-6V412h6V424z M546.3,332.9h-6v-10.5h6V332.9z M546.3,241.8h-6v-10.5h6V241.8z M553.8,630h-6v-10.5h6V630z
		 M553.8,537.5h-6V527h6V537.5z M553.8,446.4h-6v-11.9h6V446.4z M553.8,356.8h-6v-11.9h6V356.8z M553.8,264.2h-6v-10.5h6V264.2z
		 M561.2,653.9h-4.5v-10.5h4.5V653.9z M561.2,561.4h-4.5v-10.5h4.5V561.4z M561.2,470.3h-4.5v-11.9h4.5V470.3z M561.2,379.2h-4.5
		v-10.5h4.5V379.2z M561.2,286.6h-4.5v-9h4.5V286.6z M561.2,195.5h-4.5V185h4.5V195.5z M570.2,583.8h-6v-10.5h6V583.8z M570.2,492.7
		h-6v-11.9h6V492.7z M570.2,403h-6v-11.9h6V403z M570.2,310.5h-6v-11.9h6V310.5z M570.2,217.9h-6v-10.5h6V217.9z M580.6,607.6h-6
		v-10.5h6V607.6z M580.6,516.5h-6v-11.9h6V516.5z M580.6,424h-6V412h6V424z M580.6,332.9h-6v-10.5h6V332.9z M580.6,241.8h-6v-10.5h6
		V241.8z M588.1,630h-6v-10.5h6V630z M588.1,537.5h-6V527h6V537.5z M588.1,446.4h-6v-11.9h6V446.4z M588.1,356.8h-6v-11.9h6V356.8z
		 M588.1,264.2h-6v-10.5h6V264.2z M595.6,653.9h-6v-10.5h6V653.9z M595.6,561.4h-6v-10.5h6V561.4z M595.6,470.3h-6v-11.9h6V470.3z
		 M595.6,379.2h-6v-10.5h6V379.2z M595.6,286.6h-6v-9h6V286.6z M595.6,195.5h-6V185h6V195.5z M604.5,583.8h-6v-10.5h6V583.8z
		 M604.5,492.7h-6v-11.9h6V492.7z M604.5,403h-6v-11.9h6V403z M604.5,310.5h-6v-11.9h6V310.5z M604.5,217.9h-6v-10.5h6V217.9z
		 M613.5,607.6H609v-10.5h4.5V607.6z M613.5,516.5H609v-11.9h4.5V516.5z M613.5,424H609V412h4.5V424z M613.5,332.9H609v-10.5h4.5
		V332.9z M613.5,241.8H609v-10.5h4.5V241.8z M622.5,630h-6v-10.5h6V630z M622.5,537.5h-6V527h6V537.5z M622.5,446.4h-6v-11.9h6
		V446.4z M622.5,356.8h-6v-11.9h6V356.8z M622.5,264.2h-6v-10.5h6V264.2z M629.9,653.9h-6v-10.5h6V653.9z M629.9,561.4h-6v-10.5h6
		V561.4z M629.9,470.3h-6v-11.9h6V470.3z M629.9,379.2h-6v-10.5h6V379.2z M629.9,286.6h-6v-9h6V286.6z M629.9,195.5h-6V185h6V195.5z
		 M637.4,583.8h-6v-10.5h6V583.8z M637.4,492.7h-6v-11.9h6V492.7z M637.4,403h-6v-11.9h6V403z M637.4,310.5h-6v-11.9h6V310.5z
		 M637.4,217.9h-6v-10.5h6V217.9z M649.3,607.6h-6v-10.5h6V607.6z M649.3,516.5h-6v-11.9h6V516.5z M649.3,424h-6V412h6V424z
		 M649.3,332.9h-6v-10.5h6V332.9z M649.3,241.8h-6v-10.5h6V241.8z M658.3,630h-6v-10.5h6V630z M658.3,537.5h-6V527h6V537.5z
		 M658.3,446.4h-6v-11.9h6V446.4z M658.3,356.8h-6v-11.9h6V356.8z M658.3,264.2h-6v-10.5h6V264.2z M658.3,171.6h-6v-10.5h6V171.6z
		 M665.8,653.9h-6v-10.5h6V653.9z M665.8,561.4h-6v-10.5h6V561.4z M665.8,470.3h-6v-11.9h6V470.3z M665.8,379.2h-6v-10.5h6V379.2z
		 M665.8,286.6h-6v-9h6V286.6z M659.8,195.5V185h6v10.5H659.8z"/>
	<g>
		<polygon class="st10" points="415.9,250.8 395,250.8 395,345.7 415.9,366.6 		"/>
		<polygon class="st10" points="377,250.8 356.1,250.8 356.1,306.9 377,327.8 		"/>
		<polygon class="st10" points="338.2,250.8 318.8,250.8 318.8,268.1 338.2,289 		"/>
		<polygon class="st10" points="490.5,250.8 471.1,250.8 471.1,423.3 490.5,443.5 		"/>
		<polygon class="st10" points="508.5,461.2 526.4,479.1 526.4,250.8 508.5,250.8 		"/>
		<polygon class="st10" points="453.2,250.8 432.3,250.8 432.3,384.5 453.2,405.4 		"/>
	</g>
</g>
<rect x="444" y="97" class="st0" width="388" height="440"/>
<path class="st11" d="M506.3,365.2c-4.3-0.3-8-2-12.7-0.9c-4.7,1.1-11.7,1.3-16.5,1.7c-9.1,0.8-16.9-1.4-25.6-0.3
	c-14.4,1.8-5.6,13.9,4.2,14.8c7.7,0.7,21.8-2,27.3,5.4c-3.8,1.5-16.1,4.4-13.3,10.9c3.1,7.2,14-1.4,17.5-3.4
	c4.6-2.6,16.6-5.8,19-9.1C509,380.8,508.3,365.4,506.3,365.2z"/>
<path class="st3" d="M501.5,375.7c-0.4,4-1.1,7-0.8,12.3c13.2,7.9,29,10.7,43.8,13.7c16,3.2,33,4.1,49.2,0.7
	c8.6-1.8,15.9-7.6,17.7-16.8c1.8-9.2-0.2-20.3-10.5-23.5c-14.9-4.5-29,3.7-43.4,5.9c-8.6,1.3-15.8,0.3-24.4-0.5
	c-10.1-1-21.4-1.4-31.3-3.2C502,364.6,501.8,372.5,501.5,375.7z"/>
<path class="st9" d="M538.5,368.1c1.2,5.5,1.8,9.1,1.8,15c0,5-1.4,14.1-2,17.4c7.9,1.7,15.3,3.6,23.4,4c3.7,0.2,7.5,0.6,11.3,0.3
	c4-0.4,7.9-2.1,11.8-2.2c-1.6-1.7-0.4-6.6-0.2-9c0.2-3.4-0.4-6.7-1.3-9.9c-1.9-6.8-4.6-13.6-7.4-20.1c-11.6,4.7-9.4,3.1-24.4,4.2
	C551.5,368.2,538,367.8,538.5,368.1z"/>
<path class="st11" d="M767.4,250.5c4.9-6.2,14.7-18.9,17-17.7c4.3,3.7,39.8,36.7,47.5,43.9c-0.7,1.9-2.1,2.7-4,3.5
	c-4.9,2.1-11.9,1.2-16.4-0.6c-4.5-1.8-6.7-3.5-11.4-5.1c-5.3-1.8-9.6-1.3-14.1-4.3c-1.9-1.2-5.3-5.8-6.8-7.4
	C775.4,258.7,771.4,254.6,767.4,250.5z"/>
<path class="st8" d="M724.2,241c-2-7.6-6.4-23-4-24.2c5.6-1.3,53.3-10.1,63.7-11.9c1.1,1.7,0.9,3.3,0.4,5.3
	c-1.3,5.2-6.1,10.2-10.3,12.8c-4.1,2.6-6.8,3.3-10.8,6.1c-4.6,3.1-7.4,6.1-12.5,8c-2.1,0.8-7.2,1.6-9.4,1.9
	C735.5,239.5,729.8,240.2,724.2,241z"/>
<path class="st11" d="M553.5,485.4c-4.6,4.7-7.5,8-13.9,9.6c-4.5,1.1-14.9,2.3-13.3,6.1c3.4,6.3,13.4,1.9,18.2,0.2
	c4.4,7.1-3.5,17.9,2.4,25.9c4.6,6.2,18,12.9,25.2,8.3c7.7-4.9-3.5-15.4-3.7-22.5c-0.4-10,7.2-14.6,9.3-23.6
	C570.1,489.7,559.5,479.3,553.5,485.4z"/>
<path class="st4" d="M753.6,235.5c0.1,9.3,0.7,21.9,0.9,29.8c0.2,9.1-1.5,18.8-2.4,28c-0.8,8.5-4.7,22.9-6.8,31.3
	c-2.2,9,0.6,12.5-3.6,20.4c-11.3-2.4-28.3-6.9-40-8.3c-0.2-9.4,1.5-15,4-24.8c2.9-11.1,9.5-19.4,11.9-29.2c2-8,2.5-12.8,1.7-20.6
	c-1.2-10.5,1.9-14.6,4.2-24C724.2,238.6,744.9,235.1,753.6,235.5z"/>
<g>
	<path class="st3" d="M663.7,335.7l-1.4-3.7c10.9-4.2,23.2-20.9,25.5-31.6c3-13.8-2.2-27.7-13.3-35.4c-4.1-2.8-8.4-5.5-12.5-8
		c-7.3-4.5-14.8-9.1-21.5-14.9c-5.6-4.8-10.8-12.1-14.1-19.5c-2.8-6.3-5.5-15.5-2.6-24.3c7.2-21.7,25.2-32.8,42.6-43.4
		c3.2-1.9,6.5-4,9.6-6c17.6-11.3,22.8-27.9,16.1-50.7l3.8-1.1c7.2,24.3,1.3,42.9-17.7,55.1c-3.2,2.1-6.5,4.1-9.7,6
		c-17.6,10.8-34.2,20.9-40.9,41.3c-4.5,13.8,6.6,31.7,15.6,39.5c6.5,5.6,13.5,9.9,20.9,14.5c4.2,2.6,8.5,5.3,12.7,8.2
		c12.4,8.6,18.3,24.1,14.9,39.5C689.1,312.9,676.1,330.9,663.7,335.7z"/>
</g>
<path class="st3" d="M575,400.3c1.7,6.4,6.8,10.7,12.7,14.2c5,3,11.3,4.5,16.9,5.8c12.9,2.9,24.5,2.4,37.2,0.5
	c29.3-4.4,49.7-17.1,71.3-37.1c10.6-9.7,18.6-22.3,24.1-35.8c3-7.4,5.6-11.9,7.1-19.5c2-10.5,10.9-23.6,17.4-32.7
	c6.4-8.9,15.2-20.5,25.8-24.6c-3.8-5-8.4-9.4-12.4-14.1c-2.8-3.3-6.7-6.9-6.7-6.9s-5.5,1.7-9.6,3.2c-6.1,2.3-13.5,5.5-17.6,10.7
	c-4.2,5.3-5.5,11.9-10.7,16.7c-4.9,4.5-12.1,7.1-16.1,12.8c-3.6,5.2-8,13.6-11.4,19.2c-7,11.5-15.6,15.6-27.3,21.5
	c-20.6,10.3-40.4,16.9-62.7,20.5c-23.8,3.9-37.8,13.9-38,37.5C575.7,391.9,574.9,397,575,400.3z"/>
<path class="st9" d="M705.3,307.9c0,0,16.8,1.3,24.6,4.4c8.9,3.5,16.7,9.9,17.1,13.1c1,8.3,2.4,17.2-1.4,24.7
	c-4.1,8.2-11.3,13.5-18.9,18.3c2.9-16.9-18.7-43.4-36.7-42.1C697.7,319.5,705.3,307.9,705.3,307.9z"/>
<linearGradient id="SVGID_2_" gradientUnits="userSpaceOnUse" x1="69.7283" y1="334.2797" x2="108.7264" y2="277.2827" gradientTransform="matrix(0.4979 0 0 -0.4972 591.6221 496.7908)">
	<stop  offset="0" style="stop-color:#EEEEEE"/>
	<stop  offset="0.9516" style="stop-color:#D6D7D8"/>
</linearGradient>
<path class="st12" d="M677.7,344.8c-14.6,19-38.8,29.4-67.5,35.7l-8.8-15.3c-6.7-11.6-2.7-26.4,9-33.1l28.8-16.5
	c11.6-6.7,26.5-2.7,33.1,8.9l6,10.4C680.2,338.1,679.9,342,677.7,344.8z"/>
<ellipse class="st13" cx="580.1" cy="364.8" rx="37.2" ry="37.1"/>
<path class="st3" d="M623.1,378.5c-28,0-29.9,27.5-38.8,50.3c-3.8,9.9-8.2,17.5-14.2,26.4c-3.4,5.1-7.4,12.8-10.2,18.2
	c-1.4,2.6-8.8,15.2-9,15.4c4.3,3.7,10.1,7.6,14.6,10.5c2.5,1.6,5.2,2.7,5.2,2.7s4.4-4.6,8.4-8.5c10.1-10,20-19.9,29.8-30.4
	c8.4-9,16.5-19,21.5-30.3c4.3-9.6,11.2-21.1,9.6-32.3C639.2,395.4,635.4,378.5,623.1,378.5z"/>
<path class="st9" d="M584.2,427.4c12,0,32,6.6,40,16c-4.9,12.1-15.3,24.5-25.9,29.8c-5.3-6-18.9-17.6-26.9-20.2
	C575,449.1,582.4,432.7,584.2,427.4z"/>
<path class="st14" d="M587.3,378.7l-5.7-12.9c-2-4.6-7.4-6.6-11.9-4.6l-25.9,11.5c2.5,11.6,10.4,21.1,20.9,25.9l18-8
	C587.3,388.6,589.3,383.3,587.3,378.7z"/>
<linearGradient id="SVGID_3_" gradientUnits="userSpaceOnUse" x1="-38.2027" y1="218.4607" x2="-38.2027" y2="260.4649" gradientTransform="matrix(0.4979 0 0 -0.4972 591.6221 496.7908)">
	<stop  offset="0" style="stop-color:#FFBEB6"/>
	<stop  offset="1" style="stop-color:#F2A19C"/>
</linearGradient>
<path class="st15" d="M587.3,378.7l-5.7-12.9c-2-4.6-7.4-6.6-11.9-4.6l-12.5,5.5c1.5,8.9-0.4,15.3,0,16.2c0.5,1.3,2,1.1,3.1,1.1
	c1.5,0,2.2,0.2,3,1.6c1.5,2.6,2.9,4.6,5.3,6.3c1.6,1.1,4.3,1.7,6.2,2.1l7.9-3.5C587.3,388.6,589.3,383.3,587.3,378.7z"/>
<g>
	<path class="st16" d="M564.7,399.8c-0.5,0-0.9-0.3-1.1-0.7c-0.3-0.6,0-1.4,0.6-1.6l18-8c3.9-1.7,5.7-6.3,4-10.3l-5.7-12.9
		c-1.7-3.9-6.3-5.7-10.3-4l-25.9,11.5c-0.6,0.3-1.4,0-1.6-0.6c-0.3-0.6,0-1.4,0.6-1.6l25.9-11.5c5.2-2.3,11.3,0.1,13.6,5.2l5.7,12.9
		c1.1,2.5,1.2,5.3,0.2,7.9c-1,2.6-2.9,4.6-5.4,5.7l-18,8C565,399.8,564.9,399.8,564.7,399.8z"/>
</g>
<path id="texure_3_-i1" class="st10" d="M638.5,331.1c0.1,0,0.2-0.1,0.1-0.2c0-0.1-0.1-0.2-0.2-0.1c-0.1,0-0.2,0.1-0.1,0.2l0,0
	C638.3,331.1,638.4,331.1,638.5,331.1L638.5,331.1z M637.4,326.8c0.1,0,0.2-0.1,0.1-0.2c0-0.1-0.1-0.2-0.2-0.1
	c-0.1,0-0.2,0.1-0.1,0.2c0,0,0,0,0,0C637.2,326.8,637.3,326.9,637.4,326.8L637.4,326.8L637.4,326.8z M653.3,320
	c0.1,0.1,0.2,0,0.3-0.1l0,0c0.1-0.1,0-0.2,0-0.2c0,0,0,0,0,0c-0.1-0.1-0.2,0-0.2,0.1C653.1,319.9,653.2,320,653.3,320L653.3,320
	L653.3,320z M629.2,329.2c0.1,0,0.2-0.1,0.2-0.1c0-0.1-0.1-0.2-0.1-0.2c-0.1,0-0.2,0.1-0.2,0.1C629,329.1,629.1,329.2,629.2,329.2
	C629.2,329.2,629.2,329.2,629.2,329.2z M645.4,325.2c0.1,0.1,0.2,0.1,0.3,0c0.1-0.1,0.1-0.2,0-0.3c-0.1-0.1-0.2-0.1-0.3,0
	C645.4,325,645.4,325.1,645.4,325.2z M642.8,321.6c0.1,0.1,0.2,0.1,0.3,0l0,0c0.1-0.1,0.1-0.2,0.1-0.2c0,0,0,0,0,0
	c-0.1-0.1-0.2-0.1-0.3,0C642.8,321.4,642.7,321.5,642.8,321.6z M620,346.3c0.2,0,0.4-0.1,0.4-0.3c0,0,0,0,0,0c0-0.2-0.1-0.4-0.3-0.4
	c0,0,0,0,0,0c-0.2,0-0.4,0.1-0.4,0.3c0,0,0,0,0,0C619.7,346.1,619.8,346.3,620,346.3C620,346.3,620,346.3,620,346.3L620,346.3z
	 M621.7,338.2c0.2,0,0.4-0.1,0.4-0.3c0-0.2-0.1-0.4-0.3-0.4c0,0,0,0,0,0c-0.2,0-0.4,0.1-0.4,0.3c0,0,0,0,0,0
	C621.4,338,621.5,338.1,621.7,338.2L621.7,338.2z M652.6,348.1c0.1,0.2,0.3,0.2,0.5,0.1c0.2-0.1,0.2-0.3,0.1-0.5c0,0,0,0,0,0
	c-0.1-0.2-0.3-0.2-0.5-0.1C652.5,347.7,652.5,347.9,652.6,348.1L652.6,348.1L652.6,348.1z M643.5,334c0.1,0.2,0.3,0.2,0.5,0.1
	c0,0,0,0,0,0c0.2-0.1,0.2-0.3,0.1-0.5c0,0,0,0,0,0c-0.1-0.2-0.3-0.2-0.5-0.1C643.5,333.7,643.4,333.9,643.5,334L643.5,334z M639,327
	c0.1,0.2,0.3,0.2,0.5,0.1c0.2-0.1,0.2-0.3,0.1-0.5c-0.1-0.2-0.3-0.2-0.5-0.1l0,0C638.9,326.6,638.9,326.9,639,327
	C639,327,639,327,639,327L639,327z M635,351c0.2,0,0.3-0.2,0.3-0.4c0-0.2-0.2-0.3-0.4-0.3c-0.2,0-0.3,0.2-0.3,0.4
	C634.6,351,634.8,351.1,635,351L635,351z M633.5,342.8c0.2,0,0.3-0.2,0.3-0.4c0-0.2-0.2-0.3-0.4-0.3c-0.2,0-0.3,0.2-0.3,0.4
	C633.1,342.7,633.3,342.9,633.5,342.8L633.5,342.8z M632,334.6c0.2,0,0.3-0.2,0.3-0.4c0-0.2-0.2-0.3-0.4-0.3c-0.2,0-0.3,0.2-0.3,0.4
	C631.6,334.5,631.8,334.7,632,334.6C632,334.6,632,334.6,632,334.6z M661.7,333.9c0.2,0.1,0.4,0.1,0.5-0.1c0.1-0.2,0.1-0.4-0.1-0.5
	c0,0,0,0,0,0c-0.1-0.1-0.4-0.1-0.5,0.1c0,0,0,0,0,0C661.5,333.6,661.6,333.8,661.7,333.9z M648,324.4c0.1,0.1,0.4,0.1,0.5-0.1
	c0,0,0,0,0,0c0.1-0.2,0.1-0.4-0.1-0.5c0,0,0,0,0,0c-0.2-0.1-0.4-0.1-0.5,0.1C647.8,324.1,647.8,324.3,648,324.4
	C648,324.4,648,324.4,648,324.4z M626.9,352.3c0.2,0,0.3-0.2,0.3-0.3c0-0.2-0.2-0.3-0.3-0.3c-0.2,0-0.3,0.2-0.3,0.3l0,0
	C626.6,352.2,626.7,352.3,626.9,352.3L626.9,352.3z M626.3,344.9c0.2,0,0.3-0.2,0.3-0.3c0-0.2-0.2-0.3-0.3-0.3
	c-0.2,0-0.3,0.2-0.3,0.3c0,0,0,0,0,0C625.9,344.7,626.1,344.9,626.3,344.9C626.2,344.9,626.3,344.9,626.3,344.9L626.3,344.9z
	 M625.4,337.4c0.1,0.1,0.1,0.1,0.2,0.1c0.2,0,0.3-0.2,0.3-0.3c0-0.2-0.2-0.3-0.3-0.3c0,0,0,0,0,0c-0.1,0-0.2,0.1-0.2,0.2l0,0
	c0,0,0,0.1,0,0.2C625.3,337.2,625.3,337.3,625.4,337.4L625.4,337.4z M654.5,337.8c0.1,0.1,0.3,0.1,0.4,0c0.1-0.1,0.1-0.3,0-0.4
	c0,0,0,0,0,0c-0.1-0.1-0.3-0.1-0.4,0c0,0,0,0,0,0C654.4,337.5,654.4,337.7,654.5,337.8z M643.1,328.2c0.1,0.1,0.3,0.1,0.4,0
	c0,0,0,0,0,0c0.1-0.1,0.1-0.3,0-0.4c0,0,0,0,0,0c-0.1-0.1-0.3-0.1-0.4,0c0,0,0,0,0,0C643,327.9,643,328.1,643.1,328.2L643.1,328.2z
	 M637.4,323.4c0.1,0.1,0.3,0.1,0.4,0c0.1-0.1,0.1-0.3,0-0.4c-0.1-0.1-0.3-0.1-0.4,0C637.3,323.1,637.3,323.3,637.4,323.4
	L637.4,323.4z M639.7,344.7c0.1,0.1,0.3,0.2,0.4,0.1c0.1-0.1,0.2-0.3,0.1-0.4c-0.1-0.1-0.3-0.2-0.4-0.1
	C639.7,344.3,639.6,344.5,639.7,344.7z M636.3,338.1c0.1,0.1,0.2,0.2,0.4,0.1c0,0,0,0,0,0c0.1-0.1,0.2-0.3,0.1-0.4
	c-0.1-0.1-0.3-0.2-0.4-0.1C636.2,337.7,636.2,337.9,636.3,338.1z M632.8,331.4c0.1,0.1,0.3,0.2,0.4,0.1c0.1-0.1,0.2-0.3,0.1-0.4
	c-0.1-0.1-0.3-0.2-0.4-0.1C632.8,331.1,632.8,331.3,632.8,331.4C632.8,331.4,632.8,331.4,632.8,331.4z M651.3,320.9
	c0.2,0.1,0.3,0,0.4-0.2c0-0.2,0-0.3-0.2-0.4c-0.2,0-0.3,0-0.4,0.2C651.1,320.7,651.2,320.9,651.3,320.9
	C651.3,320.9,651.3,320.9,651.3,320.9z M633.8,332c0.1,0.1,0.2,0.1,0.3,0c0.1-0.1,0.1-0.2,0-0.3c-0.1-0.1-0.2-0.1-0.3,0l0,0
	C633.8,331.8,633.8,331.9,633.8,332L633.8,332L633.8,332z M631.1,328.5c0.1,0.1,0.2,0.1,0.3,0c0.1-0.1,0.1-0.2,0-0.3l0,0
	c-0.1-0.1-0.2-0.1-0.2,0c0,0,0,0,0,0C631,328.3,631,328.5,631.1,328.5C631.1,328.5,631.1,328.5,631.1,328.5z M624.8,334.2
	c0.1,0,0.1-0.1,0.1-0.2c0-0.1-0.1-0.2-0.2-0.1c0,0,0,0,0,0c-0.1,0-0.2,0.1-0.1,0.2c0,0,0,0,0,0C624.6,334.1,624.7,334.2,624.8,334.2
	L624.8,334.2z M637.9,323.7c0.1,0,0.2,0,0.2-0.1c0-0.1,0-0.2-0.1-0.2c-0.1-0.1-0.2,0-0.2,0c0,0,0,0,0,0
	C637.8,323.5,637.8,323.7,637.9,323.7C637.9,323.7,637.9,323.7,637.9,323.7L637.9,323.7z M616.3,342.6c0.1,0,0.2-0.1,0.2-0.2
	c0,0,0,0,0,0c0-0.1-0.1-0.2-0.2-0.2c0,0,0,0,0,0c-0.1,0-0.2,0.1-0.2,0.2c0,0,0,0,0,0C616.1,342.5,616.2,342.6,616.3,342.6
	L616.3,342.6z M635,333.1c0.1,0.1,0.2,0.1,0.3,0c0,0,0,0,0,0c0.1-0.1,0.1-0.2,0-0.3c-0.1-0.1-0.2-0.1-0.3,0
	C634.9,332.8,634.9,333,635,333.1C635,333.1,635,333.1,635,333.1L635,333.1z M631.2,329.8c0.1,0.1,0.2,0.1,0.3,0v0
	c0.1-0.1,0.1-0.2,0-0.3c-0.1-0.1-0.2-0.1-0.3,0C631.1,329.6,631.1,329.7,631.2,329.8L631.2,329.8z M625.4,337.4
	C625.4,337.4,625.5,337.4,625.4,337.4c0.2-0.1,0.2-0.2,0.2-0.3c0,0,0,0,0,0c-0.1-0.1-0.2-0.1-0.3-0.1l0,0c-0.1,0-0.1,0.2-0.1,0.3
	c0,0,0,0,0,0C625.3,337.3,625.3,337.4,625.4,337.4L625.4,337.4z M638,322.9c0.1,0,0.2,0,0.3-0.1c0,0,0,0,0,0c0-0.1,0-0.2-0.1-0.3
	c-0.1,0-0.2,0-0.3,0.1c0,0,0,0,0,0C637.8,322.8,637.9,322.9,638,322.9L638,322.9z M631.5,358.7c0.1,0.2,0.3,0.2,0.5,0.1
	c0.2-0.1,0.2-0.3,0.2-0.5c-0.1-0.2-0.3-0.2-0.5-0.1C631.5,358.3,631.4,358.5,631.5,358.7L631.5,358.7z M627.5,351.1
	c0.1,0.2,0.3,0.2,0.5,0.2c0.2-0.1,0.2-0.3,0.2-0.5c-0.1-0.2-0.3-0.2-0.5-0.2C627.5,350.7,627.4,350.9,627.5,351.1L627.5,351.1z
	 M623.4,343.5c0.1,0.2,0.3,0.2,0.5,0.1c0.2-0.1,0.2-0.3,0.1-0.5c-0.1-0.2-0.3-0.2-0.5-0.1C623.4,343.1,623.4,343.3,623.4,343.5z
	 M646.6,328.5c0.2,0.1,0.4,0,0.4-0.2c0.1-0.2,0-0.4-0.2-0.4c-0.2-0.1-0.4,0-0.4,0.2l0,0C646.3,328.2,646.4,328.4,646.6,328.5
	L646.6,328.5z M638.4,325.9c0.2,0.1,0.4,0,0.4-0.2c0.1-0.2-0.1-0.4-0.2-0.5c-0.2-0.1-0.4,0.1-0.4,0.3
	C638.1,325.7,638.2,325.9,638.4,325.9z M635.8,339.6c0.2,0.1,0.4,0.1,0.5,0v0c0.1-0.1,0.1-0.4,0-0.5l0,0c-0.1-0.1-0.4-0.1-0.5,0
	C635.6,339.2,635.6,339.4,635.8,339.6C635.8,339.6,635.8,339.6,635.8,339.6L635.8,339.6z M629.1,334.1c0.1,0.1,0.4,0.1,0.5,0
	c0,0,0,0,0,0c0.1-0.1,0.1-0.4,0-0.5c-0.1-0.1-0.4-0.1-0.5,0C629,333.7,629,333.9,629.1,334.1C629.1,334.1,629.1,334.1,629.1,334.1z
	 M633.5,344.7c0.1,0.1,0.4,0.1,0.5,0c0.1-0.1,0.1-0.4,0-0.5c-0.2-0.1-0.4-0.1-0.5,0C633.4,344.3,633.4,344.5,633.5,344.7
	L633.5,344.7z M627.1,338.9c0.1,0.1,0.4,0.1,0.5,0c0.1-0.1,0.1-0.4,0-0.5c-0.1-0.1-0.4-0.1-0.5,0l0,0
	C627,338.6,627,338.8,627.1,338.9L627.1,338.9z M619.1,349.5c0.1,0.2,0.3,0.2,0.5,0.2c0,0,0,0,0,0c0.2-0.1,0.3-0.3,0.2-0.5
	c-0.1-0.2-0.3-0.3-0.5-0.2C619.1,349.1,619,349.3,619.1,349.5L619.1,349.5z M615.4,341.8c0.1,0.2,0.3,0.3,0.5,0.2
	c0.2-0.1,0.3-0.3,0.2-0.5c0,0,0,0,0,0c-0.1-0.2-0.3-0.2-0.5-0.2C615.4,341.4,615.3,341.6,615.4,341.8
	C615.4,341.8,615.4,341.8,615.4,341.8L615.4,341.8z M645.1,333.3c0.2,0.1,0.4,0,0.5-0.2c0.1-0.2,0-0.4-0.2-0.4
	c-0.2-0.1-0.4,0-0.4,0.2c0,0,0,0,0,0C644.8,333,644.9,333.2,645.1,333.3C645.1,333.3,645.1,333.3,645.1,333.3z M637,330.4
	c0.2,0.1,0.4,0,0.5-0.2c0.1-0.2,0-0.4-0.2-0.4c-0.2-0.1-0.4,0-0.4,0.2c0,0,0,0,0,0C636.7,330.1,636.8,330.3,637,330.4
	C637,330.4,637,330.4,637,330.4z M631.2,338.4c0.1,0.1,0.3,0,0.4-0.1c0.1-0.1,0-0.3-0.1-0.4c-0.1-0.1-0.3,0-0.4,0.1c0,0,0,0,0,0
	C631,338.2,631,338.4,631.2,338.4z M625.6,335.2c0.1,0.1,0.3,0,0.4-0.1c0.1-0.1,0-0.3-0.1-0.4c-0.1-0.1-0.3,0-0.4,0.1c0,0,0,0,0,0
	C625.4,335,625.4,335.1,625.6,335.2L625.6,335.2z M619.8,346.1c0.1,0.1,0.3,0.1,0.4,0c0.1-0.1,0.1-0.3,0-0.4c-0.1-0.1-0.3-0.1-0.4,0
	c0,0,0,0,0,0C619.7,345.8,619.7,346,619.8,346.1C619.8,346.1,619.8,346.1,619.8,346.1z M615.9,341c0.1,0.1,0.3,0.1,0.4,0.1
	c0.1-0.1,0.1-0.3,0-0.4c0,0,0,0,0,0c-0.1-0.1-0.2-0.1-0.4-0.1c0,0,0,0,0,0C615.8,340.7,615.8,340.9,615.9,341
	C615.9,341,615.9,341,615.9,341L615.9,341z"/>
</svg>
