<?xml version="1.0" encoding="utf-8"?>
<!-- Generator: Adobe Illustrator 24.2.0, SVG Export Plug-In . SVG Version: 6.00 Build 0)  -->
<svg version="1.1" id="Layer_1" xmlns="http://www.w3.org/2000/svg" xmlns:xlink="http://www.w3.org/1999/xlink" x="0px" y="0px"
	 viewBox="0 0 886.1 637" style="enable-background:new 0 0 886.1 637;" xml:space="preserve">
<style type="text/css">
	.st0{fill:url(#SVGID_1_);}
	.st1{opacity:0.69;}
	.st2{fill:#99DEE6;}
	.st3{fill:#67CDD9;}
	.st4{opacity:0.45;fill:#99DEE6;enable-background:new    ;}
	.st5{opacity:0.7;fill:#01ACC0;enable-background:new    ;}
	.st6{fill:#BED6FD;}
	.st7{fill:#AFCFD3;}
	.st8{fill:#CCEEF2;}
	.st9{fill:#FFFFFF;}
	.st10{fill:none;}
	.st11{fill:#E4EFF0;}
	.st12{fill:url(#SVGID_2_);}
	.st13{fill:#015660;}
	.st14{fill:#151A4F;}
	.st15{fill:url(#SVGID_3_);}
	.st16{fill:#D6D7D8;}
</style>
<g>
	
		<linearGradient id="SVGID_1_" gradientUnits="userSpaceOnUse" x1="-3735.4077" y1="-2504.9829" x2="-1132.8328" y2="-2504.9829" gradientTransform="matrix(0.1165 0 0 -0.1165 520.575 21.6695)">
		<stop  offset="0" style="stop-color:#E8F1FE"/>
		<stop  offset="1" style="stop-color:#01ACC0"/>
	</linearGradient>
	<ellipse class="st0" cx="237" cy="313.5" rx="151.6" ry="154.3"/>
	<g class="st1">
		<g>
			<polygon class="st2" points="786.4,174.3 767.3,155.4 786.4,136.2 789.6,139.4 773.7,155.4 789.6,171.2 			"/>
		</g>
		<g>
			<polygon class="st2" points="772.2,174.3 753.3,155.4 772.2,136.2 775.5,139.4 759.5,155.4 775.5,171.2 			"/>
		</g>
	</g>
	<g class="st1">
		<g>
			<polygon class="st3" points="3.1,337 0,333.7 15.8,317.8 0,301.9 3.1,298.7 22.1,317.8 			"/>
		</g>
		<g>
			<polygon class="st3" points="17.3,337 14,333.7 30,317.8 14,301.9 17.3,298.7 36.3,317.8 			"/>
		</g>
	</g>
	<g>
		<path class="st4" d="M816.4,586.1l14.5,7.5c1.5,0.4,3,0.7,4.5,1L812.8,583C814.1,584.1,815.2,585.2,816.4,586.1z"/>
		<path class="st4" d="M808.7,578.5l32.9,16.9c0.7,0,1.6,0,2.4,0l-36.6-18.8C807.8,577.1,808.2,577.7,808.7,578.5z"/>
		<path class="st4" d="M805.5,573.1l42.7,22c0.6-0.1,1.2-0.1,1.9-0.3l-45.3-23.3C805.1,572,805.2,572.5,805.5,573.1z"/>
		<path class="st4" d="M804.5,568.7l49.1,25.2c0.6-0.1,1-0.3,1.6-0.4l-50.8-26.1C804.3,567.8,804.3,568.3,804.5,568.7z"/>
		<path class="st4" d="M804.6,565.2l53.6,27.5c0.4-0.1,0.9-0.3,1.3-0.6L804.9,564C804.6,564.3,804.6,564.7,804.6,565.2z"/>
		<path class="st4" d="M805.4,561.7l56.8,29.3c0.4-0.1,0.7-0.4,1.2-0.6l-57.6-29.7C805.5,561,805.4,561.4,805.4,561.7z"/>
		<path class="st4" d="M806.4,558.6l59.1,30.5c0.3-0.1,0.7-0.4,1-0.7l-59.9-30.8C806.7,558,806.6,558.3,806.4,558.6z"/>
		<path class="st4" d="M807.8,555.6l60.9,31.4c0.3-0.3,0.7-0.4,1-0.7l-61.4-31.7C808.2,554.9,808.1,555.3,807.8,555.6z"/>
		<path class="st4" d="M810.2,552.6c-0.1,0.1-0.1,0.1-0.3,0.3l61.8,31.8c0.3-0.3,0.6-0.4,0.9-0.7l-61.7-31.7
			C810.6,552.3,810.3,552.5,810.2,552.6z"/>
		<path class="st4" d="M815.7,551.7c-0.3,0-0.4,0-0.7,0l59.3,30.5c0.3-0.3,0.4-0.6,0.7-0.9l-57.8-29.7
			C816.6,551.7,816.1,551.7,815.7,551.7z"/>
		<path class="st4" d="M820.8,551.1l55.6,28.5c0.3-0.3,0.4-0.6,0.6-0.9l-54.8-28.1C821.8,550.8,821.4,551,820.8,551.1z"/>
		<path class="st4" d="M825,549.5l53.3,27.5c0.1-0.3,0.4-0.6,0.6-0.9l-52.7-27C825.9,549,825.4,549.3,825,549.5z"/>
		<path class="st4" d="M828.4,547.5l51.7,26.6c0.1-0.3,0.3-0.6,0.4-1l-51.1-26.3C829,546.9,828.7,547.2,828.4,547.5z"/>
		<path class="st4" d="M831.1,545.1l50.2,25.8c0.1-0.3,0.3-0.7,0.4-1l-49.9-25.7C831.7,544.7,831.4,544.8,831.1,545.1z"/>
		<path class="st4" d="M833.3,542.6l49,25.2c0.1-0.3,0.1-0.7,0.3-1l-48.7-25.1C833.8,542,833.6,542.3,833.3,542.6z"/>
		<path class="st4" d="M835.1,539.8l47.9,24.6c0-0.4,0.1-0.7,0.1-1.2l-47.5-24.5C835.6,539.2,835.4,539.5,835.1,539.8z"/>
		<path class="st4" d="M883.3,559.6l-46.4-23.9c-0.1,0.3-0.3,0.7-0.3,1l46.7,24C883.3,560.4,883.3,560.1,883.3,559.6z"/>
		<path class="st4" d="M882.9,555.6l-45.3-23.3c0,0.4-0.1,0.7-0.1,1.2l45.7,23.4C883,556.5,883,556,882.9,555.6z"/>
		<path class="st4" d="M881.7,551.3L838.5,529c-0.1,0.3-0.3,0.6-0.4,1l44.1,22.7C882.2,552.3,882,551.9,881.7,551.3z"/>
		<path class="st4" d="M879.5,546.6c-0.1-0.1-0.1-0.3-0.3-0.3L841,526.6c-0.4,0.1-0.7,0.4-1,0.7l40.3,20.8
			C880.1,547.7,879.8,547.1,879.5,546.6z"/>
		<path class="st4" d="M872.4,539l-24.6-12.7c-1-0.3-2.2-0.4-3.3-0.4l31.2,16.1C874.7,541,873.6,540.1,872.4,539z"/>
	</g>
	<path class="st5" d="M834.1,192.4c-2.7-3.4-5.4-6.7-8.1-10L426.1,488.8c2.4,3.6,4.9,7,7.6,10.5c14.8,19.3,31.7,35.7,50.2,49.4
		l5.1-6.1l196.4-46.9c-0.1,2.5-0.3,5.1-0.4,7.6l-198.3,47.3c1.5,1,3.1,2.2,4.6,3.3l193.3-46.1c-0.1,2.5-0.6,4.5-0.9,7.2l-184.9,44
		c0.9,0.6,1.9,1.2,3,1.8l181.3-43.3c-0.6,2.7-1.2,6-1.9,8.7l-169.5,40.5c1.6,0.9,3.3,1.8,4.8,2.5l163.8-39.1
		c-0.7,2.1-1.5,4.8-2.2,7.5l-152.2,36.3c1.8,0.9,3.6,1.6,5.4,2.5l145.2-34.6c-0.9,2.7-1.8,5.4-3,7.6l-131.6,31.4
		c2.4,0.9,4.8,1.8,7.2,2.7l122.3-29.3c-1.5,2.8-3,5.7-4.6,8.7l-104.4,24.9c1.6,0.4,3.1,0.9,4.8,1.3l98-23.3
		c-1.6,3.6-3.7,6.6-5.7,9.6l-75.1,17.9c3,0.6,6,1.2,9,1.6l62.3-14.8c-0.7,1.5-1.6,2.2-2.5,3.3c-1.5,1.8-2.8,3.6-4.5,5.2l-36.3,8.7
		c4.9,0.4,9.9,0.7,14.8,0.9l16.4-3.9c-1.3,1.3-2.7,2.7-4,3.9c51.8-1,103.8-18.1,148-52C897.8,461.4,918.7,303.1,834.1,192.4z
		 M625.7,374.1c0.1,0.1,0.4,0.4,0.6,0.4l-1.2,0.3L625.7,374.1z M620.8,380.3l9.7-2.4c0.4,0.6,0.7,0.4,1,0.7c2.1,1.6,4,3.6,6,5.1
		l-24.5,5.8L620.8,380.3z M608.9,395.1l32.4-7.8c1.9,2.1,3.6,3.6,5.4,5.5L602,403.4L608.9,395.1z M599.4,406.7l49.1-11.6
		c1.8,2.1,3.6,4.2,5.4,6.3l-62.1,14.8L599.4,406.7z M587.5,421.5l69.1-16.6c1.5,2.1,2.7,3.7,4.2,6L580.6,430L587.5,421.5z
		 M576.3,435.4l86.9-20.8c1.2,1.6,2.4,3.9,3.4,5.4l-97.2,23.1L576.3,435.4z M566,447.8l102.3-24.5c1.2,2.2,2.5,5.1,3.7,7.3
		l-114.7,27.3L566,447.8z M554.8,461.2L673.1,433c1.2,2.8,2.1,5.1,3,7.5l-128.9,30.6L554.8,461.2z M542.8,475.9l134.4-32.1
		c0.7,2.4,1.5,4.6,2.1,6.4L536,484.4L542.8,475.9z M533.4,487.5l146.7-34.9c0.7,3,1.3,5.4,2.1,8.2l-157.1,37.5L533.4,487.5z
		 M521.3,502.3l161.3-38.5c0.4,2.4,0.9,4.8,1.2,6.6l-169.2,40.3L521.3,502.3z M510.3,516.3l174-41.5c0.3,2.4,0.4,4.3,0.6,6.7
		l-181.5,43.3L510.3,516.3z M491.5,539.5l8.5-10.8l185.2-44.2c0.1,3.1,0.1,5.5,0.3,8.7L491.5,539.5z"/>
	<path class="st6" d="M625.7,374.1l-0.6,0.7l1.2-0.3C626.2,374.6,625.9,374.3,625.7,374.1z"/>
	<g>
		<path class="st7" d="M534.5,637l76-18.2c5.7-3.3,11.4-6.4,16.6-10.9l-112.5,26.9C521.3,636.4,527.8,636.7,534.5,637z"/>
		<path class="st7" d="M626.8,598l-132.9,31.7c4.3,1.5,8.7,3,13.1,3.7l126.2-30.2c2.1-1.6,4-3.4,6-5.4
			C635.1,598.2,631,598.2,626.8,598z"/>
		<path class="st7" d="M643.2,594.1l-16.4,3.9c4.2,0.1,8.2,0.1,12.4,0C640.5,596.8,641.9,595.5,643.2,594.1z"/>
		<path class="st7" d="M444.3,597.1l-1.9,2.4c1.5,1.3,3,3,4.5,3.9l94.8-22.7c-3.6-1.3-7-2.8-10.5-4.3L444.3,597.1z"/>
		<path class="st7" d="M676.4,541.7l-145.2,34.6c3.4,1.5,7,3,10.5,4.3l131.6-31.4C674.6,547.2,675.5,544.4,676.4,541.7z"/>
		<path class="st7" d="M467.6,569l-8.7,10.2l52.9-12.5c-3.3-1.8-6.6-3.7-9.9-5.8L467.6,569z"/>
		<path class="st7" d="M683.1,517.7L501.8,561c3.3,1.9,6.6,3.9,9.9,5.8l169.5-40.5C681.9,523.5,682.5,520.2,683.1,517.7z"/>
		<path class="st7" d="M455.5,583.8l-6.9,8.5l77.2-18.4c-3.1-1.5-6.3-3-9.3-4.6L455.5,583.8z"/>
		<path class="st7" d="M680.2,530.2l-163.8,39.1c3.1,1.6,6.1,3.1,9.3,4.6l152.5-36.4C678.7,534.8,679.5,532.3,680.2,530.2z"/>
		<path class="st7" d="M451,606.8c2.5,1.9,5.2,3.7,7.9,5.7l103.3-24.6c-4.5-1.3-9-2.7-13.3-4.3L451,606.8z"/>
		<path class="st7" d="M671.3,554.3L549,583.5c4.5,1.6,8.8,3,13.3,4.3l104.4-24.9C668.3,559.9,669.8,557.1,671.3,554.3z"/>
		<path class="st7" d="M631.6,378.8c-0.3-0.3-0.6-0.3-1-0.7l-9.7,2.4l-7.8,9.4l24.5-5.8C635.7,382.4,633.6,380.4,631.6,378.8z"/>
		<path class="st7" d="M680.1,452.6l-146.7,34.9l-8.5,10.8L682,460.8C681.4,457.9,680.8,455.5,680.1,452.6z"/>
		<path class="st7" d="M476.7,622.7c3.3,1.6,6.7,3.4,10.2,4.5L612,597.3c-6.3-0.6-12.7-1.3-19-2.4L476.7,622.7z"/>
		<path class="st7" d="M652.8,583.2c0.9-1,1.8-1.9,2.5-3.3L593,594.7c6.3,1,12.5,1.8,19,2.4l36.3-8.7
			C649.8,587,651.3,585,652.8,583.2z"/>
		<path class="st7" d="M461.8,614.3c3.1,2.4,6.3,4.2,9.4,6l112.9-27c-5.7-1.2-11.5-2.5-17.2-4L461.8,614.3z"/>
		<path class="st7" d="M664.9,565.8l-98,23.3c5.7,1.5,11.4,2.8,17.2,4l75.1-17.9C661.3,572.3,663.2,569.3,664.9,565.8z"/>
		<path class="st7" d="M477,557.4l-6.9,8.5l28.7-6.9c-2.5-1.6-5.1-3.3-7.6-5.1L477,557.4z"/>
		<path class="st7" d="M684.4,507.8L491.2,554c2.5,1.8,5.1,3.4,7.6,5.1L683.5,515C683.8,512.4,684.3,510.3,684.4,507.8z"/>
		<path class="st7" d="M663.2,414.6l-86.9,20.8l-7,7.9l97.2-23.1C665.6,418.4,664.4,416.3,663.2,414.6z"/>
		<path class="st7" d="M648.6,394.9l-49.1,11.6l-7.8,9.4l62.1-14.8C652.2,399.1,650.4,397,648.6,394.9z"/>
		<path class="st7" d="M656.6,404.9l-69.1,16.6l-6.9,8.5l80.2-19.1C659.5,408.6,658.1,407,656.6,404.9z"/>
		<path class="st7" d="M668.3,423.4L566,447.9l-8.7,10.2L672,430.8C671,428.4,669.6,425.7,668.3,423.4z"/>
		<path class="st7" d="M641.3,387.3l-32.4,7.8l-6.9,8.5l44.7-10.6C644.8,390.9,643.2,389.4,641.3,387.3z"/>
		<path class="st7" d="M481.2,552l5.4-1.3c-0.9-0.6-1.8-1.3-2.7-1.9L481.2,552z"/>
		<path class="st7" d="M685.3,495.7l-196.4,46.9l-5.1,6.1c0.9,0.6,1.8,1.3,2.7,1.9l198.3-47.3C685,500.8,685.2,498.3,685.3,495.7z"
			/>
		<path class="st7" d="M591.7,627.7l-36.4,8.7C567.6,634.8,580,632.4,591.7,627.7z"/>
		<path class="st7" d="M684.4,474.7l-174,41.5l-6.9,8.5L685,481.4C684.7,479,684.7,477.2,684.4,474.7z"/>
		<path class="st7" d="M500,528.7l-8.5,10.8l193.8-46.3c0-3.1,0-5.7-0.3-8.7L500,528.7z"/>
		<path class="st7" d="M677.3,443.9L542.8,476l-6.9,8.5l143.4-34.2C678.7,448.5,678.1,446.1,677.3,443.9z"/>
		<path class="st7" d="M682.6,463.9l-161.3,38.5l-6.9,8.5l169.2-40.3C683.5,468.7,683.1,466.3,682.6,463.9z"/>
		<path class="st7" d="M673.1,433l-118.3,28.2l-7.6,10l128.7-30.8C675.2,438.1,674.3,435.8,673.1,433z"/>
	</g>
	<path class="st8" d="M757.8,271.7h4.5v10.5h-4.5V271.7z M757.8,361.3h4.5v11.9h-4.5V361.3z M750.3,247.8h6v11.9h-6V247.8z
		 M750.3,337.4h6v11.9h-6V337.4z M742.8,225.4h6v10.5h-6V225.4z M742.8,315h6v12h-6V315z M742.8,407.6h6v11.9h-6V407.6z
		 M732.4,201.5h6v11.9h-6V201.5z M732.4,294.1h6V306h-6V294.1z M732.4,383.7h6v11.9h-6V383.7z M724.9,271.7h4.5v10.5h-4.5V271.7z
		 M724.9,361.3h4.5v11.9h-4.5V361.3z M717.4,247.8h4.5v11.9h-4.5V247.8z M717.4,337.4h4.5v11.9h-4.5V337.4z M717.4,430h4.5v10.5
		h-4.5V430z M708.5,225.4h4.5v10.5h-4.5V225.4z M708.5,315h4.5v12h-4.5V315z M708.5,407.6h4.5v11.9h-4.5V407.6z M698,201.5h6v11.9
		h-6V201.5z M698,294.1h6V306h-6V294.1z M698,383.7h6v11.9h-6V383.7z M698,476.3h6v10.5h-6V476.3z M690.5,180.6h6v9h-6V180.6z
		 M690.5,271.7h6v10.5h-6V271.7z M690.5,361.3h6v11.9h-6V361.3z M690.5,453.9h6v10.5h-6V453.9z M683.1,156.7h4.5v10.5h-4.5V156.7z
		 M683.1,247.8h4.5v11.9h-4.5V247.8z M683.1,337.4h4.5v11.9h-4.5V337.4z M683.1,430h4.5v10.5h-4.5V430z M674.1,134.3h6v10.5h-6
		V134.3z M674.1,225.4h6v10.5h-6V225.4z M674.1,315h6v12h-6V315z M674.1,407.6h6v11.9h-6V407.6z M674.1,500.2h6v10.5h-6V500.2z
		 M665.2,201.5h6v11.9h-6V201.5z M665.2,294.1h6V306h-6V294.1z M665.2,383.7h6v11.9h-6V383.7z M665.2,476.3h6v10.5h-6V476.3z
		 M657.7,180.6h4.5v9h-4.5V180.6z M657.7,271.7h4.5v10.5h-4.5V271.7z M657.7,361.3h4.5v11.9h-4.5V361.3z M657.7,453.9h4.5v10.5h-4.5
		V453.9z M648.7,156.7h6v10.5h-6V156.7z M648.7,247.8h6v11.9h-6V247.8z M648.7,337.4h6v11.9h-6V337.4z M648.7,430h6v10.5h-6V430z
		 M641.3,134.3h6v10.5h-6V134.3z M641.3,225.4h6v10.5h-6V225.4z M641.3,315h6v12h-6V315z M641.3,407.6h6v11.9h-6V407.6z
		 M641.3,500.2h6v10.5h-6V500.2z M630.8,110.4h6v10.5h-6V110.4z M630.8,201.5h6v11.9h-6V201.5z M630.8,294.1h6V306h-6V294.1z
		 M630.8,383.7h6v11.9h-6V383.7z M630.8,476.3h6v10.5h-6V476.3z M623.3,180.6h4.5v9h-4.5V180.6z M623.3,271.7h4.5v10.5h-4.5V271.7z
		 M623.3,361.3h4.5v11.9h-4.5V361.3z M623.3,453.9h4.5v10.5h-4.5V453.9z M615.9,156.7h4.5v10.5h-4.5V156.7z M615.9,247.8h4.5v11.9
		h-4.5V247.8z M615.9,337.4h4.5v11.9h-4.5V337.4z M615.9,430h4.5v10.5h-4.5V430z M615.9,522.6h4.5V533h-4.5V522.6z M606.9,134.3h6
		v10.5h-6V134.3z M606.9,225.4h6v10.5h-6V225.4z M606.9,315h6v12h-6V315z M606.9,407.6h6v11.9h-6V407.6z M606.9,500.2h6v10.5h-6
		V500.2z M598,110.4h4.5v10.5H598V110.4z M598,201.5h4.5v11.9H598V201.5z M598,294.1h4.5V306H598V294.1z M598,383.7h4.5v11.9H598
		V383.7z M598,476.3h4.5v10.5H598V476.3z M589,88h6v10.5h-6V88z M589,180.6h6v9h-6V180.6z M589,271.7h6v10.5h-6V271.7z M589,361.3h6
		v11.9h-6V361.3z M589,453.9h6v10.5h-6V453.9z M589,546.5h6V557h-6V546.5z M581.5,156.7h6v10.5h-6V156.7z M581.5,247.8h6v11.9h-6
		V247.8z M581.5,337.4h6v11.9h-6V337.4z M581.5,430h6v10.5h-6V430z M581.5,522.6h6V533h-6V522.6z M574.1,134.3h4.5v10.5h-4.5V134.3z
		 M574.1,225.4h4.5v10.5h-4.5V225.4z M574.1,315h4.5v12h-4.5V315z M574.1,407.6h4.5v11.9h-4.5V407.6z M574.1,500.2h4.5v10.5h-4.5
		V500.2z M563.6,110.4h6v10.5h-6V110.4z M563.6,201.5h6v11.9h-6V201.5z M563.6,294.1h6V306h-6V294.1z M563.6,383.7h6v11.9h-6V383.7z
		 M563.6,476.3h6v10.5h-6V476.3z M554.6,88h7.5v10.5h-7.5V88z M554.6,180.6h7.5v9h-7.5V180.6z M554.6,271.7h7.5v10.5h-7.5V271.7z
		 M554.6,361.3h7.5v11.9h-7.5V361.3z M554.6,453.9h7.5v10.5h-7.5V453.9z M554.6,546.5h7.5V557h-7.5V546.5z M547.2,156.7h6v10.5h-6
		V156.7z M547.2,247.8h6v11.9h-6V247.8z M547.2,337.4h6v11.9h-6V337.4z M547.2,430h6v10.5h-6V430z M547.2,522.6h6V533h-6V522.6z
		 M539.7,134.3h6v10.5h-6V134.3z M539.7,225.4h6v10.5h-6V225.4z M539.7,315h6v12h-6V315z M539.7,407.6h6v11.9h-6V407.6z
		 M539.7,500.2h6v10.5h-6V500.2z M530.7,110.4h4.5v10.5h-4.5V110.4z M530.7,201.5h4.5v11.9h-4.5V201.5z M530.7,294.1h4.5V306h-4.5
		V294.1z M530.7,383.7h4.5v11.9h-4.5V383.7z M530.7,476.3h4.5v10.5h-4.5V476.3z M254.5,282.2H250v-10.5h4.5V282.2z M263.4,395.7
		h-4.5v-11.9h4.5V395.7z M263.4,306h-4.5v-11.9h4.5V306z M272.4,419.5h-4.5v-11.9h4.5V419.5z M272.4,327h-4.5v-12h4.5V327z
		 M272.4,235.9h-4.5v-10.5h4.5V235.9z M281.3,440.5h-4.5V430h4.5V440.5z M281.3,349.4h-4.5v-11.9h4.5V349.4z M281.3,259.8h-4.5
		v-11.9h4.5V259.8z M288.8,373.3h-6v-11.9h6V373.3z M288.8,282.2h-6v-10.5h6V282.2z M296.3,395.7h-4.5v-11.9h4.5V395.7z M296.3,306
		h-4.5v-11.9h4.5V306z M296.3,213.5h-4.5v-11.9h4.5V213.5z M306.7,419.5h-6v-11.9h6V419.5z M306.7,327h-6v-12h6V327z M306.7,235.9
		h-6v-10.5h6V235.9z M315.7,440.5h-6V430h6V440.5z M315.7,349.4h-6v-11.9h6V349.4z M315.7,259.8h-6v-11.9h6V259.8z M315.7,167.2h-6
		v-10.5h6V167.2z M323.2,464.4h-6v-10.5h6V464.4z M323.2,373.3h-6v-11.9h6V373.3z M323.2,282.2h-6v-10.5h6V282.2z M323.2,189.6h-6
		v-9h6V189.6z M330.6,486.8h-4.5v-10.5h4.5V486.8z M330.6,395.7h-4.5v-11.9h4.5V395.7z M330.6,306h-4.5v-11.9h4.5V306z M330.6,213.5
		h-4.5v-11.9h4.5V213.5z M341.1,510.6h-6v-10.5h6V510.6z M341.1,419.5h-6v-11.9h6V419.5z M341.1,327h-6v-12h6V327z M341.1,235.9h-6
		v-10.5h6V235.9z M341.1,144.8h-6v-10.5h6V144.8z M348.5,440.5h-6V430h6V440.5z M348.5,349.4h-6v-11.9h6V349.4z M348.5,259.8h-6
		v-11.9h6V259.8z M348.5,167.2h-6v-10.5h6V167.2z M356,464.4h-6v-10.5h6V464.4z M356,373.3h-6v-11.9h6V373.3z M356,282.2h-6v-10.5h6
		V282.2z M356,189.6h-6v-9h6V189.6z M365,486.8h-6v-10.5h6V486.8z M365,395.7h-6v-11.9h6V395.7z M365,306h-6v-11.9h6V306z
		 M365,213.5h-6v-11.9h6V213.5z M365,120.9h-6v-10.5h6V120.9z M373.9,510.6h-4.5v-10.5h4.5V510.6z M373.9,419.5h-4.5v-11.9h4.5
		V419.5z M373.9,327h-4.5v-12h4.5V327z M373.9,235.9h-4.5v-10.5h4.5V235.9z M373.9,144.8h-4.5v-10.5h4.5V144.8z M382.9,533h-6v-10.5
		h6V533z M382.9,440.5h-6V430h6V440.5z M382.9,349.4h-6v-11.9h6V349.4z M382.9,259.8h-6v-11.9h6V259.8z M382.9,167.2h-6v-10.5h6
		V167.2z M390.4,464.4h-4.5v-10.5h4.5V464.4z M390.4,373.3h-4.5v-11.9h4.5V373.3z M390.4,282.2h-4.5v-10.5h4.5V282.2z M390.4,189.6
		h-4.5v-9h4.5V189.6z M397.8,486.8h-4.5v-10.5h4.5V486.8z M397.8,395.7h-4.5v-11.9h4.5V395.7z M397.8,306h-4.5v-11.9h4.5V306z
		 M397.8,213.5h-4.5v-11.9h4.5V213.5z M397.8,120.9h-4.5v-10.5h4.5V120.9z M408.3,510.6h-6v-10.5h6V510.6z M408.3,419.5h-6v-11.9h6
		V419.5z M408.3,327h-6v-12h6V327z M408.3,235.9h-6v-10.5h6V235.9z M408.3,144.8h-6v-10.5h6V144.8z M415.8,533h-6v-10.5h6V533z
		 M415.8,440.5h-6V430h6V440.5z M415.8,349.4h-6v-11.9h6V349.4z M415.8,259.8h-6v-11.9h6V259.8z M415.8,167.2h-6v-10.5h6V167.2z
		 M423.2,556.9h-4.5v-10.5h4.5V556.9z M423.2,464.4h-4.5v-10.5h4.5V464.4z M423.2,373.3h-4.5v-11.9h4.5V373.3z M423.2,282.2h-4.5
		v-10.5h4.5V282.2z M423.2,189.6h-4.5v-9h4.5V189.6z M423.2,98.5h-4.5V88h4.5V98.5z M432.2,486.8h-6v-10.5h6V486.8z M432.2,395.7h-6
		v-11.9h6V395.7z M432.2,306h-6v-11.9h6V306z M432.2,213.5h-6v-11.9h6V213.5z M432.2,120.9h-6v-10.5h6V120.9z M442.6,510.6h-6v-10.5
		h6V510.6z M442.6,419.5h-6v-11.9h6V419.5z M442.6,327h-6v-12h6V327z M442.6,235.9h-6v-10.5h6V235.9z M442.6,144.8h-6v-10.5h6V144.8
		z M450.1,533h-6v-10.5h6V533z M450.1,440.5h-6V430h6V440.5z M450.1,349.4h-6v-11.9h6V349.4z M450.1,259.8h-6v-11.9h6V259.8z
		 M450.1,167.2h-6v-10.5h6V167.2z M457.6,556.9h-6v-10.5h6V556.9z M457.6,464.4h-6v-10.5h6V464.4z M457.6,373.3h-6v-11.9h6V373.3z
		 M457.6,282.2h-6v-10.5h6V282.2z M457.6,189.6h-6v-9h6V189.6z M457.6,98.5h-6V88h6V98.5z M466.5,486.8h-6v-10.5h6V486.8z
		 M466.5,395.7h-6v-11.9h6V395.7z M466.5,306h-6v-11.9h6V306z M466.5,213.5h-6v-11.9h6V213.5z M466.5,120.9h-6v-10.5h6V120.9z
		 M475.5,510.6H471v-10.5h4.5V510.6z M475.5,419.5H471v-11.9h4.5V419.5z M475.5,327H471v-12h4.5V327z M475.5,235.9H471v-10.5h4.5
		V235.9z M475.5,144.8H471v-10.5h4.5V144.8z M484.5,533h-6v-10.5h6V533z M484.5,440.5h-6V430h6V440.5z M484.5,349.4h-6v-11.9h6
		V349.4z M484.5,259.8h-6v-11.9h6V259.8z M484.5,167.2h-6v-10.5h6V167.2z M491.9,556.9h-6v-10.5h6V556.9z M491.9,464.4h-6v-10.5h6
		V464.4z M491.9,373.3h-6v-11.9h6V373.3z M491.9,282.2h-6v-10.5h6V282.2z M491.9,189.6h-6v-9h6V189.6z M491.9,98.5h-6V88h6V98.5z
		 M499.4,486.8h-6v-10.5h6V486.8z M499.4,395.7h-6v-11.9h6V395.7z M499.4,306h-6v-11.9h6V306z M499.4,213.5h-6v-11.9h6V213.5z
		 M499.4,120.9h-6v-10.5h6V120.9z M511.3,510.6h-6v-10.5h6V510.6z M511.3,419.5h-6v-11.9h6V419.5z M511.3,327h-6v-12h6V327z
		 M511.3,235.9h-6v-10.5h6V235.9z M511.3,144.8h-6v-10.5h6V144.8z M520.3,533h-6v-10.5h6V533z M520.3,440.5h-6V430h6V440.5z
		 M520.3,349.4h-6v-11.9h6V349.4z M520.3,259.8h-6v-11.9h6V259.8z M520.3,167.2h-6v-10.5h6V167.2z M520.3,74.6h-6V64.1h6V74.6z
		 M527.8,556.9h-6v-10.5h6V556.9z M527.8,464.4h-6v-10.5h6V464.4z M527.8,373.3h-6v-11.9h6V373.3z M527.8,282.2h-6v-10.5h6V282.2z
		 M527.8,189.6h-6v-9h6V189.6z M521.8,98.5V88h6v10.5H521.8z"/>
	<g>
		<polygon class="st9" points="277.9,153.8 257,153.8 257,248.7 277.9,269.6 		"/>
		<polygon class="st9" points="239,153.8 218.1,153.8 218.1,209.9 239,230.8 		"/>
		<polygon class="st9" points="200.2,153.8 180.8,153.8 180.8,171.1 200.2,192 		"/>
		<polygon class="st9" points="352.5,153.8 333.1,153.8 333.1,326.3 352.5,346.5 		"/>
		<polygon class="st9" points="370.5,364.2 388.4,382.1 388.4,153.8 370.5,153.8 		"/>
		<polygon class="st9" points="315.2,153.8 294.3,153.8 294.3,287.5 315.2,308.4 		"/>
	</g>
</g>
<rect x="306" class="st10" width="388" height="440"/>
<path class="st11" d="M368.3,268.2c-4.3-0.3-8-2-12.7-0.9s-11.7,1.3-16.5,1.7c-9.1,0.8-16.9-1.4-25.6-0.3
	c-14.4,1.8-5.6,13.9,4.2,14.8c7.7,0.7,21.8-2,27.3,5.4c-3.8,1.5-16.1,4.4-13.3,10.9c3.1,7.2,14-1.4,17.5-3.4
	c4.6-2.6,16.6-5.8,19-9.1C371,283.8,370.3,268.4,368.3,268.2z"/>
<path class="st2" d="M363.5,278.7c-0.4,4-1.1,7-0.8,12.3c13.2,7.9,29,10.7,43.8,13.7c16,3.2,33,4.1,49.2,0.7
	c8.6-1.8,15.9-7.6,17.7-16.8c1.8-9.2-0.2-20.3-10.5-23.5c-14.9-4.5-29,3.7-43.4,5.9c-8.6,1.3-15.8,0.3-24.4-0.5
	c-10.1-1-21.4-1.4-31.3-3.2C364,267.6,363.8,275.5,363.5,278.7z"/>
<path class="st8" d="M400.5,271.1c1.2,5.5,1.8,9.1,1.8,15c0,5-1.4,14.1-2,17.4c7.9,1.7,15.3,3.6,23.4,4c3.7,0.2,7.5,0.6,11.3,0.3
	c4-0.4,7.9-2.1,11.8-2.2c-1.6-1.7-0.4-6.6-0.2-9c0.2-3.4-0.4-6.7-1.3-9.9c-1.9-6.8-4.6-13.6-7.4-20.1c-11.6,4.7-9.4,3.1-24.4,4.2
	C413.5,271.2,400,270.8,400.5,271.1z"/>
<path class="st11" d="M629.4,153.5c4.9-6.2,14.7-18.9,17-17.7c4.3,3.7,39.8,36.7,47.5,43.9c-0.7,1.9-2.1,2.7-4,3.5
	c-4.9,2.1-11.9,1.2-16.4-0.6c-4.5-1.8-6.7-3.5-11.4-5.1c-5.3-1.8-9.6-1.3-14.1-4.3c-1.9-1.2-5.3-5.8-6.8-7.4
	C637.4,161.7,633.4,157.6,629.4,153.5z"/>
<path class="st7" d="M586.2,144c-2-7.6-6.4-23-4-24.2c5.6-1.3,53.3-10.1,63.7-11.9c1.1,1.7,0.9,3.3,0.4,5.3
	c-1.3,5.2-6.1,10.2-10.3,12.8c-4.1,2.6-6.8,3.3-10.8,6.1c-4.6,3.1-7.4,6.1-12.5,8c-2.1,0.8-7.2,1.6-9.4,1.9
	C597.5,142.5,591.8,143.2,586.2,144z"/>
<path class="st11" d="M415.5,388.4c-4.6,4.7-7.5,8-13.9,9.6c-4.5,1.1-14.9,2.3-13.3,6.1c3.4,6.3,13.4,1.9,18.2,0.2
	c4.4,7.1-3.5,17.9,2.4,25.9c4.6,6.2,18,12.9,25.2,8.3c7.7-4.9-3.5-15.4-3.7-22.5c-0.4-10,7.2-14.6,9.3-23.6
	C432.1,392.7,421.5,382.3,415.5,388.4z"/>
<path class="st3" d="M615.6,138.5c0.1,9.3,0.7,21.9,0.9,29.8c0.2,9.1-1.5,18.8-2.4,28c-0.8,8.5-4.7,22.9-6.8,31.3
	c-2.2,9,0.6,12.5-3.6,20.4c-11.3-2.4-28.3-6.9-40-8.3c-0.2-9.4,1.5-15,4-24.8c2.9-11.1,9.5-19.4,11.9-29.2c2-8,2.5-12.8,1.7-20.6
	c-1.2-10.5,1.9-14.6,4.2-24C586.2,141.6,606.9,138.1,615.6,138.5z"/>
<g>
	<path class="st2" d="M525.7,238.7l-1.4-3.7c10.9-4.2,23.2-20.9,25.5-31.6c3-13.8-2.2-27.7-13.3-35.4c-4.1-2.8-8.4-5.5-12.5-8
		c-7.3-4.5-14.8-9.1-21.5-14.9c-5.6-4.8-10.8-12.1-14.1-19.5c-2.8-6.3-5.5-15.5-2.6-24.3c7.2-21.7,25.2-32.8,42.6-43.4
		c3.2-1.9,6.5-4,9.6-6c17.6-11.3,22.8-27.9,16.1-50.7l3.8-1.1c7.2,24.3,1.3,42.9-17.7,55.1c-3.2,2.1-6.5,4.1-9.7,6
		c-17.6,10.8-34.2,20.9-40.9,41.3c-4.5,13.8,6.6,31.7,15.6,39.5c6.5,5.6,13.5,9.9,20.9,14.5c4.2,2.6,8.5,5.3,12.7,8.2
		c12.4,8.6,18.3,24.1,14.9,39.5C551.1,215.9,538.1,233.9,525.7,238.7z"/>
</g>
<path class="st2" d="M437,303.3c1.7,6.4,6.8,10.7,12.7,14.2c5,3,11.3,4.5,16.9,5.8c12.9,2.9,24.5,2.4,37.2,0.5
	c29.3-4.4,49.7-17.1,71.3-37.1c10.6-9.7,18.6-22.3,24.1-35.8c3-7.4,5.6-11.9,7.1-19.5c2-10.5,10.9-23.6,17.4-32.7
	c6.4-8.9,15.2-20.5,25.8-24.6c-3.8-5-8.4-9.4-12.4-14.1c-2.8-3.3-6.7-6.9-6.7-6.9s-5.5,1.7-9.6,3.2c-6.1,2.3-13.5,5.5-17.6,10.7
	c-4.2,5.3-5.5,11.9-10.7,16.7c-4.9,4.5-12.1,7.1-16.1,12.8c-3.6,5.2-8,13.6-11.4,19.2c-7,11.5-15.6,15.6-27.3,21.5
	c-20.6,10.3-40.4,16.9-62.7,20.5c-23.8,3.9-37.8,13.9-38,37.5C437.7,294.9,436.9,300,437,303.3z"/>
<path class="st8" d="M567.3,210.9c0,0,16.8,1.3,24.6,4.4c8.9,3.5,16.7,9.9,17.1,13.1c1,8.3,2.4,17.2-1.4,24.7
	c-4.1,8.2-11.3,13.5-18.9,18.3c2.9-16.9-18.7-43.4-36.7-42.1C559.7,222.5,567.3,210.9,567.3,210.9z"/>
<linearGradient id="SVGID_2_" gradientUnits="userSpaceOnUse" x1="-364.8243" y1="356.7249" x2="-325.8262" y2="413.7219" gradientTransform="matrix(0.4979 0 0 0.4972 669.9496 56.248)">
	<stop  offset="0" style="stop-color:#EEEEEE"/>
	<stop  offset="0.9516" style="stop-color:#D6D7D8"/>
</linearGradient>
<path class="st12" d="M539.7,247.8c-14.6,19-38.8,29.4-67.5,35.7l-8.8-15.3c-6.7-11.6-2.7-26.4,9-33.1l28.8-16.5
	c11.6-6.7,26.5-2.7,33.1,8.9l6,10.4C542.2,241.1,541.9,245,539.7,247.8z"/>
<ellipse class="st13" cx="442.1" cy="267.8" rx="37.2" ry="37.1"/>
<path class="st2" d="M485.1,281.5c-28,0-29.9,27.5-38.8,50.3c-3.8,9.9-8.2,17.5-14.2,26.4c-3.4,5.1-7.4,12.8-10.2,18.2
	c-1.4,2.6-8.8,15.2-9,15.4c4.3,3.7,10.1,7.6,14.6,10.5c2.5,1.6,5.2,2.7,5.2,2.7s4.4-4.6,8.4-8.5c10.1-10,20-19.9,29.8-30.4
	c8.4-9,16.5-19,21.5-30.3c4.3-9.6,11.2-21.1,9.6-32.3C501.2,298.4,497.4,281.5,485.1,281.5z"/>
<path class="st8" d="M446.2,330.4c12,0,32,6.6,40,16c-4.9,12.1-15.3,24.5-25.9,29.8c-5.3-6-18.9-17.6-26.9-20.2
	C437,352.1,444.4,335.7,446.2,330.4z"/>
<path class="st14" d="M449.3,281.7l-5.7-12.9c-2-4.6-7.4-6.6-11.9-4.6l-25.9,11.5c2.5,11.6,10.4,21.1,20.9,25.9l18-8
	C449.3,291.6,451.3,286.3,449.3,281.7z"/>
<linearGradient id="SVGID_3_" gradientUnits="userSpaceOnUse" x1="-472.6678" y1="472.4943" x2="-472.6678" y2="430.4901" gradientTransform="matrix(0.4979 0 0 0.4972 669.9496 56.248)">
	<stop  offset="0" style="stop-color:#FFBEB6"/>
	<stop  offset="1" style="stop-color:#F2A19C"/>
</linearGradient>
<path class="st15" d="M449.3,281.7l-5.7-12.9c-2-4.6-7.4-6.6-11.9-4.6l-12.5,5.5c1.5,8.9-0.4,15.3,0,16.2c0.5,1.3,2,1.1,3.1,1.1
	c1.5,0,2.2,0.2,3,1.6c1.5,2.6,2.9,4.6,5.3,6.3c1.6,1.1,4.3,1.7,6.2,2.1l7.9-3.5C449.3,291.6,451.3,286.3,449.3,281.7z"/>
<g>
	<path class="st16" d="M426.7,302.8c-0.5,0-0.9-0.3-1.1-0.7c-0.3-0.6,0-1.4,0.6-1.6l18-8c3.9-1.7,5.7-6.3,4-10.3l-5.7-12.9
		c-1.7-3.9-6.3-5.7-10.3-4l-25.9,11.5c-0.6,0.3-1.4,0-1.6-0.6c-0.3-0.6,0-1.4,0.6-1.6l25.9-11.5c5.2-2.3,11.3,0.1,13.6,5.2l5.7,12.9
		c1.1,2.5,1.2,5.3,0.2,7.9s-2.9,4.6-5.4,5.7l-18,8C427,302.8,426.9,302.8,426.7,302.8z"/>
</g>
<path id="texure_3_-i1" class="st9" d="M500.5,234.1c0.1,0,0.2-0.1,0.1-0.2c0-0.1-0.1-0.2-0.2-0.1c-0.1,0-0.2,0.1-0.1,0.2l0,0
	C500.3,234.1,500.4,234.1,500.5,234.1L500.5,234.1z M499.4,229.8c0.1,0,0.2-0.1,0.1-0.2c0-0.1-0.1-0.2-0.2-0.1
	c-0.1,0-0.2,0.1-0.1,0.2l0,0C499.2,229.8,499.3,229.9,499.4,229.8L499.4,229.8L499.4,229.8z M515.3,223c0.1,0.1,0.2,0,0.3-0.1l0,0
	c0.1-0.1,0-0.2,0-0.2l0,0c-0.1-0.1-0.2,0-0.2,0.1C515.1,222.9,515.2,223,515.3,223L515.3,223L515.3,223z M491.2,232.2
	c0.1,0,0.2-0.1,0.2-0.1c0-0.1-0.1-0.2-0.1-0.2c-0.1,0-0.2,0.1-0.2,0.1C491,232.1,491.1,232.2,491.2,232.2L491.2,232.2z M507.4,228.2
	c0.1,0.1,0.2,0.1,0.3,0s0.1-0.2,0-0.3c-0.1-0.1-0.2-0.1-0.3,0C507.4,228,507.4,228.1,507.4,228.2z M504.8,224.6
	c0.1,0.1,0.2,0.1,0.3,0l0,0c0.1-0.1,0.1-0.2,0.1-0.2l0,0c-0.1-0.1-0.2-0.1-0.3,0C504.8,224.4,504.7,224.5,504.8,224.6z M482,249.3
	c0.2,0,0.4-0.1,0.4-0.3l0,0c0-0.2-0.1-0.4-0.3-0.4l0,0c-0.2,0-0.4,0.1-0.4,0.3l0,0C481.7,249.1,481.8,249.3,482,249.3L482,249.3
	L482,249.3z M483.7,241.2c0.2,0,0.4-0.1,0.4-0.3c0-0.2-0.1-0.4-0.3-0.4l0,0c-0.2,0-0.4,0.1-0.4,0.3l0,0
	C483.4,241,483.5,241.1,483.7,241.2L483.7,241.2z M514.6,251.1c0.1,0.2,0.3,0.2,0.5,0.1s0.2-0.3,0.1-0.5l0,0
	c-0.1-0.2-0.3-0.2-0.5-0.1C514.5,250.7,514.5,250.9,514.6,251.1L514.6,251.1L514.6,251.1z M505.5,237c0.1,0.2,0.3,0.2,0.5,0.1l0,0
	c0.2-0.1,0.2-0.3,0.1-0.5l0,0c-0.1-0.2-0.3-0.2-0.5-0.1C505.5,236.7,505.4,236.9,505.5,237L505.5,237z M501,230
	c0.1,0.2,0.3,0.2,0.5,0.1s0.2-0.3,0.1-0.5c-0.1-0.2-0.3-0.2-0.5-0.1l0,0C500.9,229.6,500.9,229.9,501,230L501,230L501,230z M497,254
	c0.2,0,0.3-0.2,0.3-0.4c0-0.2-0.2-0.3-0.4-0.3s-0.3,0.2-0.3,0.4C496.6,254,496.8,254.1,497,254L497,254z M495.5,245.8
	c0.2,0,0.3-0.2,0.3-0.4c0-0.2-0.2-0.3-0.4-0.3s-0.3,0.2-0.3,0.4C495.1,245.7,495.3,245.9,495.5,245.8L495.5,245.8z M494,237.6
	c0.2,0,0.3-0.2,0.3-0.4c0-0.2-0.2-0.3-0.4-0.3s-0.3,0.2-0.3,0.4S493.8,237.7,494,237.6L494,237.6z M523.7,236.9
	c0.2,0.1,0.4,0.1,0.5-0.1s0.1-0.4-0.1-0.5l0,0c-0.1-0.1-0.4-0.1-0.5,0.1l0,0C523.5,236.6,523.6,236.8,523.7,236.9z M510,227.4
	c0.1,0.1,0.4,0.1,0.5-0.1l0,0c0.1-0.2,0.1-0.4-0.1-0.5l0,0c-0.2-0.1-0.4-0.1-0.5,0.1C509.8,227.1,509.8,227.3,510,227.4L510,227.4z
	 M488.9,255.3c0.2,0,0.3-0.2,0.3-0.3c0-0.2-0.2-0.3-0.3-0.3c-0.2,0-0.3,0.2-0.3,0.3l0,0C488.6,255.2,488.7,255.3,488.9,255.3
	L488.9,255.3z M488.3,247.9c0.2,0,0.3-0.2,0.3-0.3c0-0.2-0.2-0.3-0.3-0.3c-0.2,0-0.3,0.2-0.3,0.3l0,0
	C487.9,247.7,488.1,247.9,488.3,247.9C488.2,247.9,488.3,247.9,488.3,247.9L488.3,247.9z M487.4,240.4c0.1,0.1,0.1,0.1,0.2,0.1
	c0.2,0,0.3-0.2,0.3-0.3c0-0.2-0.2-0.3-0.3-0.3l0,0c-0.1,0-0.2,0.1-0.2,0.2l0,0C487.4,240.1,487.4,240.2,487.4,240.4
	C487.3,240.2,487.3,240.3,487.4,240.4L487.4,240.4z M516.5,240.8c0.1,0.1,0.3,0.1,0.4,0c0.1-0.1,0.1-0.3,0-0.4l0,0
	c-0.1-0.1-0.3-0.1-0.4,0l0,0C516.4,240.5,516.4,240.7,516.5,240.8z M505.1,231.2c0.1,0.1,0.3,0.1,0.4,0l0,0c0.1-0.1,0.1-0.3,0-0.4
	l0,0c-0.1-0.1-0.3-0.1-0.4,0l0,0C505,230.9,505,231.1,505.1,231.2L505.1,231.2z M499.4,226.4c0.1,0.1,0.3,0.1,0.4,0
	c0.1-0.1,0.1-0.3,0-0.4s-0.3-0.1-0.4,0S499.3,226.3,499.4,226.4L499.4,226.4z M501.7,247.7c0.1,0.1,0.3,0.2,0.4,0.1
	c0.1-0.1,0.2-0.3,0.1-0.4c-0.1-0.1-0.3-0.2-0.4-0.1C501.7,247.3,501.6,247.5,501.7,247.7z M498.3,241.1c0.1,0.1,0.2,0.2,0.4,0.1l0,0
	c0.1-0.1,0.2-0.3,0.1-0.4c-0.1-0.1-0.3-0.2-0.4-0.1C498.2,240.7,498.2,240.9,498.3,241.1z M494.8,234.4c0.1,0.1,0.3,0.2,0.4,0.1
	c0.1-0.1,0.2-0.3,0.1-0.4c-0.1-0.1-0.3-0.2-0.4-0.1C494.8,234.1,494.8,234.3,494.8,234.4L494.8,234.4z M513.3,223.9
	c0.2,0.1,0.3,0,0.4-0.2c0-0.2,0-0.3-0.2-0.4c-0.2,0-0.3,0-0.4,0.2C513.1,223.7,513.2,223.9,513.3,223.9L513.3,223.9z M495.8,235
	c0.1,0.1,0.2,0.1,0.3,0s0.1-0.2,0-0.3c-0.1-0.1-0.2-0.1-0.3,0l0,0C495.8,234.8,495.8,234.9,495.8,235L495.8,235L495.8,235z
	 M493.1,231.5c0.1,0.1,0.2,0.1,0.3,0s0.1-0.2,0-0.3l0,0c-0.1-0.1-0.2-0.1-0.2,0l0,0C493,231.3,493,231.5,493.1,231.5L493.1,231.5z
	 M486.8,237.2c0.1,0,0.1-0.1,0.1-0.2s-0.1-0.2-0.2-0.1l0,0c-0.1,0-0.2,0.1-0.1,0.2l0,0C486.6,237.1,486.7,237.2,486.8,237.2
	L486.8,237.2z M499.9,226.7c0.1,0,0.2,0,0.2-0.1s0-0.2-0.1-0.2c-0.1-0.1-0.2,0-0.2,0l0,0C499.8,226.5,499.8,226.7,499.9,226.7
	L499.9,226.7L499.9,226.7z M478.3,245.6c0.1,0,0.2-0.1,0.2-0.2l0,0c0-0.1-0.1-0.2-0.2-0.2l0,0c-0.1,0-0.2,0.1-0.2,0.2l0,0
	C478.1,245.5,478.2,245.6,478.3,245.6L478.3,245.6z M497,236.1c0.1,0.1,0.2,0.1,0.3,0l0,0c0.1-0.1,0.1-0.2,0-0.3
	c-0.1-0.1-0.2-0.1-0.3,0C496.9,235.8,496.9,236,497,236.1L497,236.1L497,236.1z M493.2,232.8c0.1,0.1,0.2,0.1,0.3,0l0,0
	c0.1-0.1,0.1-0.2,0-0.3c-0.1-0.1-0.2-0.1-0.3,0C493.1,232.6,493.1,232.7,493.2,232.8L493.2,232.8z M487.4,240.4
	C487.4,240.4,487.5,240.4,487.4,240.4c0.2-0.1,0.2-0.2,0.2-0.3l0,0c-0.1-0.1-0.2-0.1-0.3-0.1l0,0c-0.1,0-0.1,0.2-0.1,0.3l0,0
	C487.3,240.3,487.3,240.4,487.4,240.4L487.4,240.4z M500,225.9c0.1,0,0.2,0,0.3-0.1l0,0c0-0.1,0-0.2-0.1-0.3c-0.1,0-0.2,0-0.3,0.1
	l0,0C499.8,225.8,499.9,225.9,500,225.9L500,225.9z M493.5,261.7c0.1,0.2,0.3,0.2,0.5,0.1s0.2-0.3,0.2-0.5c-0.1-0.2-0.3-0.2-0.5-0.1
	C493.5,261.3,493.4,261.5,493.5,261.7L493.5,261.7z M489.5,254.1c0.1,0.2,0.3,0.2,0.5,0.2c0.2-0.1,0.2-0.3,0.2-0.5
	c-0.1-0.2-0.3-0.2-0.5-0.2C489.5,253.7,489.4,253.9,489.5,254.1L489.5,254.1z M485.4,246.5c0.1,0.2,0.3,0.2,0.5,0.1s0.2-0.3,0.1-0.5
	c-0.1-0.2-0.3-0.2-0.5-0.1C485.4,246.1,485.4,246.3,485.4,246.5z M508.6,231.5c0.2,0.1,0.4,0,0.4-0.2c0.1-0.2,0-0.4-0.2-0.4
	c-0.2-0.1-0.4,0-0.4,0.2l0,0C508.3,231.2,508.4,231.4,508.6,231.5L508.6,231.5z M500.4,228.9c0.2,0.1,0.4,0,0.4-0.2
	c0.1-0.2-0.1-0.4-0.2-0.5c-0.2-0.1-0.4,0.1-0.4,0.3C500.1,228.7,500.2,228.9,500.4,228.9z M497.8,242.6c0.2,0.1,0.4,0.1,0.5,0l0,0
	c0.1-0.1,0.1-0.4,0-0.5l0,0c-0.1-0.1-0.4-0.1-0.5,0C497.6,242.2,497.6,242.4,497.8,242.6L497.8,242.6L497.8,242.6z M491.1,237.1
	c0.1,0.1,0.4,0.1,0.5,0l0,0c0.1-0.1,0.1-0.4,0-0.5s-0.4-0.1-0.5,0S491,236.9,491.1,237.1L491.1,237.1z M495.5,247.7
	c0.1,0.1,0.4,0.1,0.5,0s0.1-0.4,0-0.5c-0.2-0.1-0.4-0.1-0.5,0C495.4,247.3,495.4,247.5,495.5,247.7L495.5,247.7z M489.1,241.9
	c0.1,0.1,0.4,0.1,0.5,0s0.1-0.4,0-0.5s-0.4-0.1-0.5,0l0,0C489,241.6,489,241.8,489.1,241.9L489.1,241.9z M481.1,252.5
	c0.1,0.2,0.3,0.2,0.5,0.2l0,0c0.2-0.1,0.3-0.3,0.2-0.5s-0.3-0.3-0.5-0.2C481.1,252.1,481,252.3,481.1,252.5L481.1,252.5z
	 M477.4,244.8c0.1,0.2,0.3,0.3,0.5,0.2c0.2-0.1,0.3-0.3,0.2-0.5l0,0c-0.1-0.2-0.3-0.2-0.5-0.2C477.4,244.4,477.3,244.6,477.4,244.8
	L477.4,244.8L477.4,244.8z M507.1,236.3c0.2,0.1,0.4,0,0.5-0.2s0-0.4-0.2-0.4c-0.2-0.1-0.4,0-0.4,0.2l0,0
	C506.8,236,506.9,236.2,507.1,236.3L507.1,236.3z M499,233.4c0.2,0.1,0.4,0,0.5-0.2s0-0.4-0.2-0.4c-0.2-0.1-0.4,0-0.4,0.2l0,0
	C498.7,233.1,498.8,233.3,499,233.4L499,233.4z M493.2,241.4c0.1,0.1,0.3,0,0.4-0.1c0.1-0.1,0-0.3-0.1-0.4s-0.3,0-0.4,0.1l0,0
	C493,241.2,493,241.4,493.2,241.4z M487.6,238.2c0.1,0.1,0.3,0,0.4-0.1c0.1-0.1,0-0.3-0.1-0.4s-0.3,0-0.4,0.1l0,0
	C487.4,238,487.4,238.1,487.6,238.2L487.6,238.2z M481.8,249.1c0.1,0.1,0.3,0.1,0.4,0c0.1-0.1,0.1-0.3,0-0.4s-0.3-0.1-0.4,0l0,0
	C481.7,248.8,481.7,249,481.8,249.1L481.8,249.1z M477.9,244c0.1,0.1,0.3,0.1,0.4,0.1c0.1-0.1,0.1-0.3,0-0.4l0,0
	c-0.1-0.1-0.2-0.1-0.4-0.1l0,0C477.8,243.7,477.8,243.9,477.9,244L477.9,244L477.9,244z"/>
</svg>
