<?xml version="1.0" encoding="utf-8"?>
<!-- Generator: Adobe Illustrator 24.2.0, SVG Export Plug-In . SVG Version: 6.00 Build 0)  -->
<svg version="1.1" id="Layer_1" xmlns="http://www.w3.org/2000/svg" xmlns:xlink="http://www.w3.org/1999/xlink" x="0px" y="0px"
	 viewBox="0 0 1640 466" style="enable-background:new 0 0 1640 466;" xml:space="preserve">
<style type="text/css">
	.st0{filter:url(#e);}
	.st1{fill-rule:evenodd;clip-rule:evenodd;}
	.st2{fill-rule:evenodd;clip-rule:evenodd;fill:#FFFFFF;}
	.st3{fill-rule:evenodd;clip-rule:evenodd;fill:url(#SVGID_1_);}
	.st4{fill-rule:evenodd;clip-rule:evenodd;fill:url(#b_1_);}
	.st5{fill-rule:evenodd;clip-rule:evenodd;fill:url(#SVGID_2_);}
	.st6{fill-rule:evenodd;clip-rule:evenodd;fill:#3fc9d9;}
</style>
<filter  filterUnits="objectBoundingBox" height="243.3%" id="e" width="212.1%" x="-56%" y="-55.7%">
	<feOffset  dy="24" in="SourceAlpha" result="shadowOffsetOuter1"></feOffset>
	<feGaussianBlur  in="shadowOffsetOuter1" result="shadowBlurOuter1" stdDeviation="32"></feGaussianBlur>
	<feColorMatrix  in="shadowBlurOuter1" values="0 0 0 0 0.180392157 0 0 0 0 0.180392157 0 0 0 0 0.239215686 0 0 0 0.16 0">
		</feColorMatrix>
</filter>
<g class="st0">
	<path id="f_2_" class="st1" d="M1137.9,108.2l92.5-59.1l100.2,100.2l-134.5,50.5L1137.9,108.2z"/>
</g>
<g>
	<path id="f_1_" class="st2" d="M1137.9,108.2l92.5-59.1l100.2,100.2l-134.5,50.5L1137.9,108.2z"/>
</g>
<g>
	
		<linearGradient id="SVGID_1_" gradientUnits="userSpaceOnUse" x1="2052.2361" y1="2.936" x2="2052.7361" y2="1.936" gradientTransform="matrix(510.33 0 0 315.544 -1046086.0625 -562.4584)">
		<stop  offset="0" style="stop-color:#4bc5db"/>
		<stop  offset="1" style="stop-color:#1CADC8"/>
	</linearGradient>
	<path class="st3" d="M1096.4,345.6l510.3-260l-304.1,315.5L1096.4,345.6z"/>
	<g>
		
			<linearGradient id="b_1_" gradientUnits="userSpaceOnUse" x1="2049.0256" y1="5.0048" x2="2048.5342" y2="4.8217" gradientTransform="matrix(267.4761 0 0 150.071 -546536.625 -632.5264)">
			<stop  offset="0" style="stop-color:#76bbcc"/>
			<stop  offset="1" style="stop-color:#00a1ba"/>
		</linearGradient>
		<path id="b" class="st4" d="M1451,165.5l-112.8-150l267.5,69.9L1451,165.5z"/>
	</g>
	
		<linearGradient id="SVGID_2_" gradientUnits="userSpaceOnUse" x1="2031.4489" y1="5.7942" x2="2031.0045" y2="5.1582" gradientTransform="matrix(81.266 0 0 129.424 -163688.9844 -741.0081)">
		<stop  offset="0" style="stop-color:#01ACC0"/>
		<stop  offset="1" style="stop-color:#89cacf"/>
	</linearGradient>
	<path class="st5" d="M1419.2,36.4l-81.3-21.7L1417.4-93L1419.2,36.4z"/>
	<path class="st6" d="M1485.6,444.7l-87.5,21.5l-27.2-82.7L1485.6,444.7z"/>
</g>
</svg>
