<?xml version="1.0" encoding="utf-8"?>
<!-- Generator: Adobe Illustrator 24.2.0, SVG Export Plug-In . SVG Version: 6.00 Build 0)  -->
<svg version="1.1" id="Layer_1" xmlns="http://www.w3.org/2000/svg" xmlns:xlink="http://www.w3.org/1999/xlink" x="0px" y="0px"
	 viewBox="0 0 420 385.2" style="enable-background:new 0 0 420 385.2;" xml:space="preserve">
<style type="text/css">
	.st0{fill:#7cd3de;}
	.st1{fill:#71d7e3;}
	.st2{fill:#ffffff;}
	.st3{fill:#88ddeb;}
	.st4{fill:#a2e3eb;}
	.st5{fill:#ffffff;}
</style>
<path class="st0" d="M211.6,372.8L211.6,372.8L211.6,372.8c115.6-47.6,170.8-179.6,123.6-295.2l0,0l0,0
	C219.6,125.2,164.4,257.2,211.6,372.8z"/>
<path class="st1" d="M295.6,312.8c40-45.6,60.4-106,55.6-167.2c-6.4,1.6-12.8,3.6-18.8,5.6c-6.8,2.4-14.4-2-15.6-9.2
	c-2.8-16.4-7.2-32.8-12.8-48.8C238.4,132.8,198.8,202,195.2,276l0,0l0,0c0,4-0.4,7.6-0.4,11.6c0,0.4,0,0.4,0,0.8
	c0,3.6,0,7.6,0.4,11.2v0.4c0.4,8,1.2,16,2.8,24c0,0.4,0,0.4,0,0.8c0.4,3.6,1.2,6.8,2,10.4c0.4,1.2,0.4,2,0.8,3.2
	c0.8,2.8,1.2,5.6,2,8.4c0.4,1.2,0.8,2.4,1.2,3.6c0.8,2.8,1.6,5.2,2.4,8c0.4,1.2,0.8,2.4,1.2,3.2c1.2,3.6,2.8,7.2,4,11.2l0,0l0,0
	c3.6-1.6,7.2-3.2,10.8-4.8c0.8-0.4,2-0.8,2.8-1.2c3.2-1.6,6.4-3.2,9.2-4.8c0.4-0.4,0.8-0.4,1.2-0.8c3.6-2,6.8-4,10.4-6
	c0.8-0.4,1.6-0.8,2.4-1.6c2.8-2,5.6-4,8.8-6c0.4,0,0.4-0.4,0.8-0.4c6.8-4.8,13.2-10,19.2-15.6l0.4-0.4
	C284.4,325.2,290,319.2,295.6,312.8C295.6,313.2,295.6,313.2,295.6,312.8C295.6,313.2,295.6,313.2,295.6,312.8z"/>
<path class="st2" d="M211.6,384.8c-4.8,0-9.2-2.8-11.2-7.6c-50-121.6,8.4-261.2,130-310.8c6-2.4,13.2,0.4,15.6,6.4
	c24,58.8,24,123.6-0.4,182.4s-70.4,104.4-129.2,128.4C214.8,384.4,213.2,384.8,211.6,384.8z M328.4,93.6
	c-98,46.8-145.2,160.4-110,263.2c47.6-22.8,84.4-61.6,105.2-110.4S345.6,143.6,328.4,93.6z"/>
<path class="st1" d="M212.8,372.8L212.8,372.8L212.8,372.8C97.2,325.2,42,193.2,89.6,77.6l0,0l0,0
	C205.2,125.2,260.4,257.2,212.8,372.8z"/>
<path class="st1" d="M118.8,92c-25.6,69.6-23.6,146.8,5.6,215.2c22.8,28,52.8,50.8,88.8,65.6l0,0l0,0
	C256.4,267.2,214,148.4,118.8,92z"/>
<path class="st2" d="M211.2,384.8c-1.6,0-3.2-0.4-4.4-0.8c-6-2.4-9.2-9.6-6.4-15.6c21.6-52.8,21.6-111.2-0.4-164
	c-20.4-48.8-57.6-88-105.2-110.4c-5.2,14.8-18.2,63.5-19.8,79.1c-0.8,6.4-6.8,11.2-13.2,10.4s-11.2-6.8-10.4-13.2
	c2.4-21.6,17.4-76.7,25.8-97.1c1.2-2.8,3.6-5.2,6.4-6.4c2.8-1.2,6.4-1.2,9.2,0c58.8,24,104.8,70,129.2,128.4
	c24.4,58.8,24.8,123.6,0.4,182.4C220.4,382,216,384.8,211.2,384.8z"/>
<path class="st3" d="M210,372.8L210,372.8L210,372.8c109.2,0,198-88.8,198-198l0,0l0,0c-27.2,0-53.2,5.6-77.2,15.6
	c-19.2,8-36.8,31.2-52.4,44.8C236.4,271.6,210,313.2,210,372.8z"/>
<path class="st0" d="M321.6,194.8c-66,32-111.6,100-111.6,178l0,0l0,0c19.2,0,37.6-2.8,55.2-8C302.4,314.4,321.2,254.8,321.6,194.8z
	"/>
<path class="st3" d="M210,372.8L210,372.8L210,372.8c-109.2,0-198-88.8-198-198l0,0l0,0C121.2,174.8,210,263.6,210,372.8z"/>
<path class="st4" d="M210,372.8L210,372.8L210,372.8c-99.6-99.6-99.6-260.4,0-360l0,0l0,0C309.6,112.4,309.6,273.2,210,372.8z"/>
<path class="st5" d="M408,162.8c-28.4,0-56,5.6-81.6,16.4c-6,2.4-8.8,9.6-6.4,15.6s9.6,8.8,15.6,6.4c19.2-8,39.2-12.8,60-14.4
	c-5.6,87.2-72,158-156.8,171.2c38-47.6,58.4-106.4,57.6-168C296,119.6,268,53.6,218.4,3.6c-4.8-4.8-12.4-4.8-16.8,0
	c-84.8,85.6-102.4,217.2-43.2,321.2c3.2,5.6,10.8,7.6,16.4,4.4s7.6-10.8,4.4-16.4c-52-91.2-38.8-205.6,30.8-282.8
	c40,44,62,100.8,62.4,160.8c0.4,63.6-23.6,124-67.6,170c-96-2.4-174.4-78.4-180.8-173.6c20,1.2,39.6,6,58.4,13.6
	c6,2.4,13.2-0.4,15.6-6.4s-0.4-13.2-6.4-15.6c-25.2-10.4-52-15.6-79.6-15.6c-6.8,0-12,5.2-12,12c0,115.6,94.4,210,210,210
	s210-94.4,210-210C420,168,414.8,162.8,408,162.8z"/>
<path class="st0" d="M233.2,313.6c-2,0-4-0.4-5.6-1.6c-6-3.2-8-10.4-4.8-16.4c24.4-45.6,31.6-98.4,20.8-149.2
	c-1.2-6.4,2.8-12.8,9.2-14.4c6.4-1.2,12.8,2.8,14.4,9.2c12,56.4,3.6,114.8-23.2,165.2C241.6,311.6,237.6,313.6,233.2,313.6z"/>
</svg>
