<?xml version="1.0" encoding="utf-8"?>
<!-- Generator: Adobe Illustrator 24.2.0, SVG Export Plug-In . SVG Version: 6.00 Build 0)  -->
<svg version="1.1" id="illustration" xmlns="http://www.w3.org/2000/svg" xmlns:xlink="http://www.w3.org/1999/xlink" x="0px"
	 y="0px" viewBox="0 0 1080 720" style="enable-background:new 0 0 1080 720;" xml:space="preserve">
<style type="text/css">
	.st0{fill:url(#bottom_1_);}
	.st1{fill:#EEEEEE;}
	.st2{fill:#A0D3D9;}
	.st3{fill:#01ACC0;}
	.st4{fill:#015660;}
	.st5{fill:#61B6C0;}
	.st6{fill:url(#finger_1_);}
	.st7{fill:#002B30;}
	.st8{fill:#DFF0F2;}
	.st9{fill:#67CDD9;}
	.st10{opacity:0.86;fill:#FFFFFF;enable-background:new    ;}
	.st11{fill:url(#sweater_1_);}
	.st12{fill:url(#R_hand_1_);}
	.st13{fill:url(#neck_1_);}
	.st14{fill:#FFBEB6;}
	.st15{fill:#733E23;}
	.st16{fill:#1C2868;}
	.st17{fill:url(#cap_top_1_);}
</style>
<g id="message">
	
		<linearGradient id="bottom_1_" gradientUnits="userSpaceOnUse" x1="382.3044" y1="475.5835" x2="377.9178" y2="354.9524" gradientTransform="matrix(1 0 0 1 0 -70)">
		<stop  offset="8.979999e-02" style="stop-color:#EEEEEE"/>
		<stop  offset="0.8178" style="stop-color:#D6D7D8"/>
	</linearGradient>
	<rect id="bottom" x="319.1" y="297.1" class="st0" width="122" height="95.2"/>
	<polygon id="top" class="st1" points="319.1,297.1 380.1,344.7 441.1,297.1 	"/>
</g>
<g id="bike">
	<path id="L_shoe" class="st2" d="M469.3,541.5l-18.4,51.2l129.6,0c0,0-6.6-12.8-28.8-22.3S509,541.5,509,541.5L469.3,541.5"/>
	<path id="L_trousers" class="st3" d="M464.4,280.1c0,0-2,34.3,31.6,84.4s3.3,73.8-4.6,89s-6.7,8.8-13.3,19.4s-26,28.2-16.6,57.5
		l78.1,2.3c0,0,33.6-118,31.6-143.1s-32.3-83.7-32.3-83.7L464.4,280.1"/>
	<path id="back_wheel" class="st4" d="M384,636.5c-63.3,0-114.6-51.3-114.6-114.6S320.7,407.3,384,407.3s114.6,51.3,114.6,114.6
		C498.5,585.1,447.3,636.4,384,636.5z M384,414.3c-59.4,0-107.6,48.2-107.6,107.6S324.6,629.5,384,629.5s107.6-48.2,107.6-107.6
		C491.5,462.5,443.4,414.4,384,414.3z"/>
	<path id="back" class="st5" d="M384,392.6c-51.8,0.1-98.5,31-118.9,78.6h8.6c28-60.9,100.1-87.6,161-59.6
		c43.1,19.8,70.7,62.9,70.7,110.3h7.9C513.2,450.5,455.4,392.7,384,392.6z"/>
	<path id="front" class="st5" d="M723.9,400.5c47.5,0,90.7,27.8,110.4,71h8.6c-27-63.8-99.5-95-164.4-70.7c0.9,2.5,1.9,4.9,2.8,7.4
		C695,403.1,709.4,400.5,723.9,400.5z"/>
	<path id="front_wheel" class="st4" d="M723.9,636.5c-63.3,0-114.6-51.3-114.6-114.6s51.3-114.6,114.6-114.6s114.6,51.3,114.6,114.6
		C838.5,585.1,787.2,636.4,723.9,636.5z M723.9,414.3c-59.4,0-107.6,48.2-107.6,107.6s48.2,107.6,107.6,107.6
		s107.6-48.2,107.6-107.6C831.5,462.5,783.3,414.4,723.9,414.3z"/>
	<path id="gearbox" class="st4" d="M528.8,502.2L528.8,502.2l-138.8,0c-11.7,0-21.3,9.5-21.3,21.2c0,10.9,8.3,20.1,19.2,21.2
		l135.4,18c0.4,0.1,0.9,0.1,1.3,0.2l0.1,0v0c1.1,0.1,2.2,0.2,3.3,0.2c16.8,0,30.4-13.6,30.4-30.4C558.5,516,545.3,502.5,528.8,502.2
		z"/>
	<polygon id="_2" class="st5" points="721.4,522.1 648,329.4 654.3,329.4 727,519.9 	"/>
	<polygon id="_1" class="st5" points="462.3,342 467.9,339.9 536.2,517.4 530.6,519.6 	"/>
	
		<linearGradient id="finger_1_" gradientUnits="userSpaceOnUse" x1="692.8212" y1="408.734" x2="694.8001" y2="421.8166" gradientTransform="matrix(1 0 0 1 0 -70)">
		<stop  offset="0" style="stop-color:#FFBEB6"/>
		<stop  offset="0.2982" style="stop-color:#FBB5AE"/>
		<stop  offset="1" style="stop-color:#F2A19C"/>
	</linearGradient>
	<path id="finger" class="st6" d="M687.1,347.4c0,0,7.2-6.3,10.1-6.8s3.1-1,3.1,1s-1.9,1.5-0.8,3.5S687.1,347.4,687.1,347.4z"/>
	<path id="handle" class="st5" d="M684.5,381.9l-1.6-5.8c3.8-1.2,7.4-3,10.7-5.3c6.4-4.6,9.2-10.3,8.3-16.8
		c-0.7-5.6-4.8-18.6-27.3-18.6h-24.3l-2.3-6h26.6c4,0,11.6,0.5,18.7,3.9c8.1,3.6,13.6,11.2,14.5,20
		C710,370.1,693.5,379.4,684.5,381.9z"/>
	<polygon id="frame" class="st5" points="672.7,394.4 536.7,538.6 532.3,534.5 666.4,392.4 488,392.2 485.7,386.2 669.7,386.4 	"/>
	<path id="seat" class="st7" d="M490.2,347.8h-48c0,0-2.2-17.1,16.7-17.1s28.4-1.1,28.4-1.1L490.2,347.8"/>
	<circle id="small_detail" class="st4" cx="723.2" cy="518.2" r="10.8"/>
	<path id="detail" class="st4" d="M723.2,541.4c-12.8,0-23.2-10.4-23.2-23.2s10.4-23.2,23.2-23.2s23.2,10.4,23.2,23.2
		C746.4,531,736,541.4,723.2,541.4z M723.2,499.9c-10.1,0-18.2,8.2-18.2,18.2c0,10.1,8.2,18.2,18.2,18.2c10.1,0,18.2-8.2,18.2-18.2
		C741.4,508.1,733.2,500,723.2,499.9L723.2,499.9z"/>
</g>
<g id="man">
	<path id="L_shoe-2" class="st8" d="M518,525.3l-18.4,51.2l129.6,0c0,0-6.6-12.8-28.8-22.3s-42.6-28.9-42.6-28.9L518,525.3"/>
	<path id="R_trousers" class="st9" d="M471.4,275.5c0,0-25.1,48.1,16.5,75.8s85.1,44.2,60.7,62s-33.6,33-33.6,51.4
		s-10.7,15.9-21.3,25.1s-14.9,24.1-11,35.9l75.1-0.4c0,0,75.2-102.9,78.5-118s12.5-21.8-28.4-52.7s-79.1-65.9-79.1-65.9L471.4,275.5
		z"/>
	<path id="texture" class="st10" d="M482.7,315.4c0,0.1,0.1,0.1,0.2,0.1l0,0c0.1,0,0.1-0.1,0.1-0.2c0,0,0,0,0,0
		c0-0.1-0.1-0.1-0.2-0.1l0,0C482.7,315.2,482.7,315.3,482.7,315.4z M486.7,313.8c0,0.1,0.1,0.1,0.2,0.1s0.1-0.1,0.1-0.2
		c0-0.1-0.1-0.1-0.2-0.1l0,0C486.7,313.6,486.6,313.7,486.7,313.8z M490.6,312.2c0,0.1,0.1,0.1,0.2,0.1c0,0,0,0,0,0
		c0.1,0,0.1-0.1,0.1-0.2c0-0.1-0.1-0.1-0.2-0.1c0,0,0,0,0,0C490.6,312,490.6,312.1,490.6,312.2C490.6,312.2,490.6,312.2,490.6,312.2
		L490.6,312.2z M494.5,310.6c0,0.1,0.1,0.1,0.2,0.1l0,0c0.1,0,0.1-0.1,0.1-0.2c0-0.1-0.1-0.1-0.2-0.1
		C494.5,310.4,494.5,310.5,494.5,310.6L494.5,310.6L494.5,310.6z M495.4,328.2c0.1,0,0.2,0,0.2-0.1c0-0.1,0-0.2-0.1-0.2
		c-0.1,0-0.2,0-0.2,0.1l0,0C495.3,328.1,495.4,328.2,495.4,328.2C495.4,328.2,495.4,328.2,495.4,328.2L495.4,328.2z M497.1,324.3
		c0.1,0,0.2,0,0.2-0.1c0-0.1,0-0.2-0.1-0.2c-0.1,0-0.2,0-0.2,0.1c0,0,0,0,0,0C497,324.1,497,324.2,497.1,324.3L497.1,324.3
		L497.1,324.3z M498.7,320.4c0.1,0,0.2,0,0.2-0.1l0,0c0-0.1,0-0.2-0.1-0.2c-0.1,0-0.2,0-0.2,0.1
		C498.6,320.2,498.6,320.3,498.7,320.4L498.7,320.4z M500.4,316.4c0.1,0,0.2,0,0.2-0.1l0,0c0-0.1,0-0.2-0.1-0.2
		c-0.1,0-0.2,0-0.2,0.1l0,0C500.2,316.3,500.3,316.4,500.4,316.4L500.4,316.4z M513.3,328.2c0,0.1,0.1,0.1,0.2,0.1l0,0
		c0.1,0,0.1-0.1,0.1-0.2c0,0,0,0,0,0c0-0.1-0.1-0.1-0.2-0.1C513.3,328,513.2,328.1,513.3,328.2L513.3,328.2L513.3,328.2z
		 M489.3,321.3c0.1,0.1,0.2,0.1,0.2,0s0.1-0.2,0-0.2s-0.2-0.1-0.2,0C489.3,321.1,489.3,321.2,489.3,321.3
		C489.3,321.3,489.3,321.3,489.3,321.3L489.3,321.3z M492.3,318.3c0.1,0.1,0.1,0.1,0.2,0l0,0c0,0,0,0,0,0c0,0,0.1-0.1,0.1-0.2
		c0,0,0-0.1,0-0.1c-0.1-0.1-0.2-0.1-0.2,0C492.3,318.1,492.3,318.3,492.3,318.3C492.3,318.3,492.3,318.3,492.3,318.3z M495.4,315.3
		c0.1,0.1,0.2,0.1,0.2,0c0.1-0.1,0.1-0.2,0-0.2s-0.2-0.1-0.2,0C495.3,315.1,495.3,315.3,495.4,315.3
		C495.4,315.3,495.4,315.3,495.4,315.3L495.4,315.3z M498.4,312.3c0.1,0.1,0.2,0.1,0.2,0c0,0,0,0,0,0c0.1-0.1,0.1-0.2,0-0.2
		c0,0,0,0,0,0c-0.1-0.1-0.2-0.1-0.2,0C498.3,312.1,498.3,312.3,498.4,312.3C498.4,312.3,498.4,312.3,498.4,312.3L498.4,312.3z
		 M504.2,327.6c0,0.1,0.1,0.2,0.2,0.2c0.1,0,0.2-0.1,0.2-0.2c0-0.1-0.1-0.2-0.2-0.2C504.3,327.4,504.2,327.5,504.2,327.6
		L504.2,327.6z M504.2,323.4c0,0.1,0.1,0.2,0.2,0.2l0,0c0.1,0,0.2-0.1,0.2-0.2c0,0,0,0,0,0c0-0.1-0.1-0.2-0.2-0.2
		C504.3,323.2,504.3,323.3,504.2,323.4L504.2,323.4z M472.3,329.3c0.1,0.1,0.3,0.2,0.5,0c0,0,0,0,0,0c0.1-0.1,0.2-0.3,0-0.5
		c0,0,0,0,0,0c-0.1-0.1-0.3-0.2-0.5,0c0,0,0,0,0,0C472.2,328.9,472.1,329.1,472.3,329.3C472.3,329.3,472.3,329.3,472.3,329.3z
		 M478.3,324c0.1,0.1,0.3,0.2,0.5,0c0.1-0.1,0.2-0.3,0-0.5c0,0,0,0,0,0c-0.1-0.1-0.3-0.2-0.5,0c0,0,0,0,0,0
		C478.3,323.6,478.2,323.8,478.3,324z M484.4,318.7c0.1,0.1,0.3,0.2,0.5,0s0.2-0.3,0-0.5s-0.3-0.2-0.5,0
		C484.3,318.3,484.3,318.5,484.4,318.7C484.4,318.7,484.4,318.7,484.4,318.7L484.4,318.7z M490.5,313.4c0.1,0.1,0.2,0.1,0.4,0.1
		c0,0,0.1,0,0.1-0.1c0,0,0.1-0.1,0.1-0.2l0,0c0-0.1,0-0.2-0.1-0.3c-0.1-0.1-0.3-0.2-0.5,0c0,0,0,0,0,0
		C490.4,313.1,490.4,313.3,490.5,313.4L490.5,313.4z M496.5,349.5c0,0.2,0.1,0.3,0.3,0.4c0.2,0,0.3-0.1,0.4-0.3c0,0,0,0,0,0
		c0-0.2-0.1-0.3-0.3-0.4C496.6,349.1,496.5,349.3,496.5,349.5L496.5,349.5L496.5,349.5z M497,341.4c0,0.2,0.1,0.3,0.3,0.4
		s0.3-0.1,0.4-0.3c0,0,0,0,0,0c0-0.2-0.1-0.3-0.3-0.4l0,0C497.2,341.1,497.1,341.2,497,341.4L497,341.4z M497.6,333.4
		c0,0.2,0.1,0.3,0.3,0.4c0,0,0,0,0,0c0.2,0,0.3-0.1,0.4-0.3c0,0,0,0,0,0c0-0.2-0.1-0.3-0.3-0.4C497.8,333.1,497.6,333.2,497.6,333.4
		L497.6,333.4z M498.2,325.3c0,0.2,0.1,0.3,0.3,0.4c0.2,0,0.3-0.1,0.4-0.3c0-0.2-0.1-0.3-0.3-0.4c0,0,0,0,0,0
		C498.3,325,498.2,325.1,498.2,325.3C498.2,325.3,498.2,325.3,498.2,325.3L498.2,325.3z M498.7,317.3c0,0.2,0.1,0.3,0.3,0.4
		s0.3-0.1,0.4-0.3c0,0,0,0,0,0c0-0.2-0.1-0.3-0.3-0.4c0,0,0,0,0,0C498.9,317,498.8,317.1,498.7,317.3L498.7,317.3z M468.6,315.4
		c0.1,0.2,0.3,0.3,0.4,0.2c0.2-0.1,0.3-0.3,0.2-0.4c-0.1-0.2-0.3-0.3-0.4-0.2C468.6,315,468.5,315.2,468.6,315.4
		C468.6,315.4,468.6,315.4,468.6,315.4L468.6,315.4z M476.2,312.8c0.1,0.2,0.2,0.3,0.4,0.2s0.3-0.2,0.2-0.4c0,0,0,0,0,0
		c-0.1-0.2-0.2-0.3-0.4-0.2C476.3,312.5,476.2,312.6,476.2,312.8z M483.9,310.3c0.1,0.2,0.2,0.3,0.4,0.2c0,0,0,0,0,0
		c0.2-0.1,0.3-0.2,0.2-0.4c0,0,0,0,0,0c-0.1-0.2-0.2-0.3-0.4-0.2c0,0,0,0,0,0C483.9,309.9,483.8,310.1,483.9,310.3L483.9,310.3z
		 M481.1,341.6c0.2,0.1,0.4,0,0.4-0.2c0.1-0.2,0-0.4-0.2-0.4c-0.2-0.1-0.4,0-0.4,0.2C480.9,341.3,481,341.5,481.1,341.6L481.1,341.6
		z M484.7,334.4c0.2,0.1,0.4,0,0.4-0.2c0.1-0.2,0-0.4-0.2-0.4c-0.2-0.1-0.4,0-0.4,0.2C484.5,334.1,484.6,334.3,484.7,334.4
		L484.7,334.4z M488.3,327.2c0.2,0.1,0.4,0,0.5-0.2c0.1-0.2,0-0.4-0.1-0.4c-0.2-0.1-0.4,0-0.5,0.1S488.2,327.1,488.3,327.2
		C488.3,327.2,488.3,327.2,488.3,327.2z M491.9,319.9c0.2,0.1,0.4,0,0.4-0.1c0,0,0,0,0,0c0.1-0.2,0-0.4-0.1-0.4
		c-0.2-0.1-0.4,0-0.4,0.1c0,0,0,0,0,0C491.7,319.6,491.8,319.8,491.9,319.9C491.9,319.9,491.9,319.9,491.9,319.9L491.9,319.9z
		 M495.6,312.7c0.2,0.1,0.4,0,0.4-0.2c0.1-0.2,0-0.4-0.2-0.4c-0.2-0.1-0.3,0-0.4,0.1C495.3,312.4,495.4,312.6,495.6,312.7
		C495.5,312.7,495.5,312.7,495.6,312.7L495.6,312.7z M511.7,343.8c0.1,0.2,0.3,0.3,0.4,0.2c0.2-0.1,0.3-0.2,0.2-0.4c0,0,0,0,0,0
		c0-0.2-0.2-0.3-0.4-0.2c0,0,0,0,0,0C511.8,343.5,511.7,343.6,511.7,343.8L511.7,343.8z M509.2,336.2c0.1,0.2,0.2,0.3,0.4,0.2
		c0.2-0.1,0.3-0.3,0.2-0.4c-0.1-0.2-0.2-0.3-0.4-0.2c0,0,0,0,0,0C509.2,335.8,509.1,336,509.2,336.2
		C509.2,336.2,509.2,336.2,509.2,336.2L509.2,336.2z M506.6,328.5c0.1,0.2,0.2,0.3,0.4,0.2c0,0,0,0,0,0c0.2-0.1,0.3-0.2,0.2-0.4
		c0,0,0,0,0,0c-0.1-0.2-0.2-0.3-0.4-0.2S506.6,328.3,506.6,328.5C506.6,328.5,506.6,328.5,506.6,328.5L506.6,328.5z M504.1,320.9
		c0.1,0.2,0.3,0.3,0.4,0.2c0.2-0.1,0.3-0.2,0.2-0.4c0,0,0,0,0,0c-0.1-0.2-0.2-0.3-0.4-0.2C504.1,320.5,504,320.7,504.1,320.9
		L504.1,320.9z M464,311.5c0-0.1,0.1-0.1,0.1-0.2c0,0,0-0.1-0.1-0.1C464,311.2,464,311.4,464,311.5L464,311.5z M470.5,309.8
		c0,0.2,0.2,0.3,0.3,0.2c0,0,0,0,0,0c0.2,0,0.3-0.2,0.2-0.4s-0.2-0.3-0.4-0.2C470.5,309.5,470.4,309.6,470.5,309.8
		C470.5,309.8,470.5,309.8,470.5,309.8L470.5,309.8z M477.5,308.2c0,0.2,0.2,0.3,0.3,0.2c0,0,0,0,0,0c0.2,0,0.3-0.2,0.2-0.4
		c0-0.2-0.2-0.3-0.4-0.2S477.4,308,477.5,308.2L477.5,308.2z M474.2,337.9c0.1,0.1,0.3,0,0.4-0.1c0.1-0.1,0-0.3-0.1-0.4
		s-0.3,0-0.4,0.1C474,337.6,474,337.8,474.2,337.9z M478,331.8c0.1,0.1,0.3,0,0.4-0.1c0.1-0.1,0.1-0.3-0.1-0.4s-0.3-0.1-0.4,0.1
		c0,0,0,0,0,0C477.8,331.5,477.8,331.7,478,331.8C478,331.8,478,331.8,478,331.8L478,331.8z M481.7,325.5c0,0.1,0.1,0.1,0.1,0.2
		c0.1,0.1,0.3,0,0.4-0.1c0.1-0.1,0-0.3-0.1-0.4c0,0,0,0,0,0c-0.1-0.1-0.2-0.1-0.3,0l0,0c-0.1,0-0.1,0.1-0.1,0.1
		C481.6,325.3,481.6,325.4,481.7,325.5L481.7,325.5z M485.6,319.6c0.1,0.1,0.3,0,0.4-0.1c0.1-0.1,0-0.3-0.1-0.4
		c-0.1-0.1-0.3,0-0.4,0.1C485.4,319.3,485.5,319.5,485.6,319.6C485.6,319.5,485.6,319.5,485.6,319.6L485.6,319.6z M489.4,313.4
		c0.1,0.1,0.3,0,0.4-0.1c0.1-0.1,0-0.3-0.1-0.4c-0.1-0.1-0.3,0-0.4,0.1C489.2,313.2,489.3,313.3,489.4,313.4
		C489.4,313.4,489.4,313.4,489.4,313.4z M503.9,342.7c0,0.2,0.2,0.3,0.4,0.2c0.2,0,0.3-0.2,0.2-0.3c0,0,0,0,0,0
		c0-0.2-0.2-0.3-0.4-0.2c0,0,0,0,0,0C504,342.4,503.9,342.5,503.9,342.7L503.9,342.7z M502.3,335.7c0,0.2,0.2,0.3,0.4,0.2
		c0.2,0,0.3-0.2,0.2-0.3c0,0,0,0,0,0c0-0.2-0.2-0.3-0.4-0.2c0,0,0,0,0,0C502.4,335.3,502.3,335.5,502.3,335.7L502.3,335.7z
		 M500.7,328.6c0,0.2,0.2,0.3,0.4,0.2c0,0,0,0,0,0c0.2,0,0.3-0.2,0.2-0.3c0,0,0,0,0,0c0-0.2-0.2-0.3-0.4-0.2c0,0,0,0,0,0
		C500.7,328.3,500.6,328.5,500.7,328.6L500.7,328.6z M499.1,321.6c0,0.2,0.2,0.3,0.4,0.2c0.2,0,0.3-0.2,0.2-0.4
		c0-0.2-0.2-0.3-0.4-0.2C499.1,321.3,499,321.5,499.1,321.6L499.1,321.6z M497.4,314.6c0,0.2,0.2,0.3,0.4,0.2c0.2,0,0.3-0.2,0.2-0.4
		l0,0c0-0.2-0.2-0.3-0.4-0.2C497.5,314.3,497.4,314.5,497.4,314.6L497.4,314.6z M471.2,320.6c0.1,0.1,0.3,0.2,0.4,0.1c0,0,0,0,0,0
		c0.1-0.1,0.2-0.3,0.1-0.4c0,0,0,0,0,0c-0.1-0.1-0.3-0.2-0.4-0.1c0,0,0,0,0,0C471.1,320.3,471.1,320.5,471.2,320.6L471.2,320.6z
		 M477,316.5c0.1,0.1,0.3,0.2,0.4,0.1c0.1-0.1,0.2-0.3,0.1-0.4c-0.1-0.1-0.3-0.2-0.4-0.1C476.9,316.1,476.9,316.3,477,316.5
		C477,316.5,477,316.5,477,316.5L477,316.5z M482.9,312.3c0.1,0.1,0.3,0.2,0.4,0.1c0.1-0.1,0.2-0.3,0.1-0.4
		c-0.1-0.1-0.3-0.2-0.4-0.1l0,0C482.8,311.9,482.8,312.1,482.9,312.3C482.9,312.3,482.9,312.3,482.9,312.3L482.9,312.3z
		 M488.5,339.4c0,0.2,0.1,0.3,0.3,0.3c0.2,0,0.3-0.1,0.3-0.2c0-0.2-0.1-0.3-0.2-0.4C488.7,339.1,488.5,339.2,488.5,339.4
		L488.5,339.4z M489.7,332.3c0,0.2,0.1,0.3,0.2,0.3c0,0,0,0,0,0c0.2,0,0.3-0.1,0.3-0.2c0-0.2-0.1-0.3-0.2-0.4
		C489.8,332,489.7,332.1,489.7,332.3L489.7,332.3z M490.9,325.2c0,0.2,0.1,0.3,0.2,0.3s0.3-0.1,0.3-0.2c0,0,0,0,0,0
		c0-0.2-0.1-0.3-0.2-0.3C491,324.9,490.9,325,490.9,325.2z M492,318.1c0,0.2,0.1,0.3,0.2,0.3c0.1,0,0.2,0,0.3-0.1l0,0
		c0,0,0.1-0.1,0.1-0.2c0-0.2-0.1-0.3-0.3-0.3C492.2,317.8,492.1,317.9,492,318.1L492,318.1z M493.2,311c0,0.2,0.1,0.3,0.3,0.4
		c0.2,0,0.3-0.1,0.3-0.3c0,0,0-0.1,0-0.1c-0.1,0-0.1-0.1-0.1-0.2c0,0-0.1-0.1-0.1-0.1C493.4,310.7,493.3,310.8,493.2,311L493.2,311z
		 M515.4,333.6c0.1,0.1,0.3,0.2,0.4,0.1c0,0,0,0,0,0c0.1-0.1,0.2-0.3,0.1-0.4c0,0,0,0,0,0c-0.1-0.1-0.3-0.2-0.4-0.1
		C515.4,333.3,515.3,333.5,515.4,333.6C515.4,333.6,515.4,333.6,515.4,333.6L515.4,333.6z M511.2,327.8c0.1,0.1,0.3,0.2,0.4,0.1
		c0.1-0.1,0.2-0.3,0.1-0.4c-0.1-0.1-0.3-0.2-0.4-0.1C511.2,327.4,511.1,327.6,511.2,327.8C511.2,327.8,511.2,327.8,511.2,327.8
		L511.2,327.8z M474.6,320c0.1,0.1,0.2,0.1,0.3,0s0.1-0.2,0-0.3s-0.2-0.1-0.3,0l0,0C474.6,319.8,474.6,320,474.6,320L474.6,320z
		 M477.5,316.9c0.1,0.1,0.2,0.1,0.3,0c0.1-0.1,0.1-0.2,0-0.3c-0.1-0.1-0.2-0.1-0.3,0l0,0C477.5,316.7,477.5,316.9,477.5,316.9
		L477.5,316.9z M480.4,313.8c0.1,0.1,0.2,0.1,0.2,0c0.1-0.1,0.1-0.2,0-0.2c0,0,0,0,0,0c-0.1-0.1-0.2-0.1-0.2,0
		C480.4,313.6,480.4,313.7,480.4,313.8C480.4,313.8,480.4,313.8,480.4,313.8L480.4,313.8z M483.3,310.7c0.1,0.1,0.2,0.1,0.2,0
		c0.1-0.1,0.1-0.2,0-0.2c0,0,0,0,0,0c-0.1-0.1-0.2-0.1-0.3,0C483.3,310.5,483.3,310.6,483.3,310.7L483.3,310.7z M491.3,326.2
		c0,0.1,0.1,0.2,0.2,0.2s0.2-0.1,0.2-0.2c0-0.1-0.1-0.2-0.2-0.2l0,0C491.4,326,491.3,326.1,491.3,326.2L491.3,326.2L491.3,326.2z
		 M491.2,321.9c0,0.1,0.1,0.2,0.2,0.2c0.1,0,0.2-0.1,0.2-0.2l0,0c0-0.1-0.1-0.2-0.2-0.2c0,0,0,0,0,0
		C491.2,321.7,491.2,321.8,491.2,321.9C491.2,321.9,491.2,321.9,491.2,321.9L491.2,321.9z M491,317.7c0,0.1,0.1,0.2,0.2,0.2
		s0.2-0.1,0.2-0.2l0,0c0-0.1-0.1-0.2-0.2-0.2c0,0,0,0,0,0C491.1,317.5,491,317.6,491,317.7C491,317.7,491,317.7,491,317.7L491,317.7
		z M490.9,313.4L490.9,313.4c0,0.1,0.1,0.2,0.2,0.2c0.1,0,0.2-0.1,0.2-0.2l0,0c0-0.1,0-0.1-0.1-0.2l0,0c0,0,0,0,0,0
		C491,313.3,490.9,313.3,490.9,313.4C490.9,313.4,490.9,313.4,490.9,313.4L490.9,313.4z M471.2,311.4c0,0.1,0.1,0.1,0.2,0.1
		c0.1,0,0.1-0.1,0.1-0.2c0-0.1-0.1-0.1-0.2-0.1c0,0,0,0,0,0C471.2,311.2,471.2,311.3,471.2,311.4L471.2,311.4z M475.1,309.6
		c0,0.1,0.1,0.1,0.2,0.1c0.1,0,0.1-0.1,0.1-0.2c0,0,0,0,0,0c0-0.1-0.1-0.1-0.2-0.1c0,0,0,0,0,0C475.1,309.4,475,309.5,475.1,309.6
		C475.1,309.6,475.1,309.6,475.1,309.6L475.1,309.6z M478.9,307.8c0,0.1,0.1,0.1,0.2,0.1c0,0,0,0,0,0c0.1,0,0.1-0.1,0.1-0.2
		c0,0,0,0,0,0c0-0.1-0.1-0.1-0.2-0.1c0,0,0,0,0,0C478.9,307.7,478.9,307.8,478.9,307.8L478.9,307.8z M483.1,322.6
		c0.1,0,0.2,0,0.2-0.1c0-0.1,0-0.2-0.1-0.2c0,0,0,0,0,0c-0.1,0-0.2,0-0.2,0.1c0,0,0,0,0,0C482.9,322.5,483,322.6,483.1,322.6
		L483.1,322.6z M484.6,318.7c0.1,0,0.2,0,0.2-0.1c0-0.1,0-0.2-0.1-0.2c-0.1,0-0.2,0-0.2,0.1c0,0,0,0,0,0
		C484.4,318.5,484.5,318.6,484.6,318.7C484.6,318.7,484.6,318.7,484.6,318.7L484.6,318.7z M486.1,314.7c0.1,0,0.2,0,0.2-0.1
		c0,0,0,0,0,0c0-0.1,0-0.2-0.1-0.2c-0.1,0-0.2,0-0.2,0.1C485.9,314.5,486,314.6,486.1,314.7C486,314.7,486.1,314.7,486.1,314.7
		L486.1,314.7z M487.5,310.7c0.1,0,0.2,0,0.2-0.1c0,0,0,0,0,0c0-0.1,0-0.2-0.1-0.2c-0.1,0-0.2,0-0.2,0.1
		C487.4,310.6,487.5,310.7,487.5,310.7L487.5,310.7z M499.2,322.1c0,0.1,0.1,0.1,0.2,0.1s0.1-0.1,0.1-0.2c0-0.1-0.1-0.1-0.2-0.1
		c0,0,0,0,0,0C499.2,321.9,499.2,322,499.2,322.1C499.2,322.1,499.2,322.1,499.2,322.1L499.2,322.1z M497.5,318.3
		c0,0.1,0.1,0.1,0.2,0.1c0.1,0,0.1-0.1,0.1-0.2c0,0,0,0,0,0c0-0.1-0.1-0.1-0.2-0.1c0,0,0,0,0,0C497.5,318.1,497.4,318.2,497.5,318.3
		C497.5,318.3,497.5,318.3,497.5,318.3L497.5,318.3z M495.7,314.4c0,0.1,0.1,0.1,0.2,0.1c0.1,0,0.1-0.1,0.1-0.2c0,0,0,0,0,0
		c0-0.1-0.2-0.1-0.2-0.1C495.7,314.2,495.7,314.3,495.7,314.4z M493.9,310.5c0,0.1,0.1,0.1,0.2,0.1c0,0,0,0,0,0
		c0.1,0,0.1-0.1,0.1-0.1c0,0,0-0.1,0-0.1c0-0.1-0.1-0.1-0.2-0.1c0,0-0.1,0-0.1,0.1l0,0C493.9,310.4,493.9,310.5,493.9,310.5
		L493.9,310.5z M464.6,306.3c0,0.1,0.1,0.2,0.2,0.1c0.1,0,0.2-0.1,0.2-0.2c0-0.1-0.1-0.2-0.2-0.1h0
		C464.6,306.1,464.6,306.2,464.6,306.3C464.6,306.3,464.6,306.3,464.6,306.3L464.6,306.3z M471.6,324.2c0.1,0.1,0.2,0,0.3-0.1
		c0,0,0,0,0,0c0.1-0.1,0-0.2,0-0.3c0,0,0,0,0,0c-0.1-0.1-0.2,0-0.3,0.1c0,0,0,0,0,0C471.5,324,471.5,324.2,471.6,324.2L471.6,324.2z
		 M474.2,320.2c0.1,0.1,0.2,0,0.3-0.1c0.1-0.1,0-0.2-0.1-0.3c-0.1-0.1-0.2,0-0.3,0.1c0,0,0,0,0,0C474.1,320,474.1,320.1,474.2,320.2
		C474.2,320.1,474.2,320.2,474.2,320.2L474.2,320.2z M476.8,316.1c0.1,0,0.2,0,0.3,0c0,0,0,0,0,0c0.1-0.1,0-0.2-0.1-0.3
		s-0.2,0-0.3,0.1C476.7,315.9,476.7,316,476.8,316.1L476.8,316.1z M479.4,312c0.1,0.1,0.2,0,0.3-0.1s0-0.2-0.1-0.3l0,0
		c-0.1,0-0.1,0-0.2,0c0,0,0,0,0,0l0,0.1C479.3,311.8,479.3,311.9,479.4,312L479.4,312z M491.6,327.7c0,0.1,0.1,0.2,0.2,0.2
		c0,0,0,0,0,0c0.1,0,0.2-0.1,0.1-0.2c0-0.1-0.1-0.2-0.2-0.2C491.6,327.5,491.6,327.6,491.6,327.7
		C491.6,327.7,491.6,327.7,491.6,327.7L491.6,327.7z M490.5,323c0,0.1,0.1,0.2,0.2,0.1h0c0.1,0,0.2-0.1,0.1-0.2
		c0-0.1-0.1-0.2-0.2-0.2C490.6,322.7,490.5,322.9,490.5,323L490.5,323z M489.5,318.2c0,0.1,0.1,0.2,0.2,0.2c0,0,0,0,0,0
		c0.1,0,0.2-0.1,0.1-0.2c0-0.1-0.1-0.2-0.2-0.2C489.6,318,489.5,318.1,489.5,318.2L489.5,318.2z M488.5,313.5c0,0.1,0.1,0.2,0.2,0.2
		c0,0,0,0,0,0c0.1,0,0.2-0.1,0.1-0.2c0-0.1-0.1-0.2-0.2-0.2C488.5,313.3,488.5,313.4,488.5,313.5L488.5,313.5z M466.1,315.3
		c0.1,0.1,0.2,0.1,0.3,0.1c0,0,0,0,0,0c0.1-0.1,0.1-0.2,0-0.3c-0.1-0.1-0.2-0.1-0.3,0c0,0,0,0,0,0C466,315.1,466,315.2,466.1,315.3
		L466.1,315.3z M470.1,312.5c0.1,0.1,0.2,0.1,0.3,0c0.1-0.1,0.1-0.2,0.1-0.3c0,0,0,0,0,0c-0.1-0.1-0.2-0.1-0.3,0
		C470,312.3,470,312.4,470.1,312.5L470.1,312.5z M474,309.8c0.1,0.1,0.2,0.1,0.3,0.1c0,0,0,0,0,0c0.1-0.1,0.1-0.2,0.1-0.3
		c0,0,0,0,0,0c-0.1-0.1-0.2-0.1-0.3-0.1C474,309.5,474,309.7,474,309.8C474,309.8,474,309.8,474,309.8L474,309.8z M481.7,325.5
		C481.7,325.5,481.7,325.5,481.7,325.5c0.2,0.1,0.3,0,0.3-0.1c0,0,0,0,0,0c0-0.1,0-0.2-0.2-0.2l0,0c-0.1,0-0.2,0.1-0.2,0.2
		c0,0,0,0,0,0C481.6,325.4,481.6,325.4,481.7,325.5L481.7,325.5z M482.4,320.5c0,0.1,0,0.2,0.1,0.2c0,0,0,0,0,0c0.1,0,0.2,0,0.2-0.2
		c0-0.1-0.1-0.2-0.2-0.2C482.6,320.3,482.5,320.4,482.4,320.5L482.4,320.5z M483.3,315.7c0,0.1,0.1,0.2,0.2,0.2s0.2-0.1,0.2-0.2
		s-0.1-0.2-0.2-0.2l0,0C483.4,315.6,483.3,315.6,483.3,315.7C483.3,315.7,483.3,315.7,483.3,315.7L483.3,315.7z M484.1,311
		c0,0.1,0.1,0.2,0.2,0.2c0.1,0,0.2,0,0.2-0.1c0,0,0,0,0,0c0-0.1,0-0.2-0.1-0.2c0,0,0,0,0,0C484.3,310.8,484.2,310.9,484.1,311
		C484.1,311,484.1,311,484.1,311L484.1,311z M499.8,321.6c0.1,0.1,0.2,0.1,0.3,0c0,0,0,0,0,0c0.1-0.1,0.1-0.2,0-0.3
		c-0.1-0.1-0.2-0.1-0.3-0.1c0,0,0,0,0,0C499.7,321.4,499.7,321.5,499.8,321.6L499.8,321.6z M497,317.6c0.1,0.1,0.2,0.1,0.3,0.1
		c0,0,0,0,0,0c0.1-0.1,0.1-0.2,0.1-0.3c0,0,0,0,0,0c-0.1-0.1-0.2-0.1-0.3-0.1C497,317.4,496.9,317.5,497,317.6L497,317.6L497,317.6z
		 M494.2,313.6c0.1,0.1,0.2,0.1,0.3,0c0.1-0.1,0.1-0.2,0.1-0.3c-0.1-0.1-0.2-0.1-0.3-0.1c0,0,0,0,0,0
		C494.2,313.4,494.2,313.6,494.2,313.6L494.2,313.6z M464.4,312.8c0.1,0.2,0.3,0.2,0.5,0.1c0.1-0.1,0.2-0.3,0.1-0.5
		c-0.1-0.2-0.3-0.2-0.5-0.1C464.3,312.5,464.3,312.7,464.4,312.8L464.4,312.8z M471.1,307.9c0.1,0.2,0.3,0.2,0.5,0.1
		c0.2-0.1,0.2-0.3,0.1-0.5l0,0c-0.1-0.2-0.3-0.2-0.5-0.1C471,307.6,471,307.8,471.1,307.9L471.1,307.9z M475.3,337.3
		c0,0.2,0.1,0.4,0.3,0.4c0.2,0,0.4-0.1,0.4-0.3c0-0.2-0.1-0.4-0.3-0.4C475.5,337,475.3,337.1,475.3,337.3L475.3,337.3z M476.6,329.1
		c0,0.2,0.1,0.4,0.3,0.4c0.2,0,0.4-0.1,0.4-0.3s-0.1-0.4-0.3-0.4C476.8,328.8,476.6,328.9,476.6,329.1z M477.9,320.9
		c0,0.2,0.1,0.4,0.3,0.4s0.4-0.1,0.4-0.3s-0.1-0.4-0.3-0.4S477.9,320.7,477.9,320.9L477.9,320.9z M479.2,312.7
		c0,0.2,0.1,0.4,0.3,0.4c0.2,0,0.4-0.1,0.4-0.3c0-0.2-0.1-0.4-0.3-0.4C479.4,312.3,479.2,312.5,479.2,312.7L479.2,312.7z
		 M508.1,337.5c0.1,0.2,0.3,0.2,0.5,0.1c0.2-0.1,0.2-0.3,0.1-0.5c-0.1-0.1-0.3-0.2-0.5-0.1C508,337.2,508,337.4,508.1,337.5
		L508.1,337.5z M503.2,330.8c0.1,0.1,0.3,0.2,0.5,0.1c0.2-0.1,0.2-0.3,0.1-0.5s-0.3-0.2-0.5-0.1c0,0,0,0,0,0
		C503.1,330.5,503.1,330.7,503.2,330.8L503.2,330.8z M498.3,324.1c0.1,0.2,0.3,0.2,0.5,0.1c0.2-0.1,0.2-0.3,0.1-0.5
		c-0.1-0.2-0.3-0.2-0.5-0.1C498.2,323.8,498.2,324,498.3,324.1L498.3,324.1z M493.4,317.4c0.1,0.2,0.3,0.2,0.5,0.1
		c0.1-0.1,0.2-0.3,0.1-0.5c-0.1-0.1-0.3-0.2-0.5-0.1c0,0,0,0,0,0C493.3,317,493.3,317.2,493.4,317.4
		C493.4,317.4,493.4,317.4,493.4,317.4L493.4,317.4z M488.5,310.7c0.1,0.2,0.3,0.2,0.5,0.1c0.1-0.1,0.2-0.3,0.1-0.5
		c-0.1-0.2-0.3-0.2-0.5-0.1C488.4,310.3,488.4,310.5,488.5,310.7L488.5,310.7z M467.8,322.1c0.2,0.1,0.4,0,0.5-0.1s0-0.4-0.1-0.5
		c-0.2-0.1-0.4,0-0.5,0.1C467.6,321.8,467.6,322,467.8,322.1z M472.1,315c0.2,0.1,0.4,0.1,0.5-0.1c0,0,0,0,0,0
		c0.1-0.2,0-0.4-0.1-0.5c-0.2-0.1-0.4-0.1-0.5,0.1c0,0,0,0,0,0C471.9,314.7,472,314.9,472.1,315L472.1,315z M476.5,307.9
		c0.2,0.1,0.4,0.1,0.5-0.1c0,0,0,0,0,0c0.1-0.2,0-0.4-0.1-0.4c0,0,0,0,0,0c-0.1-0.1-0.3-0.1-0.4,0.1l0,0
		C476.3,307.6,476.3,307.8,476.5,307.9C476.5,307.9,476.5,307.9,476.5,307.9L476.5,307.9z M490.4,341.3c0.1,0.2,0.2,0.3,0.4,0.3
		c0.2-0.1,0.3-0.2,0.2-0.4c0-0.2-0.2-0.3-0.4-0.3c0,0,0,0,0,0C490.4,340.9,490.3,341.1,490.4,341.3
		C490.4,341.3,490.4,341.3,490.4,341.3z M488.4,333.2c0,0.2,0.2,0.3,0.4,0.3h0c0.2,0,0.3-0.2,0.2-0.4l0,0c0-0.2-0.2-0.3-0.4-0.3
		C488.5,332.8,488.4,333,488.4,333.2z M486.5,325.1c0,0.2,0.2,0.3,0.4,0.3c0,0,0,0,0,0c0.2,0,0.3-0.2,0.3-0.4c0-0.2-0.2-0.3-0.4-0.3
		C486.5,324.7,486.4,324.9,486.5,325.1C486.5,325.1,486.5,325.1,486.5,325.1z M484.5,317c0,0.2,0.2,0.3,0.4,0.2
		c0.2,0,0.3-0.2,0.2-0.4c0-0.2-0.2-0.3-0.4-0.3C484.6,316.6,484.5,316.8,484.5,317L484.5,317L484.5,317z M465.1,316.7
		c0.2,0.1,0.4,0.1,0.5-0.1c0.1-0.2,0.1-0.4-0.1-0.5c-0.1-0.1-0.4-0.1-0.5,0.1c0,0,0,0,0,0C464.9,316.3,465,316.6,465.1,316.7
		C465.1,316.7,465.1,316.7,465.1,316.7L465.1,316.7z M469.7,309.8c0.2,0.1,0.4,0.1,0.5-0.1c0.1-0.2,0.1-0.4-0.1-0.5
		c-0.1-0.1-0.4-0.1-0.5,0.1c0,0,0,0,0,0C469.5,309.5,469.6,309.7,469.7,309.8C469.7,309.8,469.7,309.8,469.7,309.8L469.7,309.8z
		 M485.3,343.9c0,0.2,0.2,0.3,0.4,0.3c0.2,0,0.3-0.2,0.3-0.4c0-0.2-0.2-0.3-0.4-0.3C485.4,343.6,485.3,343.7,485.3,343.9z
		 M483.7,335.8c0,0.2,0.2,0.3,0.4,0.3c0.2,0,0.3-0.2,0.3-0.4c0-0.2-0.2-0.3-0.4-0.3C483.8,335.4,483.7,335.6,483.7,335.8z
		 M482.1,327.7c0,0.2,0.2,0.3,0.4,0.3c0.2,0,0.3-0.2,0.3-0.4s-0.2-0.3-0.4-0.3C482.2,327.3,482.1,327.5,482.1,327.7L482.1,327.7z
		 M480.5,319.6c0,0.2,0.2,0.3,0.4,0.3c0,0,0,0,0,0c0.2,0,0.3-0.2,0.3-0.4s-0.2-0.3-0.4-0.3S480.5,319.4,480.5,319.6
		C480.5,319.6,480.5,319.6,480.5,319.6L480.5,319.6z M478.9,311.4c0,0.2,0.2,0.3,0.4,0.3c0,0,0,0,0,0c0,0,0.1,0,0.1,0c0,0,0,0,0,0
		c0.1-0.1,0.2-0.2,0.1-0.3c0-0.2-0.2-0.3-0.4-0.3C479,311.1,478.9,311.2,478.9,311.4L478.9,311.4L478.9,311.4z M500.7,315.6
		c0.2,0.1,0.4,0.1,0.5-0.1c0.1-0.2,0.1-0.4-0.1-0.5c-0.1-0.1-0.4-0.1-0.5,0.1c0,0,0,0,0,0C500.5,315.3,500.6,315.5,500.7,315.6
		C500.7,315.6,500.7,315.6,500.7,315.6L500.7,315.6z M493.7,310.8c0,0.1,0.1,0.1,0.1,0.2c0,0,0,0,0,0c0.2,0.1,0.4,0.1,0.5-0.1
		c0.1-0.1,0.1-0.3,0-0.4c0,0,0,0-0.1-0.1c-0.1-0.1-0.2-0.1-0.3,0l0,0c-0.1,0-0.2,0.1-0.2,0.1C493.7,310.6,493.7,310.7,493.7,310.8
		L493.7,310.8z M469.7,331.2c0,0.2,0.1,0.4,0.3,0.4c0,0,0,0,0,0c0.2,0,0.4-0.1,0.4-0.3c0-0.2-0.1-0.4-0.3-0.4
		C469.9,330.9,469.8,331,469.7,331.2L469.7,331.2z M471.4,323.1c0,0.2,0.1,0.4,0.3,0.4c0.2,0,0.4-0.1,0.4-0.3c0,0,0,0,0,0
		c0-0.2-0.1-0.4-0.3-0.4C471.6,322.8,471.4,322.9,471.4,323.1C471.4,323.1,471.4,323.1,471.4,323.1L471.4,323.1z M473,315
		c0,0.2,0.1,0.4,0.3,0.4c0.2,0,0.4-0.1,0.4-0.3c0-0.2-0.1-0.4-0.3-0.4C473.2,314.6,473,314.8,473,315z M499.3,333.7
		c0.1,0.2,0.3,0.2,0.5,0.1c0.2-0.1,0.2-0.3,0.1-0.5c-0.1-0.2-0.3-0.2-0.5-0.1c0,0,0,0,0,0C499.2,333.3,499.2,333.5,499.3,333.7
		C499.3,333.7,499.3,333.7,499.3,333.7L499.3,333.7z M494.7,326.8c0.1,0.2,0.3,0.2,0.5,0.1c0.2-0.1,0.2-0.3,0.1-0.5
		c-0.1-0.2-0.3-0.2-0.5-0.1c0,0,0,0,0,0C494.6,326.4,494.6,326.6,494.7,326.8C494.7,326.8,494.7,326.8,494.7,326.8L494.7,326.8z
		 M490.1,319.9c0.1,0.2,0.3,0.2,0.5,0.1c0.2-0.1,0.2-0.3,0.1-0.5c-0.1-0.2-0.3-0.2-0.5-0.1C490,319.5,490,319.7,490.1,319.9
		C490.1,319.9,490.1,319.9,490.1,319.9L490.1,319.9z M485.5,313c0.1,0.2,0.3,0.2,0.5,0.1c0.2-0.1,0.2-0.3,0.1-0.5
		c-0.1-0.2-0.3-0.2-0.5-0.1C485.5,312.6,485.4,312.8,485.5,313C485.5,313,485.5,313,485.5,313L485.5,313z M466.3,312.7
		c0.1,0.1,0.3,0,0.3-0.1c0.1-0.1,0-0.3-0.1-0.3c0,0,0,0,0,0c-0.1-0.1-0.3,0-0.3,0.1c0,0,0,0,0,0
		C466.1,312.5,466.2,312.6,466.3,312.7L466.3,312.7z M468.6,306.9c0.1,0.1,0.3,0,0.3-0.1c0,0,0,0,0,0c0.1-0.1,0-0.3-0.1-0.3
		c0,0,0,0,0,0c-0.1,0-0.3,0-0.3,0.1c0,0,0,0,0,0C468.5,306.7,468.5,306.8,468.6,306.9C468.6,306.9,468.6,306.9,468.6,306.9
		L468.6,306.9z M485.5,329.6c0.1,0.1,0.2,0.2,0.3,0.1c0.1-0.1,0.2-0.2,0.1-0.3c0-0.1-0.2-0.2-0.3-0.1c0,0,0,0,0,0
		C485.5,329.4,485.4,329.5,485.5,329.6L485.5,329.6z M483,323.9c0.1,0.1,0.2,0.2,0.3,0.1s0.2-0.2,0.1-0.3c-0.1-0.1-0.2-0.2-0.3-0.1
		c0,0,0,0,0,0C483,323.6,483,323.8,483,323.9L483,323.9z M480.6,318.2c0.1,0.1,0.2,0.2,0.3,0.1s0.2-0.2,0.1-0.3s-0.2-0.2-0.3-0.1
		l0,0C480.6,317.9,480.5,318,480.6,318.2L480.6,318.2z M478.1,312.4c0.1,0.1,0.2,0.2,0.3,0.1c0,0,0,0,0,0c0.1-0.1,0.2-0.2,0.1-0.3
		c0,0,0,0,0,0c-0.1-0.1-0.2-0.2-0.3-0.1C478.1,312.1,478.1,312.3,478.1,312.4C478.1,312.4,478.1,312.4,478.1,312.4L478.1,312.4z
		 M472.3,329c0,0.1,0.1,0.3,0.3,0.3c0.1,0,0.2-0.1,0.3-0.3c0-0.1-0.1-0.3-0.3-0.3c0,0,0,0,0,0C472.4,328.7,472.3,328.9,472.3,329
		C472.3,329,472.3,329,472.3,329z M472.2,322.8c0,0.1,0.1,0.3,0.3,0.3c0.1,0,0.3-0.1,0.3-0.3c0,0,0,0,0,0c0-0.1-0.1-0.3-0.2-0.3
		c0,0,0,0,0,0C472.3,322.5,472.2,322.6,472.2,322.8C472.2,322.8,472.2,322.8,472.2,322.8L472.2,322.8z M472.1,316.5
		c0,0.1,0.1,0.3,0.2,0.3c0,0,0,0,0,0c0.1,0,0.2-0.1,0.3-0.2c0,0,0,0,0,0c0-0.1-0.1-0.3-0.3-0.3C472.2,316.3,472.1,316.4,472.1,316.5
		C472.1,316.5,472.1,316.5,472.1,316.5L472.1,316.5z M472,310.3c0,0.1,0.1,0.3,0.3,0.3c0,0,0,0,0,0c0.1,0,0.3-0.1,0.3-0.2
		c0,0,0,0,0,0c0-0.1-0.1-0.3-0.3-0.3h0C472.2,310,472,310.1,472,310.3L472,310.3z M494.4,320c0.1,0.1,0.3,0.1,0.4,0c0,0,0,0,0,0
		c0.1-0.1,0.1-0.3,0-0.4c0,0,0,0,0,0c-0.1-0.1-0.3-0.1-0.4,0C494.3,319.7,494.3,319.9,494.4,320L494.4,320z M489.9,315.6
		c0.1,0.1,0.3,0.1,0.4,0c0.1-0.1,0.1-0.3,0-0.4c-0.1-0.1-0.3-0.1-0.4,0C489.8,315.3,489.8,315.5,489.9,315.6z M485.4,311.2
		c0.1,0.1,0.3,0.1,0.4,0c0,0,0,0,0,0c0.1-0.1,0.1-0.3,0-0.4c-0.1-0.1-0.3-0.1-0.4,0c0,0,0,0,0,0C485.3,311,485.3,311.1,485.4,311.2
		C485.4,311.2,485.4,311.2,485.4,311.2L485.4,311.2z M470.7,315.2c0,0.1,0.1,0.1,0.2,0.1c0.1,0,0.1-0.1,0.1-0.2s-0.1-0.1-0.2-0.1
		c0,0,0,0,0,0C470.7,315.1,470.7,315.2,470.7,315.2L470.7,315.2z M470.1,311.9c0,0.1,0.1,0.1,0.2,0.1c0,0,0,0,0,0
		c0.1,0,0.1-0.1,0.1-0.1c0,0,0,0,0,0c0-0.1-0.1-0.1-0.2-0.1c0,0,0,0,0,0C470.1,311.7,470.1,311.8,470.1,311.9z M469.5,308.5
		c0,0.1,0.1,0.1,0.2,0.1c0,0,0,0,0,0c0.1,0,0.1-0.1,0.1-0.2c0-0.1-0.1-0.1-0.2-0.1S469.5,308.5,469.5,308.5L469.5,308.5z
		 M464.4,309.9c0,0.1,0,0.1,0.1,0.2c0.1,0,0.2,0,0.2-0.1c0-0.1,0-0.1-0.1-0.2C464.5,309.7,464.4,309.8,464.4,309.9L464.4,309.9z
		 M465.1,306.5c0,0.1,0,0.1,0.1,0.2c0.1,0,0.2,0,0.2-0.1c0,0,0,0,0,0c0-0.1,0-0.1-0.1-0.2C465.2,306.4,465.2,306.5,465.1,306.5
		L465.1,306.5z M476.5,311.2c0,0.1,0.1,0.1,0.2,0c0.1,0,0.1-0.1,0-0.2c0,0,0,0,0,0c0-0.1-0.1-0.1-0.2,0c0,0,0,0,0,0
		C476.5,311,476.5,311.1,476.5,311.2L476.5,311.2z M474.7,308.3c0,0.1,0.1,0.1,0.2,0c0,0,0,0,0,0c0.1,0,0.1-0.1,0-0.2
		s-0.1-0.1-0.2,0c0,0,0,0,0,0C474.7,308.1,474.7,308.2,474.7,308.3C474.7,308.3,474.7,308.3,474.7,308.3L474.7,308.3z M474.7,320.8
		c0.1,0.1,0.2,0.1,0.3,0.1l0,0c0.1-0.1,0.1-0.2,0.1-0.3c0,0,0,0,0,0c-0.1-0.1-0.2-0.1-0.3-0.1c0,0,0,0,0,0
		C474.7,320.5,474.6,320.6,474.7,320.8C474.7,320.7,474.7,320.7,474.7,320.8L474.7,320.8z M471.7,316c0.1,0.1,0.2,0.1,0.3,0.1
		c0,0,0,0,0,0c0.1-0.1,0.1-0.2,0.1-0.3c0,0,0,0,0,0c-0.1-0.1-0.2-0.1-0.3-0.1C471.6,315.7,471.6,315.8,471.7,316
		C471.7,316,471.7,316,471.7,316L471.7,316z M468.7,311.2c0.1,0.1,0.2,0.1,0.3,0.1c0.1-0.1,0.1-0.2,0.1-0.3c0,0,0,0,0,0
		c-0.1-0.1-0.2-0.1-0.3-0.1C468.6,310.9,468.6,311.1,468.7,311.2L468.7,311.2z M465.7,306.4c0.1,0.1,0.2,0.1,0.3,0.1
		c0.1-0.1,0.1-0.2,0.1-0.3c-0.1-0.1-0.2-0.1-0.3-0.1c0,0,0,0,0,0C465.6,306.2,465.6,306.3,465.7,306.4L465.7,306.4z M481.1,310.8
		c0.1,0.1,0.2,0.1,0.3,0c0,0,0,0,0,0c0.1-0.1,0-0.3-0.1-0.3c-0.1-0.1-0.2,0-0.3,0C480.9,310.6,481,310.7,481.1,310.8L481.1,310.8z"
		/>
	
		<linearGradient id="sweater_1_" gradientUnits="userSpaceOnUse" x1="508.5258" y1="293.4387" x2="509.9675" y2="425.5937" gradientTransform="matrix(1 0 0 1 0 -70)">
		<stop  offset="0" style="stop-color:#015660"/>
		<stop  offset="1" style="stop-color:#002B30"/>
	</linearGradient>
	<path id="sweater" class="st11" d="M572.4,193.4c0,0-22.3-1.6-48.1,8.9s-27.7,19.8-42.3,26.4s-52.3,16.2-51,58.2
		c0,0,21.5,27.5,102.2,23.8l53.4-103.4C586.6,207.2,576.2,205.6,572.4,193.4z"/>
	
		<linearGradient id="R_hand_1_" gradientUnits="userSpaceOnUse" x1="676.5596" y1="430.5072" x2="620.4641" y2="398.8403" gradientTransform="matrix(1 0 0 1 0 -70)">
		<stop  offset="0" style="stop-color:#FFBEB6"/>
		<stop  offset="1" style="stop-color:#F2A19C"/>
	</linearGradient>
	<path id="R_hand" class="st12" d="M700,372.6c-10.8,2-10.2-2.9-19.3-3.5c-5.2-0.3-45.6-3.6-62.8-6l8.9-35.7
		c6.4,3.2,29.9,16.3,35.1,17.7c15.8,4.1,20.4,5.8,23.5,3.4c1.9-1.4,4.1-2.3,6.5-2.5l7.5-0.9c6.5-3.2,7.3-5.3,10,0
		C712,350.4,710.8,370.6,700,372.6z"/>
	<path id="R_sleeve" class="st4" d="M588.4,205c0,0-10.9,35.4-9.2,59.3s4.6,32.1,22.2,43c13.7,8.5,26.5,15.5,26.5,15.5l-16.8,67.5
		c0,0-23.7-3.4-34.5-20.5c-12.1-19.2-22.3-20-33.1-23.4s-33-17.1-27.6-53.4s19.1-62.6,54-99.8l0,0"/>
	
		<linearGradient id="neck_1_" gradientUnits="userSpaceOnUse" x1="569.7415" y1="279.3638" x2="591.7658" y2="255.5775" gradientTransform="matrix(1 0 0 1 0 -70)">
		<stop  offset="0" style="stop-color:#FFBEB6"/>
		<stop  offset="1" style="stop-color:#F2A19C"/>
	</linearGradient>
	<path id="neck" class="st13" d="M599.1,190.2c-2.8,3.6-8.9,11.5-10.7,14.9c0,0-11.2,5.7-18.4-11.8c0-0.1,8.9-3.9,13.3-7.5
		C588.2,188.4,593.5,189.9,599.1,190.2z"/>
	<path id="face" class="st14" d="M625.6,172.3c-0.6,0.2-1.1,0.6-1.3,1.1c-2.2,4.7-14,25.9-41.2,12.2c0,0-0.1-0.1-0.3-0.2l0,0
		c1,0.3,2.1-0.3,2.5-1.3c0.4-1.2,0.3-3.3-1.4-7.1c-3.7-8.7,1.1-13.7,4-12.3c3,1.4,5.5,13.4,9.6,7.6c2.9-3.9,2.7-9.6,4.1-12.7
		c0.3-0.5,0.8-0.9,1.4-1.1l18.9-4.6c0.1,0.4,0.2,0.8,0.3,1.2c0,0.1,0.1,0.3,0.1,0.4c0.5,1.2,3.2,7.9,6.4,10
		C632.1,167.9,630.7,171,625.6,172.3z"/>
	<path id="hair" class="st15" d="M569.6,166.9l32.6-8c-2,2.8-1.5,9.2-4.7,13.5c-4.2,5.8-6.7-6.2-9.6-7.6c-3-1.4-7.8,3.6-4,12.3
		c3.7,8.7-0.5,8.6-0.5,8.6C574,184,570.3,170.3,569.6,166.9z"/>
	<path id="mouth" class="st16" d="M623.1,180.4c-1.4,2.1-4.2,2.7-6.3,1.3c-0.8-0.5-1.3-1.2-1.7-2.1c-0.3-0.6,0.7-1.2,1-0.5
		c0.7,1.8,2.7,2.7,4.5,2.1c0.7-0.2,1.3-0.7,1.7-1.3C622.6,179.2,623.6,179.8,623.1,180.4L623.1,180.4z"/>
	<path id="cap_bottom" class="st5" d="M651.1,147l-81.8,20l0,0l-0.7-3l0,0l79.9-19.5c1-0.3,2.1,0.4,2.4,1.4l0,0L651.1,147L651.1,147
		z"/>
	
		<linearGradient id="cap_top_1_" gradientUnits="userSpaceOnUse" x1="616.305" y1="200.779" x2="543.9237" y2="254.1249" gradientTransform="matrix(1 0 0 1 -1.631821e-05 -69.9999)">
		<stop  offset="0" style="stop-color:#61B6C0"/>
		<stop  offset="1" style="stop-color:#498990"/>
	</linearGradient>
	<path id="cap_top" class="st17" d="M621.6,151l-53.1,13l0,0l-1.5-6c-2.6-10.5,3.9-21,14.3-23.6l14.4-3.5c10.9-2.7,21.9,4,24.5,14.9
		L621.6,151L621.6,151z"/>
</g>
</svg>
