<?xml version="1.0" encoding="utf-8"?>
<!-- Generator: Adobe Illustrator 24.2.0, SVG Export Plug-In . SVG Version: 6.00 Build 0)  -->
<svg version="1.1" id="illustration" xmlns="http://www.w3.org/2000/svg" xmlns:xlink="http://www.w3.org/1999/xlink" x="0px"
	 y="0px" viewBox="0 0 577.8 506.2" style="enable-background:new 0 0 577.8 506.2;" xml:space="preserve">
<style type="text/css">
	.st0{fill:url(#bottom_1_);}
	.st1{fill:#EEEEEE;}
	.st2{fill:#A0D3D9;}
	.st3{fill:#01ACC0;}
	.st4{fill:#015660;}
	.st5{fill:#61B6C0;}
	.st6{fill:url(#finger_1_);}
	.st7{fill:#002B30;}
	.st8{fill:#DFF0F2;}
	.st9{fill:#67CDD9;}
	.st10{opacity:0.86;fill:#FFFFFF;enable-background:new    ;}
	.st11{fill:url(#sweater_1_);}
	.st12{fill:url(#R_hand_1_);}
	.st13{fill:url(#neck_1_);}
	.st14{fill:#FFBEB6;}
	.st15{fill:#733E23;}
	.st16{fill:#1C2868;}
	.st17{fill:url(#cap_top_1_);}
</style>
<g id="message">
	
		<linearGradient id="bottom_1_" gradientUnits="userSpaceOnUse" x1="117.214" y1="116.1149" x2="112.8273" y2="236.746" gradientTransform="matrix(1 0 0 -1 0 391.3961)">
		<stop  offset="8.979999e-02" style="stop-color:#EEEEEE"/>
		<stop  offset="0.8178" style="stop-color:#D6D7D8"/>
	</linearGradient>
	<rect id="bottom" x="54" y="166.8" class="st0" width="122" height="95.2"/>
	<polygon id="top" class="st1" points="54,166.8 115,214.4 176,166.8 	"/>
</g>
<g id="bike">
	<path id="L_shoe" class="st2" d="M204.2,411.2l-18.4,51.2h129.6c0,0-6.6-12.8-28.8-22.3s-42.7-28.9-42.7-28.9H204.2"/>
	<path id="L_trousers" class="st3" d="M199.3,149.8c0,0-2,34.3,31.6,84.4s3.3,73.8-4.6,89s-6.7,8.8-13.3,19.4s-26,28.2-16.6,57.5
		l78.1,2.3c0,0,33.6-118,31.6-143.1s-32.3-83.7-32.3-83.7L199.3,149.8"/>
	<path id="back_wheel" class="st4" d="M118.9,506.2c-63.3,0-114.6-51.3-114.6-114.6S55.6,277,118.9,277s114.6,51.3,114.6,114.6
		C233.4,454.8,182.2,506.1,118.9,506.2z M118.9,284c-59.4,0-107.6,48.2-107.6,107.6s48.2,107.6,107.6,107.6S226.5,451,226.5,391.6
		C226.4,332.2,178.3,284.1,118.9,284z"/>
	<path id="back" class="st5" d="M118.9,262.3c-51.8,0.1-98.5,31-118.9,78.6h8.6c28-60.9,100.1-87.6,161-59.6
		c43.1,19.8,70.7,62.9,70.7,110.3h7.9C248.1,320.2,190.3,262.4,118.9,262.3z"/>
	<path id="front" class="st5" d="M458.8,270.2c47.5,0,90.7,27.8,110.4,71h8.6c-27-63.8-99.5-95-164.4-70.7c0.9,2.5,1.9,4.9,2.8,7.4
		C429.9,272.8,444.3,270.2,458.8,270.2z"/>
	<path id="front_wheel" class="st4" d="M458.8,506.2c-63.3,0-114.6-51.3-114.6-114.6S395.5,277,458.8,277s114.6,51.3,114.6,114.6
		C573.4,454.8,522.1,506.1,458.8,506.2z M458.8,284c-59.4,0-107.6,48.2-107.6,107.6s48.2,107.6,107.6,107.6S566.4,451,566.4,391.6
		S518.2,284.1,458.8,284z"/>
	<path id="gearbox" class="st4" d="M263.7,371.9L263.7,371.9H124.9c-11.7,0-21.3,9.5-21.3,21.2c0,10.9,8.3,20.1,19.2,21.2l135.4,18
		c0.4,0.1,0.9,0.1,1.3,0.2h0.1l0,0c1.1,0.1,2.2,0.2,3.3,0.2c16.8,0,30.4-13.6,30.4-30.4C293.4,385.7,280.2,372.2,263.7,371.9z"/>
	<polygon id="_2" class="st5" points="456.3,391.8 382.9,199.1 389.2,199.1 461.9,389.6 	"/>
	<polygon id="_1" class="st5" points="197.2,211.7 202.8,209.6 271.1,387.1 265.5,389.3 	"/>
	
		<linearGradient id="finger_1_" gradientUnits="userSpaceOnUse" x1="427.7742" y1="182.9721" x2="429.7531" y2="169.8895" gradientTransform="matrix(1 0 0 -1 0 391.3961)">
		<stop  offset="0" style="stop-color:#FFBEB6"/>
		<stop  offset="0.2982" style="stop-color:#FBB5AE"/>
		<stop  offset="1" style="stop-color:#F2A19C"/>
	</linearGradient>
	<path id="finger" class="st6" d="M422,217.1c0,0,7.2-6.3,10.1-6.8s3.1-1,3.1,1s-1.9,1.5-0.8,3.5S422,217.1,422,217.1z"/>
	<path id="handle" class="st5" d="M419.4,251.6l-1.6-5.8c3.8-1.2,7.4-3,10.7-5.3c6.4-4.6,9.2-10.3,8.3-16.8
		c-0.7-5.6-4.8-18.6-27.3-18.6h-24.3l-2.3-6h26.6c4,0,11.6,0.5,18.7,3.9c8.1,3.6,13.6,11.2,14.5,20
		C444.9,239.8,428.4,249.1,419.4,251.6z"/>
	<polygon id="frame" class="st5" points="407.6,264.1 271.6,408.3 267.2,404.2 401.3,262.1 222.9,261.9 220.6,255.9 404.6,256.1 	
		"/>
	<path id="seat" class="st7" d="M225.1,217.5h-48c0,0-2.2-17.1,16.7-17.1s28.4-1.1,28.4-1.1L225.1,217.5"/>
	<circle id="small_detail" class="st4" cx="458.1" cy="387.9" r="10.8"/>
	<path id="detail" class="st4" d="M458.1,411.1c-12.8,0-23.2-10.4-23.2-23.2s10.4-23.2,23.2-23.2s23.2,10.4,23.2,23.2
		C481.3,400.7,470.9,411.1,458.1,411.1z M458.1,369.6c-10.1,0-18.2,8.2-18.2,18.2c0,10.1,8.2,18.2,18.2,18.2
		c10.1,0,18.2-8.2,18.2-18.2C476.3,377.8,468.1,369.7,458.1,369.6L458.1,369.6z"/>
</g>
<g id="man">
	<path id="L_shoe-2" class="st8" d="M252.9,395l-18.4,51.2h129.6c0,0-6.6-12.8-28.8-22.3S292.7,395,292.7,395H252.9"/>
	<path id="R_trousers" class="st9" d="M206.3,145.2c0,0-25.1,48.1,16.5,75.8s85.1,44.2,60.7,62s-33.6,33-33.6,51.4
		s-10.7,15.9-21.3,25.1s-14.9,24.1-11,35.9l75.1-0.4c0,0,75.2-102.9,78.5-118s12.5-21.8-28.4-52.7s-79.1-65.9-79.1-65.9L206.3,145.2
		z"/>
	<path id="texture" class="st10" d="M217.6,185.1c0,0.1,0.1,0.1,0.2,0.1l0,0c0.1,0,0.1-0.1,0.1-0.2l0,0c0-0.1-0.1-0.1-0.2-0.1l0,0
		C217.6,184.9,217.6,185,217.6,185.1z M221.6,183.5c0,0.1,0.1,0.1,0.2,0.1s0.1-0.1,0.1-0.2s-0.1-0.1-0.2-0.1l0,0
		C221.6,183.3,221.5,183.4,221.6,183.5z M225.5,181.9c0,0.1,0.1,0.1,0.2,0.1l0,0c0.1,0,0.1-0.1,0.1-0.2s-0.1-0.1-0.2-0.1l0,0
		C225.5,181.7,225.5,181.8,225.5,181.9L225.5,181.9L225.5,181.9z M229.4,180.3c0,0.1,0.1,0.1,0.2,0.1l0,0c0.1,0,0.1-0.1,0.1-0.2
		s-0.1-0.1-0.2-0.1S229.4,180.2,229.4,180.3L229.4,180.3L229.4,180.3z M230.3,197.9c0.1,0,0.2,0,0.2-0.1s0-0.2-0.1-0.2
		s-0.2,0-0.2,0.1l0,0C230.2,197.8,230.3,197.9,230.3,197.9L230.3,197.9L230.3,197.9z M232,194c0.1,0,0.2,0,0.2-0.1s0-0.2-0.1-0.2
		s-0.2,0-0.2,0.1l0,0C231.9,193.8,231.9,193.9,232,194L232,194L232,194z M233.6,190.1c0.1,0,0.2,0,0.2-0.1l0,0c0-0.1,0-0.2-0.1-0.2
		s-0.2,0-0.2,0.1C233.5,189.9,233.5,190,233.6,190.1L233.6,190.1z M235.3,186.1c0.1,0,0.2,0,0.2-0.1l0,0c0-0.1,0-0.2-0.1-0.2
		s-0.2,0-0.2,0.1l0,0C235.1,186,235.2,186.1,235.3,186.1L235.3,186.1z M248.2,197.9c0,0.1,0.1,0.1,0.2,0.1l0,0
		c0.1,0,0.1-0.1,0.1-0.2l0,0c0-0.1-0.1-0.1-0.2-0.1C248.2,197.7,248.1,197.8,248.2,197.9L248.2,197.9L248.2,197.9z M224.2,191
		c0.1,0.1,0.2,0.1,0.2,0s0.1-0.2,0-0.2s-0.2-0.1-0.2,0C224.2,190.8,224.2,190.9,224.2,191L224.2,191L224.2,191z M227.2,188
		c0.1,0.1,0.1,0.1,0.2,0l0,0l0,0c0,0,0.1-0.1,0.1-0.2v-0.1c-0.1-0.1-0.2-0.1-0.2,0C227.2,187.8,227.2,188,227.2,188L227.2,188z
		 M230.3,185c0.1,0.1,0.2,0.1,0.2,0c0.1-0.1,0.1-0.2,0-0.2s-0.2-0.1-0.2,0C230.2,184.8,230.2,185,230.3,185L230.3,185L230.3,185z
		 M233.3,182c0.1,0.1,0.2,0.1,0.2,0l0,0c0.1-0.1,0.1-0.2,0-0.2l0,0c-0.1-0.1-0.2-0.1-0.2,0C233.2,181.8,233.2,182,233.3,182
		L233.3,182L233.3,182z M239.1,197.3c0,0.1,0.1,0.2,0.2,0.2s0.2-0.1,0.2-0.2s-0.1-0.2-0.2-0.2C239.2,197.1,239.1,197.2,239.1,197.3
		L239.1,197.3z M239.1,193.1c0,0.1,0.1,0.2,0.2,0.2l0,0c0.1,0,0.2-0.1,0.2-0.2l0,0c0-0.1-0.1-0.2-0.2-0.2
		C239.2,192.9,239.2,193,239.1,193.1L239.1,193.1z M207.2,199c0.1,0.1,0.3,0.2,0.5,0l0,0c0.1-0.1,0.2-0.3,0-0.5l0,0
		c-0.1-0.1-0.3-0.2-0.5,0l0,0C207.1,198.6,207,198.8,207.2,199L207.2,199z M213.2,193.7c0.1,0.1,0.3,0.2,0.5,0
		c0.1-0.1,0.2-0.3,0-0.5l0,0c-0.1-0.1-0.3-0.2-0.5,0l0,0C213.2,193.3,213.1,193.5,213.2,193.7z M219.3,188.4c0.1,0.1,0.3,0.2,0.5,0
		s0.2-0.3,0-0.5s-0.3-0.2-0.5,0C219.2,188,219.2,188.2,219.3,188.4L219.3,188.4L219.3,188.4z M225.4,183.1c0.1,0.1,0.2,0.1,0.4,0.1
		c0,0,0.1,0,0.1-0.1c0,0,0.1-0.1,0.1-0.2l0,0c0-0.1,0-0.2-0.1-0.3c-0.1-0.1-0.3-0.2-0.5,0l0,0C225.3,182.8,225.3,183,225.4,183.1
		L225.4,183.1z M231.4,219.2c0,0.2,0.1,0.3,0.3,0.4c0.2,0,0.3-0.1,0.4-0.3l0,0c0-0.2-0.1-0.3-0.3-0.4
		C231.5,218.8,231.4,219,231.4,219.2L231.4,219.2L231.4,219.2z M231.9,211.1c0,0.2,0.1,0.3,0.3,0.4s0.3-0.1,0.4-0.3l0,0
		c0-0.2-0.1-0.3-0.3-0.4l0,0C232.1,210.8,232,210.9,231.9,211.1L231.9,211.1z M232.5,203.1c0,0.2,0.1,0.3,0.3,0.4l0,0
		c0.2,0,0.3-0.1,0.4-0.3l0,0c0-0.2-0.1-0.3-0.3-0.4C232.7,202.8,232.5,202.9,232.5,203.1L232.5,203.1z M233.1,195
		c0,0.2,0.1,0.3,0.3,0.4c0.2,0,0.3-0.1,0.4-0.3c0-0.2-0.1-0.3-0.3-0.4l0,0C233.2,194.7,233.1,194.8,233.1,195L233.1,195L233.1,195z
		 M233.6,187c0,0.2,0.1,0.3,0.3,0.4s0.3-0.1,0.4-0.3l0,0c0-0.2-0.1-0.3-0.3-0.4l0,0C233.8,186.7,233.7,186.8,233.6,187L233.6,187z
		 M203.5,185.1c0.1,0.2,0.3,0.3,0.4,0.2c0.2-0.1,0.3-0.3,0.2-0.4c-0.1-0.2-0.3-0.3-0.4-0.2C203.5,184.7,203.4,184.9,203.5,185.1
		L203.5,185.1L203.5,185.1z M211.1,182.5c0.1,0.2,0.2,0.3,0.4,0.2s0.3-0.2,0.2-0.4l0,0c-0.1-0.2-0.2-0.3-0.4-0.2
		C211.2,182.2,211.1,182.3,211.1,182.5z M218.8,180c0.1,0.2,0.2,0.3,0.4,0.2l0,0c0.2-0.1,0.3-0.2,0.2-0.4l0,0
		c-0.1-0.2-0.2-0.3-0.4-0.2l0,0C218.8,179.6,218.7,179.8,218.8,180L218.8,180z M216,211.3c0.2,0.1,0.4,0,0.4-0.2
		c0.1-0.2,0-0.4-0.2-0.4c-0.2-0.1-0.4,0-0.4,0.2C215.8,211,215.9,211.2,216,211.3L216,211.3z M219.6,204.1c0.2,0.1,0.4,0,0.4-0.2
		c0.1-0.2,0-0.4-0.2-0.4c-0.2-0.1-0.4,0-0.4,0.2C219.4,203.8,219.5,204,219.6,204.1L219.6,204.1z M223.2,196.9
		c0.2,0.1,0.4,0,0.5-0.2s0-0.4-0.1-0.4c-0.2-0.1-0.4,0-0.5,0.1S223.1,196.8,223.2,196.9L223.2,196.9z M226.8,189.6
		c0.2,0.1,0.4,0,0.4-0.1l0,0c0.1-0.2,0-0.4-0.1-0.4c-0.2-0.1-0.4,0-0.4,0.1l0,0C226.6,189.3,226.7,189.5,226.8,189.6L226.8,189.6
		L226.8,189.6z M230.5,182.4c0.2,0.1,0.4,0,0.4-0.2c0.1-0.2,0-0.4-0.2-0.4c-0.2-0.1-0.3,0-0.4,0.1
		C230.2,182.1,230.3,182.3,230.5,182.4C230.4,182.4,230.4,182.4,230.5,182.4L230.5,182.4z M246.6,213.5c0.1,0.2,0.3,0.3,0.4,0.2
		c0.2-0.1,0.3-0.2,0.2-0.4l0,0c0-0.2-0.2-0.3-0.4-0.2l0,0C246.7,213.2,246.6,213.3,246.6,213.5L246.6,213.5z M244.1,205.9
		c0.1,0.2,0.2,0.3,0.4,0.2c0.2-0.1,0.3-0.3,0.2-0.4c-0.1-0.2-0.2-0.3-0.4-0.2l0,0C244.1,205.5,244,205.7,244.1,205.9L244.1,205.9
		L244.1,205.9z M241.5,198.2c0.1,0.2,0.2,0.3,0.4,0.2l0,0c0.2-0.1,0.3-0.2,0.2-0.4l0,0c-0.1-0.2-0.2-0.3-0.4-0.2
		S241.5,198,241.5,198.2L241.5,198.2L241.5,198.2z M239,190.6c0.1,0.2,0.3,0.3,0.4,0.2c0.2-0.1,0.3-0.2,0.2-0.4l0,0
		c-0.1-0.2-0.2-0.3-0.4-0.2C239,190.2,238.9,190.4,239,190.6L239,190.6z M198.9,181.2c0-0.1,0.1-0.1,0.1-0.2c0,0,0-0.1-0.1-0.1
		C198.9,180.9,198.9,181.1,198.9,181.2L198.9,181.2z M205.4,179.5c0,0.2,0.2,0.3,0.3,0.2l0,0c0.2,0,0.3-0.2,0.2-0.4
		s-0.2-0.3-0.4-0.2C205.4,179.2,205.3,179.3,205.4,179.5L205.4,179.5L205.4,179.5z M212.4,177.9c0,0.2,0.2,0.3,0.3,0.2l0,0
		c0.2,0,0.3-0.2,0.2-0.4c0-0.2-0.2-0.3-0.4-0.2S212.3,177.7,212.4,177.9L212.4,177.9z M209.1,207.6c0.1,0.1,0.3,0,0.4-0.1
		s0-0.3-0.1-0.4s-0.3,0-0.4,0.1S208.9,207.5,209.1,207.6z M212.9,201.5c0.1,0.1,0.3,0,0.4-0.1s0.1-0.3-0.1-0.4s-0.3-0.1-0.4,0.1l0,0
		C212.7,201.2,212.7,201.4,212.9,201.5L212.9,201.5L212.9,201.5z M216.6,195.2c0,0.1,0.1,0.1,0.1,0.2c0.1,0.1,0.3,0,0.4-0.1
		s0-0.3-0.1-0.4l0,0c-0.1-0.1-0.2-0.1-0.3,0l0,0c-0.1,0-0.1,0.1-0.1,0.1C216.5,195,216.5,195.1,216.6,195.2L216.6,195.2z
		 M220.5,189.3c0.1,0.1,0.3,0,0.4-0.1s0-0.3-0.1-0.4s-0.3,0-0.4,0.1C220.3,189,220.4,189.2,220.5,189.3
		C220.5,189.2,220.5,189.2,220.5,189.3L220.5,189.3z M224.3,183.1c0.1,0.1,0.3,0,0.4-0.1s0-0.3-0.1-0.4s-0.3,0-0.4,0.1
		C224.1,182.9,224.2,183,224.3,183.1L224.3,183.1z M238.8,212.4c0,0.2,0.2,0.3,0.4,0.2c0.2,0,0.3-0.2,0.2-0.3l0,0
		c0-0.2-0.2-0.3-0.4-0.2l0,0C238.9,212.1,238.8,212.2,238.8,212.4L238.8,212.4z M237.2,205.4c0,0.2,0.2,0.3,0.4,0.2
		c0.2,0,0.3-0.2,0.2-0.3l0,0c0-0.2-0.2-0.3-0.4-0.2l0,0C237.3,205,237.2,205.2,237.2,205.4L237.2,205.4z M235.6,198.3
		c0,0.2,0.2,0.3,0.4,0.2l0,0c0.2,0,0.3-0.2,0.2-0.3l0,0c0-0.2-0.2-0.3-0.4-0.2l0,0C235.6,198,235.5,198.2,235.6,198.3L235.6,198.3z
		 M234,191.3c0,0.2,0.2,0.3,0.4,0.2c0.2,0,0.3-0.2,0.2-0.4c0-0.2-0.2-0.3-0.4-0.2C234,191,233.9,191.2,234,191.3L234,191.3z
		 M232.3,184.3c0,0.2,0.2,0.3,0.4,0.2c0.2,0,0.3-0.2,0.2-0.4l0,0c0-0.2-0.2-0.3-0.4-0.2C232.4,184,232.3,184.2,232.3,184.3
		L232.3,184.3z M206.1,190.3c0.1,0.1,0.3,0.2,0.4,0.1l0,0c0.1-0.1,0.2-0.3,0.1-0.4l0,0c-0.1-0.1-0.3-0.2-0.4-0.1l0,0
		C206,190,206,190.2,206.1,190.3L206.1,190.3z M211.9,186.2c0.1,0.1,0.3,0.2,0.4,0.1s0.2-0.3,0.1-0.4s-0.3-0.2-0.4-0.1
		C211.8,185.8,211.8,186,211.9,186.2L211.9,186.2L211.9,186.2z M217.8,182c0.1,0.1,0.3,0.2,0.4,0.1s0.2-0.3,0.1-0.4
		s-0.3-0.2-0.4-0.1l0,0C217.7,181.6,217.7,181.8,217.8,182L217.8,182L217.8,182z M223.4,209.1c0,0.2,0.1,0.3,0.3,0.3
		c0.2,0,0.3-0.1,0.3-0.2c0-0.2-0.1-0.3-0.2-0.4C223.6,208.8,223.4,208.9,223.4,209.1L223.4,209.1z M224.6,202c0,0.2,0.1,0.3,0.2,0.3
		l0,0c0.2,0,0.3-0.1,0.3-0.2c0-0.2-0.1-0.3-0.2-0.4C224.7,201.7,224.6,201.8,224.6,202L224.6,202z M225.8,194.9
		c0,0.2,0.1,0.3,0.2,0.3s0.3-0.1,0.3-0.2l0,0c0-0.2-0.1-0.3-0.2-0.3C225.9,194.6,225.8,194.7,225.8,194.9z M226.9,187.8
		c0,0.2,0.1,0.3,0.2,0.3s0.2,0,0.3-0.1l0,0c0,0,0.1-0.1,0.1-0.2c0-0.2-0.1-0.3-0.3-0.3C227.1,187.5,227,187.6,226.9,187.8
		L226.9,187.8z M228.1,180.7c0,0.2,0.1,0.3,0.3,0.4c0.2,0,0.3-0.1,0.3-0.3v-0.1c-0.1,0-0.1-0.1-0.1-0.2l-0.1-0.1
		C228.3,180.4,228.2,180.5,228.1,180.7L228.1,180.7z M250.3,203.3c0.1,0.1,0.3,0.2,0.4,0.1l0,0c0.1-0.1,0.2-0.3,0.1-0.4l0,0
		c-0.1-0.1-0.3-0.2-0.4-0.1C250.3,203,250.2,203.2,250.3,203.3L250.3,203.3L250.3,203.3z M246.1,197.5c0.1,0.1,0.3,0.2,0.4,0.1
		s0.2-0.3,0.1-0.4s-0.3-0.2-0.4-0.1C246.1,197.1,246,197.3,246.1,197.5L246.1,197.5L246.1,197.5z M209.5,189.7
		c0.1,0.1,0.2,0.1,0.3,0s0.1-0.2,0-0.3s-0.2-0.1-0.3,0l0,0C209.5,189.5,209.5,189.7,209.5,189.7L209.5,189.7z M212.4,186.6
		c0.1,0.1,0.2,0.1,0.3,0c0.1-0.1,0.1-0.2,0-0.3c-0.1-0.1-0.2-0.1-0.3,0l0,0C212.4,186.4,212.4,186.6,212.4,186.6L212.4,186.6z
		 M215.3,183.5c0.1,0.1,0.2,0.1,0.2,0c0.1-0.1,0.1-0.2,0-0.2l0,0c-0.1-0.1-0.2-0.1-0.2,0C215.3,183.3,215.3,183.4,215.3,183.5
		L215.3,183.5L215.3,183.5z M218.2,180.4c0.1,0.1,0.2,0.1,0.2,0c0.1-0.1,0.1-0.2,0-0.2l0,0c-0.1-0.1-0.2-0.1-0.3,0
		C218.2,180.2,218.2,180.3,218.2,180.4L218.2,180.4z M226.2,195.9c0,0.1,0.1,0.2,0.2,0.2s0.2-0.1,0.2-0.2s-0.1-0.2-0.2-0.2l0,0
		C226.3,195.7,226.2,195.8,226.2,195.9L226.2,195.9L226.2,195.9z M226.1,191.6c0,0.1,0.1,0.2,0.2,0.2s0.2-0.1,0.2-0.2l0,0
		c0-0.1-0.1-0.2-0.2-0.2l0,0C226.1,191.4,226.1,191.5,226.1,191.6L226.1,191.6L226.1,191.6z M225.9,187.4c0,0.1,0.1,0.2,0.2,0.2
		s0.2-0.1,0.2-0.2l0,0c0-0.1-0.1-0.2-0.2-0.2l0,0C226,187.2,225.9,187.3,225.9,187.4L225.9,187.4L225.9,187.4z M225.8,183.1
		L225.8,183.1c0,0.1,0.1,0.2,0.2,0.2s0.2-0.1,0.2-0.2l0,0c0-0.1,0-0.1-0.1-0.2l0,0l0,0C225.9,183,225.8,183,225.8,183.1L225.8,183.1
		L225.8,183.1z M206.1,181.1c0,0.1,0.1,0.1,0.2,0.1s0.1-0.1,0.1-0.2s-0.1-0.1-0.2-0.1l0,0C206.1,180.9,206.1,181,206.1,181.1
		L206.1,181.1z M210,179.3c0,0.1,0.1,0.1,0.2,0.1s0.1-0.1,0.1-0.2l0,0c0-0.1-0.1-0.1-0.2-0.1l0,0C210,179.1,209.9,179.2,210,179.3
		L210,179.3L210,179.3z M213.8,177.5c0,0.1,0.1,0.1,0.2,0.1l0,0c0.1,0,0.1-0.1,0.1-0.2l0,0c0-0.1-0.1-0.1-0.2-0.1l0,0
		C213.8,177.4,213.8,177.5,213.8,177.5L213.8,177.5z M218,192.3c0.1,0,0.2,0,0.2-0.1s0-0.2-0.1-0.2l0,0c-0.1,0-0.2,0-0.2,0.1l0,0
		C217.8,192.2,217.9,192.3,218,192.3L218,192.3z M219.5,188.4c0.1,0,0.2,0,0.2-0.1s0-0.2-0.1-0.2s-0.2,0-0.2,0.1l0,0
		C219.3,188.2,219.4,188.3,219.5,188.4L219.5,188.4L219.5,188.4z M221,184.4c0.1,0,0.2,0,0.2-0.1l0,0c0-0.1,0-0.2-0.1-0.2
		s-0.2,0-0.2,0.1C220.8,184.2,220.9,184.3,221,184.4C220.9,184.4,221,184.4,221,184.4L221,184.4z M222.4,180.4c0.1,0,0.2,0,0.2-0.1
		l0,0c0-0.1,0-0.2-0.1-0.2s-0.2,0-0.2,0.1S222.4,180.4,222.4,180.4L222.4,180.4z M234.1,191.8c0,0.1,0.1,0.1,0.2,0.1
		s0.1-0.1,0.1-0.2s-0.1-0.1-0.2-0.1l0,0C234.1,191.6,234.1,191.7,234.1,191.8L234.1,191.8L234.1,191.8z M232.4,188
		c0,0.1,0.1,0.1,0.2,0.1s0.1-0.1,0.1-0.2l0,0c0-0.1-0.1-0.1-0.2-0.1l0,0C232.4,187.8,232.3,187.9,232.4,188L232.4,188L232.4,188z
		 M230.6,184.1c0,0.1,0.1,0.1,0.2,0.1s0.1-0.1,0.1-0.2l0,0c0-0.1-0.2-0.1-0.2-0.1C230.6,183.9,230.6,184,230.6,184.1z M228.8,180.2
		c0,0.1,0.1,0.1,0.2,0.1l0,0c0.1,0,0.1-0.1,0.1-0.1v-0.1c0-0.1-0.1-0.1-0.2-0.1c0,0-0.1,0-0.1,0.1l0,0V180.2L228.8,180.2z
		 M199.5,176c0,0.1,0.1,0.2,0.2,0.1c0.1,0,0.2-0.1,0.2-0.2s-0.1-0.2-0.2-0.1l0,0C199.5,175.8,199.5,175.9,199.5,176L199.5,176
		L199.5,176z M206.5,193.9c0.1,0.1,0.2,0,0.3-0.1l0,0c0.1-0.1,0-0.2,0-0.3l0,0c-0.1-0.1-0.2,0-0.3,0.1l0,0
		C206.4,193.7,206.4,193.9,206.5,193.9L206.5,193.9z M209.1,189.9c0.1,0.1,0.2,0,0.3-0.1c0.1-0.1,0-0.2-0.1-0.3
		c-0.1-0.1-0.2,0-0.3,0.1l0,0C209,189.7,209,189.8,209.1,189.9C209.1,189.8,209.1,189.9,209.1,189.9L209.1,189.9z M211.7,185.8
		c0.1,0,0.2,0,0.3,0l0,0c0.1-0.1,0-0.2-0.1-0.3s-0.2,0-0.3,0.1C211.6,185.6,211.6,185.7,211.7,185.8L211.7,185.8z M214.3,181.7
		c0.1,0.1,0.2,0,0.3-0.1s0-0.2-0.1-0.3l0,0c-0.1,0-0.1,0-0.2,0l0,0v0.1C214.2,181.5,214.2,181.6,214.3,181.7L214.3,181.7z
		 M226.5,197.4c0,0.1,0.1,0.2,0.2,0.2l0,0c0.1,0,0.2-0.1,0.1-0.2c0-0.1-0.1-0.2-0.2-0.2S226.5,197.3,226.5,197.4L226.5,197.4
		L226.5,197.4z M225.4,192.7c0,0.1,0.1,0.2,0.2,0.1l0,0c0.1,0,0.2-0.1,0.1-0.2c0-0.1-0.1-0.2-0.2-0.2
		C225.5,192.4,225.4,192.6,225.4,192.7L225.4,192.7z M224.4,187.9c0,0.1,0.1,0.2,0.2,0.2l0,0c0.1,0,0.2-0.1,0.1-0.2
		c0-0.1-0.1-0.2-0.2-0.2C224.5,187.7,224.4,187.8,224.4,187.9L224.4,187.9z M223.4,183.2c0,0.1,0.1,0.2,0.2,0.2l0,0
		c0.1,0,0.2-0.1,0.1-0.2c0-0.1-0.1-0.2-0.2-0.2S223.4,183.1,223.4,183.2L223.4,183.2z M201,185c0.1,0.1,0.2,0.1,0.3,0.1l0,0
		c0.1-0.1,0.1-0.2,0-0.3c-0.1-0.1-0.2-0.1-0.3,0l0,0C200.9,184.8,200.9,184.9,201,185L201,185z M205,182.2c0.1,0.1,0.2,0.1,0.3,0
		c0.1-0.1,0.1-0.2,0.1-0.3l0,0c-0.1-0.1-0.2-0.1-0.3,0C204.9,182,204.9,182.1,205,182.2L205,182.2z M208.9,179.5
		c0.1,0.1,0.2,0.1,0.3,0.1l0,0c0.1-0.1,0.1-0.2,0.1-0.3l0,0c-0.1-0.1-0.2-0.1-0.3-0.1C208.9,179.2,208.9,179.4,208.9,179.5
		L208.9,179.5L208.9,179.5z M216.6,195.2L216.6,195.2c0.2,0.1,0.3,0,0.3-0.1l0,0c0-0.1,0-0.2-0.2-0.2l0,0c-0.1,0-0.2,0.1-0.2,0.2
		l0,0C216.5,195.1,216.5,195.1,216.6,195.2L216.6,195.2z M217.3,190.2c0,0.1,0,0.2,0.1,0.2l0,0c0.1,0,0.2,0,0.2-0.2
		c0-0.1-0.1-0.2-0.2-0.2C217.5,190,217.4,190.1,217.3,190.2L217.3,190.2z M218.2,185.4c0,0.1,0.1,0.2,0.2,0.2s0.2-0.1,0.2-0.2
		s-0.1-0.2-0.2-0.2l0,0C218.3,185.3,218.2,185.3,218.2,185.4L218.2,185.4L218.2,185.4z M219,180.7c0,0.1,0.1,0.2,0.2,0.2
		s0.2,0,0.2-0.1l0,0c0-0.1,0-0.2-0.1-0.2l0,0C219.2,180.5,219.1,180.6,219,180.7L219,180.7L219,180.7z M234.7,191.3
		c0.1,0.1,0.2,0.1,0.3,0l0,0c0.1-0.1,0.1-0.2,0-0.3c-0.1-0.1-0.2-0.1-0.3-0.1l0,0C234.6,191.1,234.6,191.2,234.7,191.3L234.7,191.3z
		 M231.9,187.3c0.1,0.1,0.2,0.1,0.3,0.1l0,0c0.1-0.1,0.1-0.2,0.1-0.3l0,0c-0.1-0.1-0.2-0.1-0.3-0.1
		C231.9,187.1,231.8,187.2,231.9,187.3L231.9,187.3L231.9,187.3z M229.1,183.3c0.1,0.1,0.2,0.1,0.3,0c0.1-0.1,0.1-0.2,0.1-0.3
		c-0.1-0.1-0.2-0.1-0.3-0.1l0,0C229.1,183.1,229.1,183.3,229.1,183.3L229.1,183.3z M199.3,182.5c0.1,0.2,0.3,0.2,0.5,0.1
		c0.1-0.1,0.2-0.3,0.1-0.5s-0.3-0.2-0.5-0.1C199.2,182.2,199.2,182.4,199.3,182.5L199.3,182.5z M206,177.6c0.1,0.2,0.3,0.2,0.5,0.1
		s0.2-0.3,0.1-0.5l0,0c-0.1-0.2-0.3-0.2-0.5-0.1C205.9,177.3,205.9,177.5,206,177.6L206,177.6z M210.2,207c0,0.2,0.1,0.4,0.3,0.4
		c0.2,0,0.4-0.1,0.4-0.3c0-0.2-0.1-0.4-0.3-0.4S210.2,206.8,210.2,207L210.2,207z M211.5,198.8c0,0.2,0.1,0.4,0.3,0.4
		c0.2,0,0.4-0.1,0.4-0.3s-0.1-0.4-0.3-0.4C211.7,198.5,211.5,198.6,211.5,198.8z M212.8,190.6c0,0.2,0.1,0.4,0.3,0.4
		s0.4-0.1,0.4-0.3s-0.1-0.4-0.3-0.4S212.8,190.4,212.8,190.6L212.8,190.6z M214.1,182.4c0,0.2,0.1,0.4,0.3,0.4
		c0.2,0,0.4-0.1,0.4-0.3c0-0.2-0.1-0.4-0.3-0.4C214.3,182,214.1,182.2,214.1,182.4L214.1,182.4z M243,207.2c0.1,0.2,0.3,0.2,0.5,0.1
		s0.2-0.3,0.1-0.5c-0.1-0.1-0.3-0.2-0.5-0.1C242.9,206.9,242.9,207.1,243,207.2L243,207.2z M238.1,200.5c0.1,0.1,0.3,0.2,0.5,0.1
		s0.2-0.3,0.1-0.5s-0.3-0.2-0.5-0.1l0,0C238,200.2,238,200.4,238.1,200.5L238.1,200.5z M233.2,193.8c0.1,0.2,0.3,0.2,0.5,0.1
		s0.2-0.3,0.1-0.5s-0.3-0.2-0.5-0.1C233.1,193.5,233.1,193.7,233.2,193.8L233.2,193.8z M228.3,187.1c0.1,0.2,0.3,0.2,0.5,0.1
		c0.1-0.1,0.2-0.3,0.1-0.5c-0.1-0.1-0.3-0.2-0.5-0.1l0,0C228.2,186.7,228.2,186.9,228.3,187.1L228.3,187.1L228.3,187.1z
		 M223.4,180.4c0.1,0.2,0.3,0.2,0.5,0.1c0.1-0.1,0.2-0.3,0.1-0.5s-0.3-0.2-0.5-0.1C223.3,180,223.3,180.2,223.4,180.4L223.4,180.4z
		 M202.7,191.8c0.2,0.1,0.4,0,0.5-0.1s0-0.4-0.1-0.5c-0.2-0.1-0.4,0-0.5,0.1C202.5,191.5,202.5,191.7,202.7,191.8z M207,184.7
		c0.2,0.1,0.4,0.1,0.5-0.1l0,0c0.1-0.2,0-0.4-0.1-0.5c-0.2-0.1-0.4-0.1-0.5,0.1l0,0C206.8,184.4,206.9,184.6,207,184.7L207,184.7z
		 M211.4,177.6c0.2,0.1,0.4,0.1,0.5-0.1l0,0c0.1-0.2,0-0.4-0.1-0.4l0,0c-0.1-0.1-0.3-0.1-0.4,0.1l0,0
		C211.2,177.3,211.2,177.5,211.4,177.6L211.4,177.6L211.4,177.6z M225.3,211c0.1,0.2,0.2,0.3,0.4,0.3c0.2-0.1,0.3-0.2,0.2-0.4
		c0-0.2-0.2-0.3-0.4-0.3l0,0C225.3,210.6,225.2,210.8,225.3,211L225.3,211z M223.3,202.9c0,0.2,0.2,0.3,0.4,0.3l0,0
		c0.2,0,0.3-0.2,0.2-0.4l0,0c0-0.2-0.2-0.3-0.4-0.3C223.4,202.5,223.3,202.7,223.3,202.9z M221.4,194.8c0,0.2,0.2,0.3,0.4,0.3l0,0
		c0.2,0,0.3-0.2,0.3-0.4c0-0.2-0.2-0.3-0.4-0.3C221.4,194.4,221.3,194.6,221.4,194.8L221.4,194.8z M219.4,186.7
		c0,0.2,0.2,0.3,0.4,0.2c0.2,0,0.3-0.2,0.2-0.4c0-0.2-0.2-0.3-0.4-0.3C219.5,186.3,219.4,186.5,219.4,186.7L219.4,186.7L219.4,186.7
		z M200,186.4c0.2,0.1,0.4,0.1,0.5-0.1s0.1-0.4-0.1-0.5c-0.1-0.1-0.4-0.1-0.5,0.1l0,0C199.8,186,199.9,186.3,200,186.4L200,186.4
		L200,186.4z M204.6,179.5c0.2,0.1,0.4,0.1,0.5-0.1s0.1-0.4-0.1-0.5c-0.1-0.1-0.4-0.1-0.5,0.1l0,0
		C204.4,179.2,204.5,179.4,204.6,179.5L204.6,179.5L204.6,179.5z M220.2,213.6c0,0.2,0.2,0.3,0.4,0.3c0.2,0,0.3-0.2,0.3-0.4
		c0-0.2-0.2-0.3-0.4-0.3C220.3,213.3,220.2,213.4,220.2,213.6z M218.6,205.5c0,0.2,0.2,0.3,0.4,0.3c0.2,0,0.3-0.2,0.3-0.4
		c0-0.2-0.2-0.3-0.4-0.3C218.7,205.1,218.6,205.3,218.6,205.5z M217,197.4c0,0.2,0.2,0.3,0.4,0.3c0.2,0,0.3-0.2,0.3-0.4
		s-0.2-0.3-0.4-0.3C217.1,197,217,197.2,217,197.4L217,197.4z M215.4,189.3c0,0.2,0.2,0.3,0.4,0.3l0,0c0.2,0,0.3-0.2,0.3-0.4
		s-0.2-0.3-0.4-0.3S215.4,189.1,215.4,189.3L215.4,189.3L215.4,189.3z M213.8,181.1c0,0.2,0.2,0.3,0.4,0.3l0,0h0.1l0,0
		c0.1-0.1,0.2-0.2,0.1-0.3c0-0.2-0.2-0.3-0.4-0.3C213.9,180.8,213.8,180.9,213.8,181.1L213.8,181.1L213.8,181.1z M235.6,185.3
		c0.2,0.1,0.4,0.1,0.5-0.1s0.1-0.4-0.1-0.5c-0.1-0.1-0.4-0.1-0.5,0.1l0,0C235.4,185,235.5,185.2,235.6,185.3L235.6,185.3
		L235.6,185.3z M228.6,180.5c0,0.1,0.1,0.1,0.1,0.2l0,0c0.2,0.1,0.4,0.1,0.5-0.1c0.1-0.1,0.1-0.3,0-0.4c0,0,0,0-0.1-0.1
		s-0.2-0.1-0.3,0l0,0c-0.1,0-0.2,0.1-0.2,0.1C228.6,180.3,228.6,180.4,228.6,180.5L228.6,180.5z M204.6,200.9c0,0.2,0.1,0.4,0.3,0.4
		l0,0c0.2,0,0.4-0.1,0.4-0.3c0-0.2-0.1-0.4-0.3-0.4C204.8,200.6,204.7,200.7,204.6,200.9L204.6,200.9z M206.3,192.8
		c0,0.2,0.1,0.4,0.3,0.4c0.2,0,0.4-0.1,0.4-0.3l0,0c0-0.2-0.1-0.4-0.3-0.4C206.5,192.5,206.3,192.6,206.3,192.8L206.3,192.8
		L206.3,192.8z M207.9,184.7c0,0.2,0.1,0.4,0.3,0.4c0.2,0,0.4-0.1,0.4-0.3c0-0.2-0.1-0.4-0.3-0.4
		C208.1,184.3,207.9,184.5,207.9,184.7z M234.2,203.4c0.1,0.2,0.3,0.2,0.5,0.1s0.2-0.3,0.1-0.5s-0.3-0.2-0.5-0.1l0,0
		C234.1,203,234.1,203.2,234.2,203.4L234.2,203.4L234.2,203.4z M229.6,196.5c0.1,0.2,0.3,0.2,0.5,0.1s0.2-0.3,0.1-0.5
		s-0.3-0.2-0.5-0.1l0,0C229.5,196.1,229.5,196.3,229.6,196.5L229.6,196.5L229.6,196.5z M225,189.6c0.1,0.2,0.3,0.2,0.5,0.1
		s0.2-0.3,0.1-0.5s-0.3-0.2-0.5-0.1S224.9,189.4,225,189.6L225,189.6L225,189.6z M220.4,182.7c0.1,0.2,0.3,0.2,0.5,0.1
		s0.2-0.3,0.1-0.5s-0.3-0.2-0.5-0.1C220.4,182.3,220.3,182.5,220.4,182.7L220.4,182.7L220.4,182.7z M201.2,182.4
		c0.1,0.1,0.3,0,0.3-0.1c0.1-0.1,0-0.3-0.1-0.3l0,0c-0.1-0.1-0.3,0-0.3,0.1l0,0C201,182.2,201.1,182.3,201.2,182.4L201.2,182.4z
		 M203.5,176.6c0.1,0.1,0.3,0,0.3-0.1l0,0c0.1-0.1,0-0.3-0.1-0.3l0,0c-0.1,0-0.3,0-0.3,0.1l0,0C203.4,176.4,203.4,176.5,203.5,176.6
		L203.5,176.6L203.5,176.6z M220.4,199.3c0.1,0.1,0.2,0.2,0.3,0.1c0.1-0.1,0.2-0.2,0.1-0.3c0-0.1-0.2-0.2-0.3-0.1l0,0
		C220.4,199.1,220.3,199.2,220.4,199.3L220.4,199.3z M217.9,193.6c0.1,0.1,0.2,0.2,0.3,0.1s0.2-0.2,0.1-0.3
		c-0.1-0.1-0.2-0.2-0.3-0.1l0,0C217.9,193.3,217.9,193.5,217.9,193.6L217.9,193.6z M215.5,187.9c0.1,0.1,0.2,0.2,0.3,0.1
		s0.2-0.2,0.1-0.3s-0.2-0.2-0.3-0.1l0,0C215.5,187.6,215.4,187.7,215.5,187.9L215.5,187.9z M213,182.1c0.1,0.1,0.2,0.2,0.3,0.1l0,0
		c0.1-0.1,0.2-0.2,0.1-0.3l0,0c-0.1-0.1-0.2-0.2-0.3-0.1C213,181.8,213,182,213,182.1L213,182.1L213,182.1z M207.2,198.7
		c0,0.1,0.1,0.3,0.3,0.3c0.1,0,0.2-0.1,0.3-0.3c0-0.1-0.1-0.3-0.3-0.3l0,0C207.3,198.4,207.2,198.6,207.2,198.7L207.2,198.7z
		 M207.1,192.5c0,0.1,0.1,0.3,0.3,0.3c0.1,0,0.3-0.1,0.3-0.3l0,0c0-0.1-0.1-0.3-0.2-0.3l0,0C207.2,192.2,207.1,192.3,207.1,192.5
		L207.1,192.5L207.1,192.5z M207,186.2c0,0.1,0.1,0.3,0.2,0.3l0,0c0.1,0,0.2-0.1,0.3-0.2l0,0c0-0.1-0.1-0.3-0.3-0.3
		C207.1,186,207,186.1,207,186.2L207,186.2L207,186.2z M206.9,180c0,0.1,0.1,0.3,0.3,0.3l0,0c0.1,0,0.3-0.1,0.3-0.2l0,0
		c0-0.1-0.1-0.3-0.3-0.3l0,0C207.1,179.7,206.9,179.8,206.9,180L206.9,180z M229.3,189.7c0.1,0.1,0.3,0.1,0.4,0l0,0
		c0.1-0.1,0.1-0.3,0-0.4l0,0c-0.1-0.1-0.3-0.1-0.4,0S229.2,189.6,229.3,189.7L229.3,189.7z M224.8,185.3c0.1,0.1,0.3,0.1,0.4,0
		s0.1-0.3,0-0.4s-0.3-0.1-0.4,0C224.7,185,224.7,185.2,224.8,185.3z M220.3,180.9c0.1,0.1,0.3,0.1,0.4,0l0,0c0.1-0.1,0.1-0.3,0-0.4
		s-0.3-0.1-0.4,0l0,0C220.2,180.7,220.2,180.8,220.3,180.9L220.3,180.9L220.3,180.9z M205.6,184.9c0,0.1,0.1,0.1,0.2,0.1
		s0.1-0.1,0.1-0.2s-0.1-0.1-0.2-0.1l0,0C205.6,184.8,205.6,184.9,205.6,184.9L205.6,184.9z M205,181.6c0,0.1,0.1,0.1,0.2,0.1l0,0
		c0.1,0,0.1-0.1,0.1-0.1l0,0c0-0.1-0.1-0.1-0.2-0.1l0,0C205,181.4,205,181.5,205,181.6z M204.4,178.2c0,0.1,0.1,0.1,0.2,0.1l0,0
		c0.1,0,0.1-0.1,0.1-0.2s-0.1-0.1-0.2-0.1S204.4,178.2,204.4,178.2L204.4,178.2z M199.3,179.6c0,0.1,0,0.1,0.1,0.2
		c0.1,0,0.2,0,0.2-0.1s0-0.1-0.1-0.2C199.4,179.4,199.3,179.5,199.3,179.6L199.3,179.6z M200,176.2c0,0.1,0,0.1,0.1,0.2
		c0.1,0,0.2,0,0.2-0.1l0,0c0-0.1,0-0.1-0.1-0.2C200.1,176.1,200.1,176.2,200,176.2L200,176.2z M211.4,180.9c0,0.1,0.1,0.1,0.2,0
		c0.1,0,0.1-0.1,0-0.2l0,0c0-0.1-0.1-0.1-0.2,0l0,0C211.4,180.7,211.4,180.8,211.4,180.9L211.4,180.9z M209.6,178
		c0,0.1,0.1,0.1,0.2,0l0,0c0.1,0,0.1-0.1,0-0.2s-0.1-0.1-0.2,0l0,0C209.6,177.8,209.6,177.9,209.6,178L209.6,178L209.6,178z
		 M209.6,190.5c0.1,0.1,0.2,0.1,0.3,0.1l0,0c0.1-0.1,0.1-0.2,0.1-0.3l0,0c-0.1-0.1-0.2-0.1-0.3-0.1l0,0
		C209.6,190.2,209.5,190.3,209.6,190.5C209.6,190.4,209.6,190.4,209.6,190.5L209.6,190.5z M206.6,185.7c0.1,0.1,0.2,0.1,0.3,0.1l0,0
		c0.1-0.1,0.1-0.2,0.1-0.3l0,0c-0.1-0.1-0.2-0.1-0.3-0.1C206.5,185.4,206.5,185.5,206.6,185.7L206.6,185.7L206.6,185.7z
		 M203.6,180.9c0.1,0.1,0.2,0.1,0.3,0.1c0.1-0.1,0.1-0.2,0.1-0.3l0,0c-0.1-0.1-0.2-0.1-0.3-0.1C203.5,180.6,203.5,180.8,203.6,180.9
		L203.6,180.9z M200.6,176.1c0.1,0.1,0.2,0.1,0.3,0.1c0.1-0.1,0.1-0.2,0.1-0.3c-0.1-0.1-0.2-0.1-0.3-0.1l0,0
		C200.5,175.9,200.5,176,200.6,176.1L200.6,176.1z M216,180.5c0.1,0.1,0.2,0.1,0.3,0l0,0c0.1-0.1,0-0.3-0.1-0.3
		c-0.1-0.1-0.2,0-0.3,0C215.8,180.3,215.9,180.4,216,180.5L216,180.5z"/>
	
		<linearGradient id="sweater_1_" gradientUnits="userSpaceOnUse" x1="243.435" y1="298.2595" x2="244.8767" y2="166.1045" gradientTransform="matrix(1 0 0 -1 0 391.3961)">
		<stop  offset="0" style="stop-color:#015660"/>
		<stop  offset="1" style="stop-color:#002B30"/>
	</linearGradient>
	<path id="sweater" class="st11" d="M307.3,63.1c0,0-22.3-1.6-48.1,8.9s-27.7,19.8-42.3,26.4s-52.3,16.2-51,58.2
		c0,0,21.5,27.5,102.2,23.8L321.5,77C321.5,76.9,311.1,75.3,307.3,63.1z"/>
	
		<linearGradient id="R_hand_1_" gradientUnits="userSpaceOnUse" x1="411.4567" y1="161.1857" x2="355.3612" y2="192.8526" gradientTransform="matrix(1 0 0 -1 0 391.3961)">
		<stop  offset="0" style="stop-color:#FFBEB6"/>
		<stop  offset="1" style="stop-color:#F2A19C"/>
	</linearGradient>
	<path id="R_hand" class="st12" d="M434.9,242.3c-10.8,2-10.2-2.9-19.3-3.5c-5.2-0.3-45.6-3.6-62.8-6l8.9-35.7
		c6.4,3.2,29.9,16.3,35.1,17.7c15.8,4.1,20.4,5.8,23.5,3.4c1.9-1.4,4.1-2.3,6.5-2.5l7.5-0.9c6.5-3.2,7.3-5.3,10,0
		C446.9,220.1,445.7,240.3,434.9,242.3z"/>
	<path id="R_sleeve" class="st4" d="M323.3,74.7c0,0-10.9,35.4-9.2,59.3s4.6,32.1,22.2,43c13.7,8.5,26.5,15.5,26.5,15.5L346,260
		c0,0-23.7-3.4-34.5-20.5c-12.1-19.2-22.3-20-33.1-23.4s-33-17.1-27.6-53.4s19.1-62.6,54-99.8l0,0"/>
	
		<linearGradient id="neck_1_" gradientUnits="userSpaceOnUse" x1="304.6668" y1="312.3109" x2="326.6911" y2="336.0972" gradientTransform="matrix(1 0 0 -1 0 391.3961)">
		<stop  offset="0" style="stop-color:#FFBEB6"/>
		<stop  offset="1" style="stop-color:#F2A19C"/>
	</linearGradient>
	<path id="neck" class="st13" d="M334,59.9c-2.8,3.6-8.9,11.5-10.7,14.9c0,0-11.2,5.7-18.4-11.8c0-0.1,8.9-3.9,13.3-7.5
		C323.1,58.1,328.4,59.6,334,59.9z"/>
	<path id="face" class="st14" d="M360.5,42c-0.6,0.2-1.1,0.6-1.3,1.1c-2.2,4.7-14,25.9-41.2,12.2c0,0-0.1-0.1-0.3-0.2l0,0
		c1,0.3,2.1-0.3,2.5-1.3c0.4-1.2,0.3-3.3-1.4-7.1c-3.7-8.7,1.1-13.7,4-12.3c3,1.4,5.5,13.4,9.6,7.6c2.9-3.9,2.7-9.6,4.1-12.7
		c0.3-0.5,0.8-0.9,1.4-1.1l18.9-4.6c0.1,0.4,0.2,0.8,0.3,1.2c0,0.1,0.1,0.3,0.1,0.4c0.5,1.2,3.2,7.9,6.4,10
		C367,37.6,365.6,40.7,360.5,42z"/>
	<path id="hair" class="st15" d="M304.5,36.6l32.6-8c-2,2.8-1.5,9.2-4.7,13.5c-4.2,5.8-6.7-6.2-9.6-7.6c-3-1.4-7.8,3.6-4,12.3
		c3.7,8.7-0.5,8.6-0.5,8.6C308.9,53.7,305.2,40,304.5,36.6z"/>
	<path id="mouth" class="st16" d="M358,50.1c-1.4,2.1-4.2,2.7-6.3,1.3c-0.8-0.5-1.3-1.2-1.7-2.1c-0.3-0.6,0.7-1.2,1-0.5
		c0.7,1.8,2.7,2.7,4.5,2.1c0.7-0.2,1.3-0.7,1.7-1.3C357.5,48.9,358.5,49.5,358,50.1L358,50.1z"/>
	<path id="cap_bottom" class="st5" d="M386,16.7l-81.8,20l0,0l-0.7-3l0,0l79.9-19.5c1-0.3,2.1,0.4,2.4,1.4l0,0L386,16.7L386,16.7z"
		/>
	
		<linearGradient id="cap_top_1_" gradientUnits="userSpaceOnUse" x1="351.2295" y1="390.8857" x2="278.8482" y2="337.5399" gradientTransform="matrix(1 0 0 -1 -1.631821e-05 391.3962)">
		<stop  offset="0" style="stop-color:#61B6C0"/>
		<stop  offset="1" style="stop-color:#498990"/>
	</linearGradient>
	<path id="cap_top" class="st17" d="M356.5,20.7l-53.1,13l0,0l-1.5-6c-2.6-10.5,3.9-21,14.3-23.6l14.4-3.5
		c10.9-2.7,21.9,4,24.5,14.9L356.5,20.7L356.5,20.7z"/>
</g>
</svg>
